M48
; DRILL file {KiCad 9.0.7-9.0.7~ubuntu24.04.1} date 2026-01-31T19:09:02-0600
; FORMAT={-:-/ absolute / metric / decimal}
; #@! TF.CreationDate,2026-01-31T19:09:02-06:00
; #@! TF.GenerationSoftware,Kicad,Pcbnew,9.0.7-9.0.7~ubuntu24.04.1
; #@! TF.FileFunction,Plated,1,4,PTH
FMAT,2
METRIC
; #@! TA.AperFunction,Plated,PTH,ViaDrill
T1C0.300
; #@! TA.AperFunction,Plated,PTH,ComponentDrill
T2C0.500
; #@! TA.AperFunction,Plated,PTH,ComponentDrill
T3C0.800
; #@! TA.AperFunction,Plated,PTH,ComponentDrill
T4C0.900
; #@! TA.AperFunction,Plated,PTH,ComponentDrill
T5C1.000
; #@! TA.AperFunction,Plated,PTH,ComponentDrill
T6C2.700
%
G90
G05
T1
X96.213Y-92.6
X105.475Y-71.45
X123.7Y-96.45
X129.6Y-91.35
T2
X51.475Y-54.0
X51.475Y-103.0
X52.068Y-52.568
X52.068Y-55.432
X52.068Y-101.568
X52.068Y-104.432
X53.5Y-51.975
X53.5Y-56.025
X53.5Y-100.975
X53.5Y-105.025
X54.932Y-52.568
X54.932Y-55.432
X54.932Y-101.568
X54.932Y-104.432
X55.525Y-54.0
X55.525Y-103.0
X109.475Y-54.0
X109.475Y-103.0
X110.068Y-52.568
X110.068Y-55.432
X110.068Y-101.568
X110.068Y-104.432
X111.5Y-51.975
X111.5Y-56.025
X111.5Y-100.975
X111.5Y-105.025
X112.932Y-52.568
X112.932Y-55.432
X112.932Y-101.568
X112.932Y-104.432
X113.525Y-54.0
X113.525Y-103.0
T3
X118.43Y-73.7
X118.43Y-76.888
X118.43Y-80.075
X126.05Y-73.7
X126.05Y-76.888
X126.05Y-80.075
T4
X125.51Y-96.34
X127.669Y-96.34
X129.828Y-96.34
X131.987Y-96.34
T5
X84.87Y-59.45
X84.87Y-61.99
X84.87Y-64.53
X84.87Y-69.61
X84.87Y-87.39
X87.41Y-59.45
X87.41Y-61.99
X87.41Y-64.53
X87.41Y-69.61
X87.41Y-87.39
X89.95Y-59.45
X89.95Y-61.99
X89.95Y-64.53
X89.95Y-69.61
X89.95Y-87.39
X91.22Y-92.84
X91.22Y-95.38
X91.22Y-97.92
X91.22Y-100.46
X91.22Y-103.0
X92.49Y-59.45
X92.49Y-61.99
X92.49Y-64.53
X92.49Y-69.61
X92.49Y-87.39
X93.76Y-92.84
X93.76Y-95.38
X93.76Y-97.92
X93.76Y-100.46
X93.76Y-103.0
X95.03Y-59.45
X95.03Y-61.99
X95.03Y-64.53
X95.03Y-69.61
X95.03Y-87.39
X97.57Y-59.45
X97.57Y-61.99
X97.57Y-64.53
X97.57Y-69.61
X97.57Y-87.39
X100.11Y-69.61
X100.11Y-87.39
X102.65Y-64.53
X102.65Y-69.61
X102.65Y-87.39
X105.19Y-64.53
X105.19Y-69.61
X105.19Y-87.39
X107.73Y-69.61
X107.73Y-87.39
X110.27Y-64.53
X110.27Y-69.61
X110.27Y-87.39
X112.81Y-64.53
X112.81Y-69.61
X112.81Y-87.39
X115.35Y-64.53
X115.35Y-69.61
X115.35Y-87.39
X117.89Y-53.04
X117.89Y-58.12
X117.89Y-60.66
X117.89Y-64.53
X117.89Y-69.61
X117.89Y-87.39
X117.89Y-96.34
X117.89Y-98.88
X117.89Y-103.96
X120.43Y-53.04
X120.43Y-58.12
X120.43Y-60.66
X120.43Y-64.53
X120.43Y-69.61
X120.43Y-87.39
X120.43Y-96.34
X120.43Y-98.88
X120.43Y-103.96
X122.97Y-53.04
X122.97Y-64.53
X122.97Y-69.61
X122.97Y-87.39
X122.97Y-103.96
X125.51Y-53.04
X125.51Y-64.53
X125.51Y-69.61
X125.51Y-87.39
X125.51Y-103.96
X128.05Y-53.04
X128.05Y-64.53
X128.05Y-69.61
X128.05Y-87.39
X128.05Y-103.96
X130.59Y-53.04
X130.59Y-64.53
X130.59Y-69.61
X130.59Y-87.39
X130.59Y-103.96
X133.13Y-64.53
X133.13Y-69.61
X133.13Y-87.39
T6
X53.5Y-54.0
X53.5Y-103.0
X111.5Y-54.0
X111.5Y-103.0
M30
