%TF.GenerationSoftware,KiCad,Pcbnew,9.0.7-9.0.7~ubuntu24.04.1*%
%TF.CreationDate,2026-01-31T19:08:08-06:00*%
%TF.ProjectId,PCB,5043422e-6b69-4636-9164-5f7063625858,rev?*%
%TF.SameCoordinates,Original*%
%TF.FileFunction,Soldermask,Bot*%
%TF.FilePolarity,Negative*%
%FSLAX46Y46*%
G04 Gerber Fmt 4.6, Leading zero omitted, Abs format (unit mm)*
G04 Created by KiCad (PCBNEW 9.0.7-9.0.7~ubuntu24.04.1) date 2026-01-31 19:08:08*
%MOMM*%
%LPD*%
G01*
G04 APERTURE LIST*
G04 APERTURE END LIST*
G36*
X53952267Y-100338148D02*
G01*
X54247456Y-100405523D01*
X54533245Y-100505525D01*
X54806041Y-100636897D01*
X55062412Y-100797986D01*
X55299136Y-100986766D01*
X55513234Y-101200864D01*
X55702014Y-101437588D01*
X55863103Y-101693959D01*
X55994475Y-101966755D01*
X56094477Y-102252544D01*
X56161852Y-102547733D01*
X56195752Y-102848610D01*
X56195752Y-103151390D01*
X56161852Y-103452267D01*
X56094477Y-103747456D01*
X55994475Y-104033245D01*
X55863103Y-104306041D01*
X55702014Y-104562412D01*
X55513234Y-104799136D01*
X55299136Y-105013234D01*
X55062412Y-105202014D01*
X54806041Y-105363103D01*
X54533245Y-105494475D01*
X54247456Y-105594477D01*
X53952267Y-105661852D01*
X53651390Y-105695752D01*
X53348610Y-105695752D01*
X53047733Y-105661852D01*
X52752544Y-105594477D01*
X52466755Y-105494475D01*
X52193959Y-105363103D01*
X51937588Y-105202014D01*
X51700864Y-105013234D01*
X51486766Y-104799136D01*
X51297986Y-104562412D01*
X51136897Y-104306041D01*
X51005525Y-104033245D01*
X50905523Y-103747456D01*
X50838148Y-103452267D01*
X50804248Y-103151390D01*
X50804248Y-102848610D01*
X50838148Y-102547733D01*
X50905523Y-102252544D01*
X51005525Y-101966755D01*
X51136897Y-101693959D01*
X51297986Y-101437588D01*
X51486766Y-101200864D01*
X51700864Y-100986766D01*
X51937588Y-100797986D01*
X52193959Y-100636897D01*
X52466755Y-100505525D01*
X52752544Y-100405523D01*
X53047733Y-100338148D01*
X53348610Y-100304248D01*
X53651390Y-100304248D01*
X53952267Y-100338148D01*
G37*
G36*
X111952267Y-100338148D02*
G01*
X112247456Y-100405523D01*
X112533245Y-100505525D01*
X112806041Y-100636897D01*
X113062412Y-100797986D01*
X113299136Y-100986766D01*
X113513234Y-101200864D01*
X113702014Y-101437588D01*
X113863103Y-101693959D01*
X113994475Y-101966755D01*
X114094477Y-102252544D01*
X114161852Y-102547733D01*
X114195752Y-102848610D01*
X114195752Y-103151390D01*
X114161852Y-103452267D01*
X114094477Y-103747456D01*
X113994475Y-104033245D01*
X113863103Y-104306041D01*
X113702014Y-104562412D01*
X113513234Y-104799136D01*
X113299136Y-105013234D01*
X113062412Y-105202014D01*
X112806041Y-105363103D01*
X112533245Y-105494475D01*
X112247456Y-105594477D01*
X111952267Y-105661852D01*
X111651390Y-105695752D01*
X111348610Y-105695752D01*
X111047733Y-105661852D01*
X110752544Y-105594477D01*
X110466755Y-105494475D01*
X110193959Y-105363103D01*
X109937588Y-105202014D01*
X109700864Y-105013234D01*
X109486766Y-104799136D01*
X109297986Y-104562412D01*
X109136897Y-104306041D01*
X109005525Y-104033245D01*
X108905523Y-103747456D01*
X108838148Y-103452267D01*
X108804248Y-103151390D01*
X108804248Y-102848610D01*
X108838148Y-102547733D01*
X108905523Y-102252544D01*
X109005525Y-101966755D01*
X109136897Y-101693959D01*
X109297986Y-101437588D01*
X109486766Y-101200864D01*
X109700864Y-100986766D01*
X109937588Y-100797986D01*
X110193959Y-100636897D01*
X110466755Y-100505525D01*
X110752544Y-100405523D01*
X111047733Y-100338148D01*
X111348610Y-100304248D01*
X111651390Y-100304248D01*
X111952267Y-100338148D01*
G37*
G36*
X118740000Y-104810000D02*
G01*
X117040000Y-104810000D01*
X117040000Y-103110000D01*
X118740000Y-103110000D01*
X118740000Y-104810000D01*
G37*
G36*
X120676742Y-103146601D02*
G01*
X120830687Y-103210367D01*
X120969234Y-103302941D01*
X121087059Y-103420766D01*
X121179633Y-103559313D01*
X121243399Y-103713258D01*
X121275907Y-103876685D01*
X121275907Y-104043315D01*
X121243399Y-104206742D01*
X121179633Y-104360687D01*
X121087059Y-104499234D01*
X120969234Y-104617059D01*
X120830687Y-104709633D01*
X120676742Y-104773399D01*
X120513315Y-104805907D01*
X120346685Y-104805907D01*
X120183258Y-104773399D01*
X120029313Y-104709633D01*
X119890766Y-104617059D01*
X119772941Y-104499234D01*
X119680367Y-104360687D01*
X119616601Y-104206742D01*
X119584093Y-104043315D01*
X119584093Y-103876685D01*
X119616601Y-103713258D01*
X119680367Y-103559313D01*
X119772941Y-103420766D01*
X119890766Y-103302941D01*
X120029313Y-103210367D01*
X120183258Y-103146601D01*
X120346685Y-103114093D01*
X120513315Y-103114093D01*
X120676742Y-103146601D01*
G37*
G36*
X123216742Y-103146601D02*
G01*
X123370687Y-103210367D01*
X123509234Y-103302941D01*
X123627059Y-103420766D01*
X123719633Y-103559313D01*
X123783399Y-103713258D01*
X123815907Y-103876685D01*
X123815907Y-104043315D01*
X123783399Y-104206742D01*
X123719633Y-104360687D01*
X123627059Y-104499234D01*
X123509234Y-104617059D01*
X123370687Y-104709633D01*
X123216742Y-104773399D01*
X123053315Y-104805907D01*
X122886685Y-104805907D01*
X122723258Y-104773399D01*
X122569313Y-104709633D01*
X122430766Y-104617059D01*
X122312941Y-104499234D01*
X122220367Y-104360687D01*
X122156601Y-104206742D01*
X122124093Y-104043315D01*
X122124093Y-103876685D01*
X122156601Y-103713258D01*
X122220367Y-103559313D01*
X122312941Y-103420766D01*
X122430766Y-103302941D01*
X122569313Y-103210367D01*
X122723258Y-103146601D01*
X122886685Y-103114093D01*
X123053315Y-103114093D01*
X123216742Y-103146601D01*
G37*
G36*
X125756742Y-103146601D02*
G01*
X125910687Y-103210367D01*
X126049234Y-103302941D01*
X126167059Y-103420766D01*
X126259633Y-103559313D01*
X126323399Y-103713258D01*
X126355907Y-103876685D01*
X126355907Y-104043315D01*
X126323399Y-104206742D01*
X126259633Y-104360687D01*
X126167059Y-104499234D01*
X126049234Y-104617059D01*
X125910687Y-104709633D01*
X125756742Y-104773399D01*
X125593315Y-104805907D01*
X125426685Y-104805907D01*
X125263258Y-104773399D01*
X125109313Y-104709633D01*
X124970766Y-104617059D01*
X124852941Y-104499234D01*
X124760367Y-104360687D01*
X124696601Y-104206742D01*
X124664093Y-104043315D01*
X124664093Y-103876685D01*
X124696601Y-103713258D01*
X124760367Y-103559313D01*
X124852941Y-103420766D01*
X124970766Y-103302941D01*
X125109313Y-103210367D01*
X125263258Y-103146601D01*
X125426685Y-103114093D01*
X125593315Y-103114093D01*
X125756742Y-103146601D01*
G37*
G36*
X128296742Y-103146601D02*
G01*
X128450687Y-103210367D01*
X128589234Y-103302941D01*
X128707059Y-103420766D01*
X128799633Y-103559313D01*
X128863399Y-103713258D01*
X128895907Y-103876685D01*
X128895907Y-104043315D01*
X128863399Y-104206742D01*
X128799633Y-104360687D01*
X128707059Y-104499234D01*
X128589234Y-104617059D01*
X128450687Y-104709633D01*
X128296742Y-104773399D01*
X128133315Y-104805907D01*
X127966685Y-104805907D01*
X127803258Y-104773399D01*
X127649313Y-104709633D01*
X127510766Y-104617059D01*
X127392941Y-104499234D01*
X127300367Y-104360687D01*
X127236601Y-104206742D01*
X127204093Y-104043315D01*
X127204093Y-103876685D01*
X127236601Y-103713258D01*
X127300367Y-103559313D01*
X127392941Y-103420766D01*
X127510766Y-103302941D01*
X127649313Y-103210367D01*
X127803258Y-103146601D01*
X127966685Y-103114093D01*
X128133315Y-103114093D01*
X128296742Y-103146601D01*
G37*
G36*
X130836742Y-103146601D02*
G01*
X130990687Y-103210367D01*
X131129234Y-103302941D01*
X131247059Y-103420766D01*
X131339633Y-103559313D01*
X131403399Y-103713258D01*
X131435907Y-103876685D01*
X131435907Y-104043315D01*
X131403399Y-104206742D01*
X131339633Y-104360687D01*
X131247059Y-104499234D01*
X131129234Y-104617059D01*
X130990687Y-104709633D01*
X130836742Y-104773399D01*
X130673315Y-104805907D01*
X130506685Y-104805907D01*
X130343258Y-104773399D01*
X130189313Y-104709633D01*
X130050766Y-104617059D01*
X129932941Y-104499234D01*
X129840367Y-104360687D01*
X129776601Y-104206742D01*
X129744093Y-104043315D01*
X129744093Y-103876685D01*
X129776601Y-103713258D01*
X129840367Y-103559313D01*
X129932941Y-103420766D01*
X130050766Y-103302941D01*
X130189313Y-103210367D01*
X130343258Y-103146601D01*
X130506685Y-103114093D01*
X130673315Y-103114093D01*
X130836742Y-103146601D01*
G37*
G36*
X94610000Y-103850000D02*
G01*
X92910000Y-103850000D01*
X92910000Y-102150000D01*
X94610000Y-102150000D01*
X94610000Y-103850000D01*
G37*
G36*
X91466742Y-102186601D02*
G01*
X91620687Y-102250367D01*
X91759234Y-102342941D01*
X91877059Y-102460766D01*
X91969633Y-102599313D01*
X92033399Y-102753258D01*
X92065907Y-102916685D01*
X92065907Y-103083315D01*
X92033399Y-103246742D01*
X91969633Y-103400687D01*
X91877059Y-103539234D01*
X91759234Y-103657059D01*
X91620687Y-103749633D01*
X91466742Y-103813399D01*
X91303315Y-103845907D01*
X91136685Y-103845907D01*
X90973258Y-103813399D01*
X90819313Y-103749633D01*
X90680766Y-103657059D01*
X90562941Y-103539234D01*
X90470367Y-103400687D01*
X90406601Y-103246742D01*
X90374093Y-103083315D01*
X90374093Y-102916685D01*
X90406601Y-102753258D01*
X90470367Y-102599313D01*
X90562941Y-102460766D01*
X90680766Y-102342941D01*
X90819313Y-102250367D01*
X90973258Y-102186601D01*
X91136685Y-102154093D01*
X91303315Y-102154093D01*
X91466742Y-102186601D01*
G37*
G36*
X91466742Y-99646601D02*
G01*
X91620687Y-99710367D01*
X91759234Y-99802941D01*
X91877059Y-99920766D01*
X91969633Y-100059313D01*
X92033399Y-100213258D01*
X92065907Y-100376685D01*
X92065907Y-100543315D01*
X92033399Y-100706742D01*
X91969633Y-100860687D01*
X91877059Y-100999234D01*
X91759234Y-101117059D01*
X91620687Y-101209633D01*
X91466742Y-101273399D01*
X91303315Y-101305907D01*
X91136685Y-101305907D01*
X90973258Y-101273399D01*
X90819313Y-101209633D01*
X90680766Y-101117059D01*
X90562941Y-100999234D01*
X90470367Y-100860687D01*
X90406601Y-100706742D01*
X90374093Y-100543315D01*
X90374093Y-100376685D01*
X90406601Y-100213258D01*
X90470367Y-100059313D01*
X90562941Y-99920766D01*
X90680766Y-99802941D01*
X90819313Y-99710367D01*
X90973258Y-99646601D01*
X91136685Y-99614093D01*
X91303315Y-99614093D01*
X91466742Y-99646601D01*
G37*
G36*
X94006742Y-99646601D02*
G01*
X94160687Y-99710367D01*
X94299234Y-99802941D01*
X94417059Y-99920766D01*
X94509633Y-100059313D01*
X94573399Y-100213258D01*
X94605907Y-100376685D01*
X94605907Y-100543315D01*
X94573399Y-100706742D01*
X94509633Y-100860687D01*
X94417059Y-100999234D01*
X94299234Y-101117059D01*
X94160687Y-101209633D01*
X94006742Y-101273399D01*
X93843315Y-101305907D01*
X93676685Y-101305907D01*
X93513258Y-101273399D01*
X93359313Y-101209633D01*
X93220766Y-101117059D01*
X93102941Y-100999234D01*
X93010367Y-100860687D01*
X92946601Y-100706742D01*
X92914093Y-100543315D01*
X92914093Y-100376685D01*
X92946601Y-100213258D01*
X93010367Y-100059313D01*
X93102941Y-99920766D01*
X93220766Y-99802941D01*
X93359313Y-99710367D01*
X93513258Y-99646601D01*
X93676685Y-99614093D01*
X93843315Y-99614093D01*
X94006742Y-99646601D01*
G37*
G36*
X118740000Y-99730000D02*
G01*
X117040000Y-99730000D01*
X117040000Y-98030000D01*
X118740000Y-98030000D01*
X118740000Y-99730000D01*
G37*
G36*
X120676742Y-98066601D02*
G01*
X120830687Y-98130367D01*
X120969234Y-98222941D01*
X121087059Y-98340766D01*
X121179633Y-98479313D01*
X121243399Y-98633258D01*
X121275907Y-98796685D01*
X121275907Y-98963315D01*
X121243399Y-99126742D01*
X121179633Y-99280687D01*
X121087059Y-99419234D01*
X120969234Y-99537059D01*
X120830687Y-99629633D01*
X120676742Y-99693399D01*
X120513315Y-99725907D01*
X120346685Y-99725907D01*
X120183258Y-99693399D01*
X120029313Y-99629633D01*
X119890766Y-99537059D01*
X119772941Y-99419234D01*
X119680367Y-99280687D01*
X119616601Y-99126742D01*
X119584093Y-98963315D01*
X119584093Y-98796685D01*
X119616601Y-98633258D01*
X119680367Y-98479313D01*
X119772941Y-98340766D01*
X119890766Y-98222941D01*
X120029313Y-98130367D01*
X120183258Y-98066601D01*
X120346685Y-98034093D01*
X120513315Y-98034093D01*
X120676742Y-98066601D01*
G37*
G36*
X91466742Y-97106601D02*
G01*
X91620687Y-97170367D01*
X91759234Y-97262941D01*
X91877059Y-97380766D01*
X91969633Y-97519313D01*
X92033399Y-97673258D01*
X92065907Y-97836685D01*
X92065907Y-98003315D01*
X92033399Y-98166742D01*
X91969633Y-98320687D01*
X91877059Y-98459234D01*
X91759234Y-98577059D01*
X91620687Y-98669633D01*
X91466742Y-98733399D01*
X91303315Y-98765907D01*
X91136685Y-98765907D01*
X90973258Y-98733399D01*
X90819313Y-98669633D01*
X90680766Y-98577059D01*
X90562941Y-98459234D01*
X90470367Y-98320687D01*
X90406601Y-98166742D01*
X90374093Y-98003315D01*
X90374093Y-97836685D01*
X90406601Y-97673258D01*
X90470367Y-97519313D01*
X90562941Y-97380766D01*
X90680766Y-97262941D01*
X90819313Y-97170367D01*
X90973258Y-97106601D01*
X91136685Y-97074093D01*
X91303315Y-97074093D01*
X91466742Y-97106601D01*
G37*
G36*
X94006742Y-97106601D02*
G01*
X94160687Y-97170367D01*
X94299234Y-97262941D01*
X94417059Y-97380766D01*
X94509633Y-97519313D01*
X94573399Y-97673258D01*
X94605907Y-97836685D01*
X94605907Y-98003315D01*
X94573399Y-98166742D01*
X94509633Y-98320687D01*
X94417059Y-98459234D01*
X94299234Y-98577059D01*
X94160687Y-98669633D01*
X94006742Y-98733399D01*
X93843315Y-98765907D01*
X93676685Y-98765907D01*
X93513258Y-98733399D01*
X93359313Y-98669633D01*
X93220766Y-98577059D01*
X93102941Y-98459234D01*
X93010367Y-98320687D01*
X92946601Y-98166742D01*
X92914093Y-98003315D01*
X92914093Y-97836685D01*
X92946601Y-97673258D01*
X93010367Y-97519313D01*
X93102941Y-97380766D01*
X93220766Y-97262941D01*
X93359313Y-97170367D01*
X93513258Y-97106601D01*
X93676685Y-97074093D01*
X93843315Y-97074093D01*
X94006742Y-97106601D01*
G37*
G36*
X126410000Y-97240000D02*
G01*
X124610000Y-97240000D01*
X124610000Y-95440000D01*
X126410000Y-95440000D01*
X126410000Y-97240000D01*
G37*
G36*
X127930256Y-95478754D02*
G01*
X128093257Y-95546271D01*
X128239954Y-95644291D01*
X128364709Y-95769046D01*
X128462729Y-95915743D01*
X128530246Y-96078744D01*
X128564666Y-96251785D01*
X128564666Y-96428215D01*
X128530246Y-96601256D01*
X128462729Y-96764257D01*
X128364709Y-96910954D01*
X128239954Y-97035709D01*
X128093257Y-97133729D01*
X127930256Y-97201246D01*
X127757215Y-97235666D01*
X127580785Y-97235666D01*
X127407744Y-97201246D01*
X127244743Y-97133729D01*
X127098046Y-97035709D01*
X126973291Y-96910954D01*
X126875271Y-96764257D01*
X126807754Y-96601256D01*
X126773334Y-96428215D01*
X126773334Y-96251785D01*
X126807754Y-96078744D01*
X126875271Y-95915743D01*
X126973291Y-95769046D01*
X127098046Y-95644291D01*
X127244743Y-95546271D01*
X127407744Y-95478754D01*
X127580785Y-95444334D01*
X127757215Y-95444334D01*
X127930256Y-95478754D01*
G37*
G36*
X130089256Y-95478754D02*
G01*
X130252257Y-95546271D01*
X130398954Y-95644291D01*
X130523709Y-95769046D01*
X130621729Y-95915743D01*
X130689246Y-96078744D01*
X130723666Y-96251785D01*
X130723666Y-96428215D01*
X130689246Y-96601256D01*
X130621729Y-96764257D01*
X130523709Y-96910954D01*
X130398954Y-97035709D01*
X130252257Y-97133729D01*
X130089256Y-97201246D01*
X129916215Y-97235666D01*
X129739785Y-97235666D01*
X129566744Y-97201246D01*
X129403743Y-97133729D01*
X129257046Y-97035709D01*
X129132291Y-96910954D01*
X129034271Y-96764257D01*
X128966754Y-96601256D01*
X128932334Y-96428215D01*
X128932334Y-96251785D01*
X128966754Y-96078744D01*
X129034271Y-95915743D01*
X129132291Y-95769046D01*
X129257046Y-95644291D01*
X129403743Y-95546271D01*
X129566744Y-95478754D01*
X129739785Y-95444334D01*
X129916215Y-95444334D01*
X130089256Y-95478754D01*
G37*
G36*
X132248256Y-95478754D02*
G01*
X132411257Y-95546271D01*
X132557954Y-95644291D01*
X132682709Y-95769046D01*
X132780729Y-95915743D01*
X132848246Y-96078744D01*
X132882666Y-96251785D01*
X132882666Y-96428215D01*
X132848246Y-96601256D01*
X132780729Y-96764257D01*
X132682709Y-96910954D01*
X132557954Y-97035709D01*
X132411257Y-97133729D01*
X132248256Y-97201246D01*
X132075215Y-97235666D01*
X131898785Y-97235666D01*
X131725744Y-97201246D01*
X131562743Y-97133729D01*
X131416046Y-97035709D01*
X131291291Y-96910954D01*
X131193271Y-96764257D01*
X131125754Y-96601256D01*
X131091334Y-96428215D01*
X131091334Y-96251785D01*
X131125754Y-96078744D01*
X131193271Y-95915743D01*
X131291291Y-95769046D01*
X131416046Y-95644291D01*
X131562743Y-95546271D01*
X131725744Y-95478754D01*
X131898785Y-95444334D01*
X132075215Y-95444334D01*
X132248256Y-95478754D01*
G37*
G36*
X118136742Y-95526601D02*
G01*
X118290687Y-95590367D01*
X118429234Y-95682941D01*
X118547059Y-95800766D01*
X118639633Y-95939313D01*
X118703399Y-96093258D01*
X118735907Y-96256685D01*
X118735907Y-96423315D01*
X118703399Y-96586742D01*
X118639633Y-96740687D01*
X118547059Y-96879234D01*
X118429234Y-96997059D01*
X118290687Y-97089633D01*
X118136742Y-97153399D01*
X117973315Y-97185907D01*
X117806685Y-97185907D01*
X117643258Y-97153399D01*
X117489313Y-97089633D01*
X117350766Y-96997059D01*
X117232941Y-96879234D01*
X117140367Y-96740687D01*
X117076601Y-96586742D01*
X117044093Y-96423315D01*
X117044093Y-96256685D01*
X117076601Y-96093258D01*
X117140367Y-95939313D01*
X117232941Y-95800766D01*
X117350766Y-95682941D01*
X117489313Y-95590367D01*
X117643258Y-95526601D01*
X117806685Y-95494093D01*
X117973315Y-95494093D01*
X118136742Y-95526601D01*
G37*
G36*
X120676742Y-95526601D02*
G01*
X120830687Y-95590367D01*
X120969234Y-95682941D01*
X121087059Y-95800766D01*
X121179633Y-95939313D01*
X121243399Y-96093258D01*
X121275907Y-96256685D01*
X121275907Y-96423315D01*
X121243399Y-96586742D01*
X121179633Y-96740687D01*
X121087059Y-96879234D01*
X120969234Y-96997059D01*
X120830687Y-97089633D01*
X120676742Y-97153399D01*
X120513315Y-97185907D01*
X120346685Y-97185907D01*
X120183258Y-97153399D01*
X120029313Y-97089633D01*
X119890766Y-96997059D01*
X119772941Y-96879234D01*
X119680367Y-96740687D01*
X119616601Y-96586742D01*
X119584093Y-96423315D01*
X119584093Y-96256685D01*
X119616601Y-96093258D01*
X119680367Y-95939313D01*
X119772941Y-95800766D01*
X119890766Y-95682941D01*
X120029313Y-95590367D01*
X120183258Y-95526601D01*
X120346685Y-95494093D01*
X120513315Y-95494093D01*
X120676742Y-95526601D01*
G37*
G36*
X91466742Y-94566601D02*
G01*
X91620687Y-94630367D01*
X91759234Y-94722941D01*
X91877059Y-94840766D01*
X91969633Y-94979313D01*
X92033399Y-95133258D01*
X92065907Y-95296685D01*
X92065907Y-95463315D01*
X92033399Y-95626742D01*
X91969633Y-95780687D01*
X91877059Y-95919234D01*
X91759234Y-96037059D01*
X91620687Y-96129633D01*
X91466742Y-96193399D01*
X91303315Y-96225907D01*
X91136685Y-96225907D01*
X90973258Y-96193399D01*
X90819313Y-96129633D01*
X90680766Y-96037059D01*
X90562941Y-95919234D01*
X90470367Y-95780687D01*
X90406601Y-95626742D01*
X90374093Y-95463315D01*
X90374093Y-95296685D01*
X90406601Y-95133258D01*
X90470367Y-94979313D01*
X90562941Y-94840766D01*
X90680766Y-94722941D01*
X90819313Y-94630367D01*
X90973258Y-94566601D01*
X91136685Y-94534093D01*
X91303315Y-94534093D01*
X91466742Y-94566601D01*
G37*
G36*
X94006742Y-94566601D02*
G01*
X94160687Y-94630367D01*
X94299234Y-94722941D01*
X94417059Y-94840766D01*
X94509633Y-94979313D01*
X94573399Y-95133258D01*
X94605907Y-95296685D01*
X94605907Y-95463315D01*
X94573399Y-95626742D01*
X94509633Y-95780687D01*
X94417059Y-95919234D01*
X94299234Y-96037059D01*
X94160687Y-96129633D01*
X94006742Y-96193399D01*
X93843315Y-96225907D01*
X93676685Y-96225907D01*
X93513258Y-96193399D01*
X93359313Y-96129633D01*
X93220766Y-96037059D01*
X93102941Y-95919234D01*
X93010367Y-95780687D01*
X92946601Y-95626742D01*
X92914093Y-95463315D01*
X92914093Y-95296685D01*
X92946601Y-95133258D01*
X93010367Y-94979313D01*
X93102941Y-94840766D01*
X93220766Y-94722941D01*
X93359313Y-94630367D01*
X93513258Y-94566601D01*
X93676685Y-94534093D01*
X93843315Y-94534093D01*
X94006742Y-94566601D01*
G37*
G36*
X91466742Y-92026601D02*
G01*
X91620687Y-92090367D01*
X91759234Y-92182941D01*
X91877059Y-92300766D01*
X91969633Y-92439313D01*
X92033399Y-92593258D01*
X92065907Y-92756685D01*
X92065907Y-92923315D01*
X92033399Y-93086742D01*
X91969633Y-93240687D01*
X91877059Y-93379234D01*
X91759234Y-93497059D01*
X91620687Y-93589633D01*
X91466742Y-93653399D01*
X91303315Y-93685907D01*
X91136685Y-93685907D01*
X90973258Y-93653399D01*
X90819313Y-93589633D01*
X90680766Y-93497059D01*
X90562941Y-93379234D01*
X90470367Y-93240687D01*
X90406601Y-93086742D01*
X90374093Y-92923315D01*
X90374093Y-92756685D01*
X90406601Y-92593258D01*
X90470367Y-92439313D01*
X90562941Y-92300766D01*
X90680766Y-92182941D01*
X90819313Y-92090367D01*
X90973258Y-92026601D01*
X91136685Y-91994093D01*
X91303315Y-91994093D01*
X91466742Y-92026601D01*
G37*
G36*
X94006742Y-92026601D02*
G01*
X94160687Y-92090367D01*
X94299234Y-92182941D01*
X94417059Y-92300766D01*
X94509633Y-92439313D01*
X94573399Y-92593258D01*
X94605907Y-92756685D01*
X94605907Y-92923315D01*
X94573399Y-93086742D01*
X94509633Y-93240687D01*
X94417059Y-93379234D01*
X94299234Y-93497059D01*
X94160687Y-93589633D01*
X94006742Y-93653399D01*
X93843315Y-93685907D01*
X93676685Y-93685907D01*
X93513258Y-93653399D01*
X93359313Y-93589633D01*
X93220766Y-93497059D01*
X93102941Y-93379234D01*
X93010367Y-93240687D01*
X92946601Y-93086742D01*
X92914093Y-92923315D01*
X92914093Y-92756685D01*
X92946601Y-92593258D01*
X93010367Y-92439313D01*
X93102941Y-92300766D01*
X93220766Y-92182941D01*
X93359313Y-92090367D01*
X93513258Y-92026601D01*
X93676685Y-91994093D01*
X93843315Y-91994093D01*
X94006742Y-92026601D01*
G37*
G36*
X90800000Y-88240000D02*
G01*
X89100000Y-88240000D01*
X89100000Y-86540000D01*
X90800000Y-86540000D01*
X90800000Y-88240000D01*
G37*
G36*
X103500000Y-88240000D02*
G01*
X101800000Y-88240000D01*
X101800000Y-86540000D01*
X103500000Y-86540000D01*
X103500000Y-88240000D01*
G37*
G36*
X116200000Y-88240000D02*
G01*
X114500000Y-88240000D01*
X114500000Y-86540000D01*
X116200000Y-86540000D01*
X116200000Y-88240000D01*
G37*
G36*
X128900000Y-88240000D02*
G01*
X127200000Y-88240000D01*
X127200000Y-86540000D01*
X128900000Y-86540000D01*
X128900000Y-88240000D01*
G37*
G36*
X85116742Y-86576601D02*
G01*
X85270687Y-86640367D01*
X85409234Y-86732941D01*
X85527059Y-86850766D01*
X85619633Y-86989313D01*
X85683399Y-87143258D01*
X85715907Y-87306685D01*
X85715907Y-87473315D01*
X85683399Y-87636742D01*
X85619633Y-87790687D01*
X85527059Y-87929234D01*
X85409234Y-88047059D01*
X85270687Y-88139633D01*
X85116742Y-88203399D01*
X84953315Y-88235907D01*
X84786685Y-88235907D01*
X84623258Y-88203399D01*
X84469313Y-88139633D01*
X84330766Y-88047059D01*
X84212941Y-87929234D01*
X84120367Y-87790687D01*
X84056601Y-87636742D01*
X84024093Y-87473315D01*
X84024093Y-87306685D01*
X84056601Y-87143258D01*
X84120367Y-86989313D01*
X84212941Y-86850766D01*
X84330766Y-86732941D01*
X84469313Y-86640367D01*
X84623258Y-86576601D01*
X84786685Y-86544093D01*
X84953315Y-86544093D01*
X85116742Y-86576601D01*
G37*
G36*
X87656742Y-86576601D02*
G01*
X87810687Y-86640367D01*
X87949234Y-86732941D01*
X88067059Y-86850766D01*
X88159633Y-86989313D01*
X88223399Y-87143258D01*
X88255907Y-87306685D01*
X88255907Y-87473315D01*
X88223399Y-87636742D01*
X88159633Y-87790687D01*
X88067059Y-87929234D01*
X87949234Y-88047059D01*
X87810687Y-88139633D01*
X87656742Y-88203399D01*
X87493315Y-88235907D01*
X87326685Y-88235907D01*
X87163258Y-88203399D01*
X87009313Y-88139633D01*
X86870766Y-88047059D01*
X86752941Y-87929234D01*
X86660367Y-87790687D01*
X86596601Y-87636742D01*
X86564093Y-87473315D01*
X86564093Y-87306685D01*
X86596601Y-87143258D01*
X86660367Y-86989313D01*
X86752941Y-86850766D01*
X86870766Y-86732941D01*
X87009313Y-86640367D01*
X87163258Y-86576601D01*
X87326685Y-86544093D01*
X87493315Y-86544093D01*
X87656742Y-86576601D01*
G37*
G36*
X92736742Y-86576601D02*
G01*
X92890687Y-86640367D01*
X93029234Y-86732941D01*
X93147059Y-86850766D01*
X93239633Y-86989313D01*
X93303399Y-87143258D01*
X93335907Y-87306685D01*
X93335907Y-87473315D01*
X93303399Y-87636742D01*
X93239633Y-87790687D01*
X93147059Y-87929234D01*
X93029234Y-88047059D01*
X92890687Y-88139633D01*
X92736742Y-88203399D01*
X92573315Y-88235907D01*
X92406685Y-88235907D01*
X92243258Y-88203399D01*
X92089313Y-88139633D01*
X91950766Y-88047059D01*
X91832941Y-87929234D01*
X91740367Y-87790687D01*
X91676601Y-87636742D01*
X91644093Y-87473315D01*
X91644093Y-87306685D01*
X91676601Y-87143258D01*
X91740367Y-86989313D01*
X91832941Y-86850766D01*
X91950766Y-86732941D01*
X92089313Y-86640367D01*
X92243258Y-86576601D01*
X92406685Y-86544093D01*
X92573315Y-86544093D01*
X92736742Y-86576601D01*
G37*
G36*
X95276742Y-86576601D02*
G01*
X95430687Y-86640367D01*
X95569234Y-86732941D01*
X95687059Y-86850766D01*
X95779633Y-86989313D01*
X95843399Y-87143258D01*
X95875907Y-87306685D01*
X95875907Y-87473315D01*
X95843399Y-87636742D01*
X95779633Y-87790687D01*
X95687059Y-87929234D01*
X95569234Y-88047059D01*
X95430687Y-88139633D01*
X95276742Y-88203399D01*
X95113315Y-88235907D01*
X94946685Y-88235907D01*
X94783258Y-88203399D01*
X94629313Y-88139633D01*
X94490766Y-88047059D01*
X94372941Y-87929234D01*
X94280367Y-87790687D01*
X94216601Y-87636742D01*
X94184093Y-87473315D01*
X94184093Y-87306685D01*
X94216601Y-87143258D01*
X94280367Y-86989313D01*
X94372941Y-86850766D01*
X94490766Y-86732941D01*
X94629313Y-86640367D01*
X94783258Y-86576601D01*
X94946685Y-86544093D01*
X95113315Y-86544093D01*
X95276742Y-86576601D01*
G37*
G36*
X97816742Y-86576601D02*
G01*
X97970687Y-86640367D01*
X98109234Y-86732941D01*
X98227059Y-86850766D01*
X98319633Y-86989313D01*
X98383399Y-87143258D01*
X98415907Y-87306685D01*
X98415907Y-87473315D01*
X98383399Y-87636742D01*
X98319633Y-87790687D01*
X98227059Y-87929234D01*
X98109234Y-88047059D01*
X97970687Y-88139633D01*
X97816742Y-88203399D01*
X97653315Y-88235907D01*
X97486685Y-88235907D01*
X97323258Y-88203399D01*
X97169313Y-88139633D01*
X97030766Y-88047059D01*
X96912941Y-87929234D01*
X96820367Y-87790687D01*
X96756601Y-87636742D01*
X96724093Y-87473315D01*
X96724093Y-87306685D01*
X96756601Y-87143258D01*
X96820367Y-86989313D01*
X96912941Y-86850766D01*
X97030766Y-86732941D01*
X97169313Y-86640367D01*
X97323258Y-86576601D01*
X97486685Y-86544093D01*
X97653315Y-86544093D01*
X97816742Y-86576601D01*
G37*
G36*
X100356742Y-86576601D02*
G01*
X100510687Y-86640367D01*
X100649234Y-86732941D01*
X100767059Y-86850766D01*
X100859633Y-86989313D01*
X100923399Y-87143258D01*
X100955907Y-87306685D01*
X100955907Y-87473315D01*
X100923399Y-87636742D01*
X100859633Y-87790687D01*
X100767059Y-87929234D01*
X100649234Y-88047059D01*
X100510687Y-88139633D01*
X100356742Y-88203399D01*
X100193315Y-88235907D01*
X100026685Y-88235907D01*
X99863258Y-88203399D01*
X99709313Y-88139633D01*
X99570766Y-88047059D01*
X99452941Y-87929234D01*
X99360367Y-87790687D01*
X99296601Y-87636742D01*
X99264093Y-87473315D01*
X99264093Y-87306685D01*
X99296601Y-87143258D01*
X99360367Y-86989313D01*
X99452941Y-86850766D01*
X99570766Y-86732941D01*
X99709313Y-86640367D01*
X99863258Y-86576601D01*
X100026685Y-86544093D01*
X100193315Y-86544093D01*
X100356742Y-86576601D01*
G37*
G36*
X105436742Y-86576601D02*
G01*
X105590687Y-86640367D01*
X105729234Y-86732941D01*
X105847059Y-86850766D01*
X105939633Y-86989313D01*
X106003399Y-87143258D01*
X106035907Y-87306685D01*
X106035907Y-87473315D01*
X106003399Y-87636742D01*
X105939633Y-87790687D01*
X105847059Y-87929234D01*
X105729234Y-88047059D01*
X105590687Y-88139633D01*
X105436742Y-88203399D01*
X105273315Y-88235907D01*
X105106685Y-88235907D01*
X104943258Y-88203399D01*
X104789313Y-88139633D01*
X104650766Y-88047059D01*
X104532941Y-87929234D01*
X104440367Y-87790687D01*
X104376601Y-87636742D01*
X104344093Y-87473315D01*
X104344093Y-87306685D01*
X104376601Y-87143258D01*
X104440367Y-86989313D01*
X104532941Y-86850766D01*
X104650766Y-86732941D01*
X104789313Y-86640367D01*
X104943258Y-86576601D01*
X105106685Y-86544093D01*
X105273315Y-86544093D01*
X105436742Y-86576601D01*
G37*
G36*
X107976742Y-86576601D02*
G01*
X108130687Y-86640367D01*
X108269234Y-86732941D01*
X108387059Y-86850766D01*
X108479633Y-86989313D01*
X108543399Y-87143258D01*
X108575907Y-87306685D01*
X108575907Y-87473315D01*
X108543399Y-87636742D01*
X108479633Y-87790687D01*
X108387059Y-87929234D01*
X108269234Y-88047059D01*
X108130687Y-88139633D01*
X107976742Y-88203399D01*
X107813315Y-88235907D01*
X107646685Y-88235907D01*
X107483258Y-88203399D01*
X107329313Y-88139633D01*
X107190766Y-88047059D01*
X107072941Y-87929234D01*
X106980367Y-87790687D01*
X106916601Y-87636742D01*
X106884093Y-87473315D01*
X106884093Y-87306685D01*
X106916601Y-87143258D01*
X106980367Y-86989313D01*
X107072941Y-86850766D01*
X107190766Y-86732941D01*
X107329313Y-86640367D01*
X107483258Y-86576601D01*
X107646685Y-86544093D01*
X107813315Y-86544093D01*
X107976742Y-86576601D01*
G37*
G36*
X110516742Y-86576601D02*
G01*
X110670687Y-86640367D01*
X110809234Y-86732941D01*
X110927059Y-86850766D01*
X111019633Y-86989313D01*
X111083399Y-87143258D01*
X111115907Y-87306685D01*
X111115907Y-87473315D01*
X111083399Y-87636742D01*
X111019633Y-87790687D01*
X110927059Y-87929234D01*
X110809234Y-88047059D01*
X110670687Y-88139633D01*
X110516742Y-88203399D01*
X110353315Y-88235907D01*
X110186685Y-88235907D01*
X110023258Y-88203399D01*
X109869313Y-88139633D01*
X109730766Y-88047059D01*
X109612941Y-87929234D01*
X109520367Y-87790687D01*
X109456601Y-87636742D01*
X109424093Y-87473315D01*
X109424093Y-87306685D01*
X109456601Y-87143258D01*
X109520367Y-86989313D01*
X109612941Y-86850766D01*
X109730766Y-86732941D01*
X109869313Y-86640367D01*
X110023258Y-86576601D01*
X110186685Y-86544093D01*
X110353315Y-86544093D01*
X110516742Y-86576601D01*
G37*
G36*
X113056742Y-86576601D02*
G01*
X113210687Y-86640367D01*
X113349234Y-86732941D01*
X113467059Y-86850766D01*
X113559633Y-86989313D01*
X113623399Y-87143258D01*
X113655907Y-87306685D01*
X113655907Y-87473315D01*
X113623399Y-87636742D01*
X113559633Y-87790687D01*
X113467059Y-87929234D01*
X113349234Y-88047059D01*
X113210687Y-88139633D01*
X113056742Y-88203399D01*
X112893315Y-88235907D01*
X112726685Y-88235907D01*
X112563258Y-88203399D01*
X112409313Y-88139633D01*
X112270766Y-88047059D01*
X112152941Y-87929234D01*
X112060367Y-87790687D01*
X111996601Y-87636742D01*
X111964093Y-87473315D01*
X111964093Y-87306685D01*
X111996601Y-87143258D01*
X112060367Y-86989313D01*
X112152941Y-86850766D01*
X112270766Y-86732941D01*
X112409313Y-86640367D01*
X112563258Y-86576601D01*
X112726685Y-86544093D01*
X112893315Y-86544093D01*
X113056742Y-86576601D01*
G37*
G36*
X118136742Y-86576601D02*
G01*
X118290687Y-86640367D01*
X118429234Y-86732941D01*
X118547059Y-86850766D01*
X118639633Y-86989313D01*
X118703399Y-87143258D01*
X118735907Y-87306685D01*
X118735907Y-87473315D01*
X118703399Y-87636742D01*
X118639633Y-87790687D01*
X118547059Y-87929234D01*
X118429234Y-88047059D01*
X118290687Y-88139633D01*
X118136742Y-88203399D01*
X117973315Y-88235907D01*
X117806685Y-88235907D01*
X117643258Y-88203399D01*
X117489313Y-88139633D01*
X117350766Y-88047059D01*
X117232941Y-87929234D01*
X117140367Y-87790687D01*
X117076601Y-87636742D01*
X117044093Y-87473315D01*
X117044093Y-87306685D01*
X117076601Y-87143258D01*
X117140367Y-86989313D01*
X117232941Y-86850766D01*
X117350766Y-86732941D01*
X117489313Y-86640367D01*
X117643258Y-86576601D01*
X117806685Y-86544093D01*
X117973315Y-86544093D01*
X118136742Y-86576601D01*
G37*
G36*
X120676742Y-86576601D02*
G01*
X120830687Y-86640367D01*
X120969234Y-86732941D01*
X121087059Y-86850766D01*
X121179633Y-86989313D01*
X121243399Y-87143258D01*
X121275907Y-87306685D01*
X121275907Y-87473315D01*
X121243399Y-87636742D01*
X121179633Y-87790687D01*
X121087059Y-87929234D01*
X120969234Y-88047059D01*
X120830687Y-88139633D01*
X120676742Y-88203399D01*
X120513315Y-88235907D01*
X120346685Y-88235907D01*
X120183258Y-88203399D01*
X120029313Y-88139633D01*
X119890766Y-88047059D01*
X119772941Y-87929234D01*
X119680367Y-87790687D01*
X119616601Y-87636742D01*
X119584093Y-87473315D01*
X119584093Y-87306685D01*
X119616601Y-87143258D01*
X119680367Y-86989313D01*
X119772941Y-86850766D01*
X119890766Y-86732941D01*
X120029313Y-86640367D01*
X120183258Y-86576601D01*
X120346685Y-86544093D01*
X120513315Y-86544093D01*
X120676742Y-86576601D01*
G37*
G36*
X123216742Y-86576601D02*
G01*
X123370687Y-86640367D01*
X123509234Y-86732941D01*
X123627059Y-86850766D01*
X123719633Y-86989313D01*
X123783399Y-87143258D01*
X123815907Y-87306685D01*
X123815907Y-87473315D01*
X123783399Y-87636742D01*
X123719633Y-87790687D01*
X123627059Y-87929234D01*
X123509234Y-88047059D01*
X123370687Y-88139633D01*
X123216742Y-88203399D01*
X123053315Y-88235907D01*
X122886685Y-88235907D01*
X122723258Y-88203399D01*
X122569313Y-88139633D01*
X122430766Y-88047059D01*
X122312941Y-87929234D01*
X122220367Y-87790687D01*
X122156601Y-87636742D01*
X122124093Y-87473315D01*
X122124093Y-87306685D01*
X122156601Y-87143258D01*
X122220367Y-86989313D01*
X122312941Y-86850766D01*
X122430766Y-86732941D01*
X122569313Y-86640367D01*
X122723258Y-86576601D01*
X122886685Y-86544093D01*
X123053315Y-86544093D01*
X123216742Y-86576601D01*
G37*
G36*
X125756742Y-86576601D02*
G01*
X125910687Y-86640367D01*
X126049234Y-86732941D01*
X126167059Y-86850766D01*
X126259633Y-86989313D01*
X126323399Y-87143258D01*
X126355907Y-87306685D01*
X126355907Y-87473315D01*
X126323399Y-87636742D01*
X126259633Y-87790687D01*
X126167059Y-87929234D01*
X126049234Y-88047059D01*
X125910687Y-88139633D01*
X125756742Y-88203399D01*
X125593315Y-88235907D01*
X125426685Y-88235907D01*
X125263258Y-88203399D01*
X125109313Y-88139633D01*
X124970766Y-88047059D01*
X124852941Y-87929234D01*
X124760367Y-87790687D01*
X124696601Y-87636742D01*
X124664093Y-87473315D01*
X124664093Y-87306685D01*
X124696601Y-87143258D01*
X124760367Y-86989313D01*
X124852941Y-86850766D01*
X124970766Y-86732941D01*
X125109313Y-86640367D01*
X125263258Y-86576601D01*
X125426685Y-86544093D01*
X125593315Y-86544093D01*
X125756742Y-86576601D01*
G37*
G36*
X130836742Y-86576601D02*
G01*
X130990687Y-86640367D01*
X131129234Y-86732941D01*
X131247059Y-86850766D01*
X131339633Y-86989313D01*
X131403399Y-87143258D01*
X131435907Y-87306685D01*
X131435907Y-87473315D01*
X131403399Y-87636742D01*
X131339633Y-87790687D01*
X131247059Y-87929234D01*
X131129234Y-88047059D01*
X130990687Y-88139633D01*
X130836742Y-88203399D01*
X130673315Y-88235907D01*
X130506685Y-88235907D01*
X130343258Y-88203399D01*
X130189313Y-88139633D01*
X130050766Y-88047059D01*
X129932941Y-87929234D01*
X129840367Y-87790687D01*
X129776601Y-87636742D01*
X129744093Y-87473315D01*
X129744093Y-87306685D01*
X129776601Y-87143258D01*
X129840367Y-86989313D01*
X129932941Y-86850766D01*
X130050766Y-86732941D01*
X130189313Y-86640367D01*
X130343258Y-86576601D01*
X130506685Y-86544093D01*
X130673315Y-86544093D01*
X130836742Y-86576601D01*
G37*
G36*
X133376742Y-86576601D02*
G01*
X133530687Y-86640367D01*
X133669234Y-86732941D01*
X133787059Y-86850766D01*
X133879633Y-86989313D01*
X133943399Y-87143258D01*
X133975907Y-87306685D01*
X133975907Y-87473315D01*
X133943399Y-87636742D01*
X133879633Y-87790687D01*
X133787059Y-87929234D01*
X133669234Y-88047059D01*
X133530687Y-88139633D01*
X133376742Y-88203399D01*
X133213315Y-88235907D01*
X133046685Y-88235907D01*
X132883258Y-88203399D01*
X132729313Y-88139633D01*
X132590766Y-88047059D01*
X132472941Y-87929234D01*
X132380367Y-87790687D01*
X132316601Y-87636742D01*
X132284093Y-87473315D01*
X132284093Y-87306685D01*
X132316601Y-87143258D01*
X132380367Y-86989313D01*
X132472941Y-86850766D01*
X132590766Y-86732941D01*
X132729313Y-86640367D01*
X132883258Y-86576601D01*
X133046685Y-86544093D01*
X133213315Y-86544093D01*
X133376742Y-86576601D01*
G37*
G36*
X118662228Y-79309448D02*
G01*
X118807117Y-79369463D01*
X118937515Y-79456592D01*
X119048408Y-79567485D01*
X119135537Y-79697883D01*
X119195552Y-79842772D01*
X119226148Y-79996586D01*
X119226148Y-80153414D01*
X119195552Y-80307228D01*
X119135537Y-80452117D01*
X119048408Y-80582515D01*
X118937515Y-80693408D01*
X118807117Y-80780537D01*
X118662228Y-80840552D01*
X118508414Y-80871148D01*
X118351586Y-80871148D01*
X118197772Y-80840552D01*
X118052883Y-80780537D01*
X117922485Y-80693408D01*
X117811592Y-80582515D01*
X117724463Y-80452117D01*
X117664448Y-80307228D01*
X117633852Y-80153414D01*
X117633852Y-79996586D01*
X117664448Y-79842772D01*
X117724463Y-79697883D01*
X117811592Y-79567485D01*
X117922485Y-79456592D01*
X118052883Y-79369463D01*
X118197772Y-79309448D01*
X118351586Y-79278852D01*
X118508414Y-79278852D01*
X118662228Y-79309448D01*
G37*
G36*
X126282228Y-79309448D02*
G01*
X126427117Y-79369463D01*
X126557515Y-79456592D01*
X126668408Y-79567485D01*
X126755537Y-79697883D01*
X126815552Y-79842772D01*
X126846148Y-79996586D01*
X126846148Y-80153414D01*
X126815552Y-80307228D01*
X126755537Y-80452117D01*
X126668408Y-80582515D01*
X126557515Y-80693408D01*
X126427117Y-80780537D01*
X126282228Y-80840552D01*
X126128414Y-80871148D01*
X125971586Y-80871148D01*
X125817772Y-80840552D01*
X125672883Y-80780537D01*
X125542485Y-80693408D01*
X125431592Y-80582515D01*
X125344463Y-80452117D01*
X125284448Y-80307228D01*
X125253852Y-80153414D01*
X125253852Y-79996586D01*
X125284448Y-79842772D01*
X125344463Y-79697883D01*
X125431592Y-79567485D01*
X125542485Y-79456592D01*
X125672883Y-79369463D01*
X125817772Y-79309448D01*
X125971586Y-79278852D01*
X126128414Y-79278852D01*
X126282228Y-79309448D01*
G37*
G36*
X118662228Y-76121948D02*
G01*
X118807117Y-76181963D01*
X118937515Y-76269092D01*
X119048408Y-76379985D01*
X119135537Y-76510383D01*
X119195552Y-76655272D01*
X119226148Y-76809086D01*
X119226148Y-76965914D01*
X119195552Y-77119728D01*
X119135537Y-77264617D01*
X119048408Y-77395015D01*
X118937515Y-77505908D01*
X118807117Y-77593037D01*
X118662228Y-77653052D01*
X118508414Y-77683648D01*
X118351586Y-77683648D01*
X118197772Y-77653052D01*
X118052883Y-77593037D01*
X117922485Y-77505908D01*
X117811592Y-77395015D01*
X117724463Y-77264617D01*
X117664448Y-77119728D01*
X117633852Y-76965914D01*
X117633852Y-76809086D01*
X117664448Y-76655272D01*
X117724463Y-76510383D01*
X117811592Y-76379985D01*
X117922485Y-76269092D01*
X118052883Y-76181963D01*
X118197772Y-76121948D01*
X118351586Y-76091352D01*
X118508414Y-76091352D01*
X118662228Y-76121948D01*
G37*
G36*
X126282228Y-76121948D02*
G01*
X126427117Y-76181963D01*
X126557515Y-76269092D01*
X126668408Y-76379985D01*
X126755537Y-76510383D01*
X126815552Y-76655272D01*
X126846148Y-76809086D01*
X126846148Y-76965914D01*
X126815552Y-77119728D01*
X126755537Y-77264617D01*
X126668408Y-77395015D01*
X126557515Y-77505908D01*
X126427117Y-77593037D01*
X126282228Y-77653052D01*
X126128414Y-77683648D01*
X125971586Y-77683648D01*
X125817772Y-77653052D01*
X125672883Y-77593037D01*
X125542485Y-77505908D01*
X125431592Y-77395015D01*
X125344463Y-77264617D01*
X125284448Y-77119728D01*
X125253852Y-76965914D01*
X125253852Y-76809086D01*
X125284448Y-76655272D01*
X125344463Y-76510383D01*
X125431592Y-76379985D01*
X125542485Y-76269092D01*
X125672883Y-76181963D01*
X125817772Y-76121948D01*
X125971586Y-76091352D01*
X126128414Y-76091352D01*
X126282228Y-76121948D01*
G37*
G36*
X118662228Y-72934448D02*
G01*
X118807117Y-72994463D01*
X118937515Y-73081592D01*
X119048408Y-73192485D01*
X119135537Y-73322883D01*
X119195552Y-73467772D01*
X119226148Y-73621586D01*
X119226148Y-73778414D01*
X119195552Y-73932228D01*
X119135537Y-74077117D01*
X119048408Y-74207515D01*
X118937515Y-74318408D01*
X118807117Y-74405537D01*
X118662228Y-74465552D01*
X118508414Y-74496148D01*
X118351586Y-74496148D01*
X118197772Y-74465552D01*
X118052883Y-74405537D01*
X117922485Y-74318408D01*
X117811592Y-74207515D01*
X117724463Y-74077117D01*
X117664448Y-73932228D01*
X117633852Y-73778414D01*
X117633852Y-73621586D01*
X117664448Y-73467772D01*
X117724463Y-73322883D01*
X117811592Y-73192485D01*
X117922485Y-73081592D01*
X118052883Y-72994463D01*
X118197772Y-72934448D01*
X118351586Y-72903852D01*
X118508414Y-72903852D01*
X118662228Y-72934448D01*
G37*
G36*
X126282228Y-72934448D02*
G01*
X126427117Y-72994463D01*
X126557515Y-73081592D01*
X126668408Y-73192485D01*
X126755537Y-73322883D01*
X126815552Y-73467772D01*
X126846148Y-73621586D01*
X126846148Y-73778414D01*
X126815552Y-73932228D01*
X126755537Y-74077117D01*
X126668408Y-74207515D01*
X126557515Y-74318408D01*
X126427117Y-74405537D01*
X126282228Y-74465552D01*
X126128414Y-74496148D01*
X125971586Y-74496148D01*
X125817772Y-74465552D01*
X125672883Y-74405537D01*
X125542485Y-74318408D01*
X125431592Y-74207515D01*
X125344463Y-74077117D01*
X125284448Y-73932228D01*
X125253852Y-73778414D01*
X125253852Y-73621586D01*
X125284448Y-73467772D01*
X125344463Y-73322883D01*
X125431592Y-73192485D01*
X125542485Y-73081592D01*
X125672883Y-72994463D01*
X125817772Y-72934448D01*
X125971586Y-72903852D01*
X126128414Y-72903852D01*
X126282228Y-72934448D01*
G37*
G36*
X90800000Y-70460000D02*
G01*
X89100000Y-70460000D01*
X89100000Y-68760000D01*
X90800000Y-68760000D01*
X90800000Y-70460000D01*
G37*
G36*
X103500000Y-70460000D02*
G01*
X101800000Y-70460000D01*
X101800000Y-68760000D01*
X103500000Y-68760000D01*
X103500000Y-70460000D01*
G37*
G36*
X116200000Y-70460000D02*
G01*
X114500000Y-70460000D01*
X114500000Y-68760000D01*
X116200000Y-68760000D01*
X116200000Y-70460000D01*
G37*
G36*
X128900000Y-70460000D02*
G01*
X127200000Y-70460000D01*
X127200000Y-68760000D01*
X128900000Y-68760000D01*
X128900000Y-70460000D01*
G37*
G36*
X85116742Y-68796601D02*
G01*
X85270687Y-68860367D01*
X85409234Y-68952941D01*
X85527059Y-69070766D01*
X85619633Y-69209313D01*
X85683399Y-69363258D01*
X85715907Y-69526685D01*
X85715907Y-69693315D01*
X85683399Y-69856742D01*
X85619633Y-70010687D01*
X85527059Y-70149234D01*
X85409234Y-70267059D01*
X85270687Y-70359633D01*
X85116742Y-70423399D01*
X84953315Y-70455907D01*
X84786685Y-70455907D01*
X84623258Y-70423399D01*
X84469313Y-70359633D01*
X84330766Y-70267059D01*
X84212941Y-70149234D01*
X84120367Y-70010687D01*
X84056601Y-69856742D01*
X84024093Y-69693315D01*
X84024093Y-69526685D01*
X84056601Y-69363258D01*
X84120367Y-69209313D01*
X84212941Y-69070766D01*
X84330766Y-68952941D01*
X84469313Y-68860367D01*
X84623258Y-68796601D01*
X84786685Y-68764093D01*
X84953315Y-68764093D01*
X85116742Y-68796601D01*
G37*
G36*
X87656742Y-68796601D02*
G01*
X87810687Y-68860367D01*
X87949234Y-68952941D01*
X88067059Y-69070766D01*
X88159633Y-69209313D01*
X88223399Y-69363258D01*
X88255907Y-69526685D01*
X88255907Y-69693315D01*
X88223399Y-69856742D01*
X88159633Y-70010687D01*
X88067059Y-70149234D01*
X87949234Y-70267059D01*
X87810687Y-70359633D01*
X87656742Y-70423399D01*
X87493315Y-70455907D01*
X87326685Y-70455907D01*
X87163258Y-70423399D01*
X87009313Y-70359633D01*
X86870766Y-70267059D01*
X86752941Y-70149234D01*
X86660367Y-70010687D01*
X86596601Y-69856742D01*
X86564093Y-69693315D01*
X86564093Y-69526685D01*
X86596601Y-69363258D01*
X86660367Y-69209313D01*
X86752941Y-69070766D01*
X86870766Y-68952941D01*
X87009313Y-68860367D01*
X87163258Y-68796601D01*
X87326685Y-68764093D01*
X87493315Y-68764093D01*
X87656742Y-68796601D01*
G37*
G36*
X92736742Y-68796601D02*
G01*
X92890687Y-68860367D01*
X93029234Y-68952941D01*
X93147059Y-69070766D01*
X93239633Y-69209313D01*
X93303399Y-69363258D01*
X93335907Y-69526685D01*
X93335907Y-69693315D01*
X93303399Y-69856742D01*
X93239633Y-70010687D01*
X93147059Y-70149234D01*
X93029234Y-70267059D01*
X92890687Y-70359633D01*
X92736742Y-70423399D01*
X92573315Y-70455907D01*
X92406685Y-70455907D01*
X92243258Y-70423399D01*
X92089313Y-70359633D01*
X91950766Y-70267059D01*
X91832941Y-70149234D01*
X91740367Y-70010687D01*
X91676601Y-69856742D01*
X91644093Y-69693315D01*
X91644093Y-69526685D01*
X91676601Y-69363258D01*
X91740367Y-69209313D01*
X91832941Y-69070766D01*
X91950766Y-68952941D01*
X92089313Y-68860367D01*
X92243258Y-68796601D01*
X92406685Y-68764093D01*
X92573315Y-68764093D01*
X92736742Y-68796601D01*
G37*
G36*
X95276742Y-68796601D02*
G01*
X95430687Y-68860367D01*
X95569234Y-68952941D01*
X95687059Y-69070766D01*
X95779633Y-69209313D01*
X95843399Y-69363258D01*
X95875907Y-69526685D01*
X95875907Y-69693315D01*
X95843399Y-69856742D01*
X95779633Y-70010687D01*
X95687059Y-70149234D01*
X95569234Y-70267059D01*
X95430687Y-70359633D01*
X95276742Y-70423399D01*
X95113315Y-70455907D01*
X94946685Y-70455907D01*
X94783258Y-70423399D01*
X94629313Y-70359633D01*
X94490766Y-70267059D01*
X94372941Y-70149234D01*
X94280367Y-70010687D01*
X94216601Y-69856742D01*
X94184093Y-69693315D01*
X94184093Y-69526685D01*
X94216601Y-69363258D01*
X94280367Y-69209313D01*
X94372941Y-69070766D01*
X94490766Y-68952941D01*
X94629313Y-68860367D01*
X94783258Y-68796601D01*
X94946685Y-68764093D01*
X95113315Y-68764093D01*
X95276742Y-68796601D01*
G37*
G36*
X97816742Y-68796601D02*
G01*
X97970687Y-68860367D01*
X98109234Y-68952941D01*
X98227059Y-69070766D01*
X98319633Y-69209313D01*
X98383399Y-69363258D01*
X98415907Y-69526685D01*
X98415907Y-69693315D01*
X98383399Y-69856742D01*
X98319633Y-70010687D01*
X98227059Y-70149234D01*
X98109234Y-70267059D01*
X97970687Y-70359633D01*
X97816742Y-70423399D01*
X97653315Y-70455907D01*
X97486685Y-70455907D01*
X97323258Y-70423399D01*
X97169313Y-70359633D01*
X97030766Y-70267059D01*
X96912941Y-70149234D01*
X96820367Y-70010687D01*
X96756601Y-69856742D01*
X96724093Y-69693315D01*
X96724093Y-69526685D01*
X96756601Y-69363258D01*
X96820367Y-69209313D01*
X96912941Y-69070766D01*
X97030766Y-68952941D01*
X97169313Y-68860367D01*
X97323258Y-68796601D01*
X97486685Y-68764093D01*
X97653315Y-68764093D01*
X97816742Y-68796601D01*
G37*
G36*
X100356742Y-68796601D02*
G01*
X100510687Y-68860367D01*
X100649234Y-68952941D01*
X100767059Y-69070766D01*
X100859633Y-69209313D01*
X100923399Y-69363258D01*
X100955907Y-69526685D01*
X100955907Y-69693315D01*
X100923399Y-69856742D01*
X100859633Y-70010687D01*
X100767059Y-70149234D01*
X100649234Y-70267059D01*
X100510687Y-70359633D01*
X100356742Y-70423399D01*
X100193315Y-70455907D01*
X100026685Y-70455907D01*
X99863258Y-70423399D01*
X99709313Y-70359633D01*
X99570766Y-70267059D01*
X99452941Y-70149234D01*
X99360367Y-70010687D01*
X99296601Y-69856742D01*
X99264093Y-69693315D01*
X99264093Y-69526685D01*
X99296601Y-69363258D01*
X99360367Y-69209313D01*
X99452941Y-69070766D01*
X99570766Y-68952941D01*
X99709313Y-68860367D01*
X99863258Y-68796601D01*
X100026685Y-68764093D01*
X100193315Y-68764093D01*
X100356742Y-68796601D01*
G37*
G36*
X105436742Y-68796601D02*
G01*
X105590687Y-68860367D01*
X105729234Y-68952941D01*
X105847059Y-69070766D01*
X105939633Y-69209313D01*
X106003399Y-69363258D01*
X106035907Y-69526685D01*
X106035907Y-69693315D01*
X106003399Y-69856742D01*
X105939633Y-70010687D01*
X105847059Y-70149234D01*
X105729234Y-70267059D01*
X105590687Y-70359633D01*
X105436742Y-70423399D01*
X105273315Y-70455907D01*
X105106685Y-70455907D01*
X104943258Y-70423399D01*
X104789313Y-70359633D01*
X104650766Y-70267059D01*
X104532941Y-70149234D01*
X104440367Y-70010687D01*
X104376601Y-69856742D01*
X104344093Y-69693315D01*
X104344093Y-69526685D01*
X104376601Y-69363258D01*
X104440367Y-69209313D01*
X104532941Y-69070766D01*
X104650766Y-68952941D01*
X104789313Y-68860367D01*
X104943258Y-68796601D01*
X105106685Y-68764093D01*
X105273315Y-68764093D01*
X105436742Y-68796601D01*
G37*
G36*
X107976742Y-68796601D02*
G01*
X108130687Y-68860367D01*
X108269234Y-68952941D01*
X108387059Y-69070766D01*
X108479633Y-69209313D01*
X108543399Y-69363258D01*
X108575907Y-69526685D01*
X108575907Y-69693315D01*
X108543399Y-69856742D01*
X108479633Y-70010687D01*
X108387059Y-70149234D01*
X108269234Y-70267059D01*
X108130687Y-70359633D01*
X107976742Y-70423399D01*
X107813315Y-70455907D01*
X107646685Y-70455907D01*
X107483258Y-70423399D01*
X107329313Y-70359633D01*
X107190766Y-70267059D01*
X107072941Y-70149234D01*
X106980367Y-70010687D01*
X106916601Y-69856742D01*
X106884093Y-69693315D01*
X106884093Y-69526685D01*
X106916601Y-69363258D01*
X106980367Y-69209313D01*
X107072941Y-69070766D01*
X107190766Y-68952941D01*
X107329313Y-68860367D01*
X107483258Y-68796601D01*
X107646685Y-68764093D01*
X107813315Y-68764093D01*
X107976742Y-68796601D01*
G37*
G36*
X110516742Y-68796601D02*
G01*
X110670687Y-68860367D01*
X110809234Y-68952941D01*
X110927059Y-69070766D01*
X111019633Y-69209313D01*
X111083399Y-69363258D01*
X111115907Y-69526685D01*
X111115907Y-69693315D01*
X111083399Y-69856742D01*
X111019633Y-70010687D01*
X110927059Y-70149234D01*
X110809234Y-70267059D01*
X110670687Y-70359633D01*
X110516742Y-70423399D01*
X110353315Y-70455907D01*
X110186685Y-70455907D01*
X110023258Y-70423399D01*
X109869313Y-70359633D01*
X109730766Y-70267059D01*
X109612941Y-70149234D01*
X109520367Y-70010687D01*
X109456601Y-69856742D01*
X109424093Y-69693315D01*
X109424093Y-69526685D01*
X109456601Y-69363258D01*
X109520367Y-69209313D01*
X109612941Y-69070766D01*
X109730766Y-68952941D01*
X109869313Y-68860367D01*
X110023258Y-68796601D01*
X110186685Y-68764093D01*
X110353315Y-68764093D01*
X110516742Y-68796601D01*
G37*
G36*
X113056742Y-68796601D02*
G01*
X113210687Y-68860367D01*
X113349234Y-68952941D01*
X113467059Y-69070766D01*
X113559633Y-69209313D01*
X113623399Y-69363258D01*
X113655907Y-69526685D01*
X113655907Y-69693315D01*
X113623399Y-69856742D01*
X113559633Y-70010687D01*
X113467059Y-70149234D01*
X113349234Y-70267059D01*
X113210687Y-70359633D01*
X113056742Y-70423399D01*
X112893315Y-70455907D01*
X112726685Y-70455907D01*
X112563258Y-70423399D01*
X112409313Y-70359633D01*
X112270766Y-70267059D01*
X112152941Y-70149234D01*
X112060367Y-70010687D01*
X111996601Y-69856742D01*
X111964093Y-69693315D01*
X111964093Y-69526685D01*
X111996601Y-69363258D01*
X112060367Y-69209313D01*
X112152941Y-69070766D01*
X112270766Y-68952941D01*
X112409313Y-68860367D01*
X112563258Y-68796601D01*
X112726685Y-68764093D01*
X112893315Y-68764093D01*
X113056742Y-68796601D01*
G37*
G36*
X118136742Y-68796601D02*
G01*
X118290687Y-68860367D01*
X118429234Y-68952941D01*
X118547059Y-69070766D01*
X118639633Y-69209313D01*
X118703399Y-69363258D01*
X118735907Y-69526685D01*
X118735907Y-69693315D01*
X118703399Y-69856742D01*
X118639633Y-70010687D01*
X118547059Y-70149234D01*
X118429234Y-70267059D01*
X118290687Y-70359633D01*
X118136742Y-70423399D01*
X117973315Y-70455907D01*
X117806685Y-70455907D01*
X117643258Y-70423399D01*
X117489313Y-70359633D01*
X117350766Y-70267059D01*
X117232941Y-70149234D01*
X117140367Y-70010687D01*
X117076601Y-69856742D01*
X117044093Y-69693315D01*
X117044093Y-69526685D01*
X117076601Y-69363258D01*
X117140367Y-69209313D01*
X117232941Y-69070766D01*
X117350766Y-68952941D01*
X117489313Y-68860367D01*
X117643258Y-68796601D01*
X117806685Y-68764093D01*
X117973315Y-68764093D01*
X118136742Y-68796601D01*
G37*
G36*
X120676742Y-68796601D02*
G01*
X120830687Y-68860367D01*
X120969234Y-68952941D01*
X121087059Y-69070766D01*
X121179633Y-69209313D01*
X121243399Y-69363258D01*
X121275907Y-69526685D01*
X121275907Y-69693315D01*
X121243399Y-69856742D01*
X121179633Y-70010687D01*
X121087059Y-70149234D01*
X120969234Y-70267059D01*
X120830687Y-70359633D01*
X120676742Y-70423399D01*
X120513315Y-70455907D01*
X120346685Y-70455907D01*
X120183258Y-70423399D01*
X120029313Y-70359633D01*
X119890766Y-70267059D01*
X119772941Y-70149234D01*
X119680367Y-70010687D01*
X119616601Y-69856742D01*
X119584093Y-69693315D01*
X119584093Y-69526685D01*
X119616601Y-69363258D01*
X119680367Y-69209313D01*
X119772941Y-69070766D01*
X119890766Y-68952941D01*
X120029313Y-68860367D01*
X120183258Y-68796601D01*
X120346685Y-68764093D01*
X120513315Y-68764093D01*
X120676742Y-68796601D01*
G37*
G36*
X123216742Y-68796601D02*
G01*
X123370687Y-68860367D01*
X123509234Y-68952941D01*
X123627059Y-69070766D01*
X123719633Y-69209313D01*
X123783399Y-69363258D01*
X123815907Y-69526685D01*
X123815907Y-69693315D01*
X123783399Y-69856742D01*
X123719633Y-70010687D01*
X123627059Y-70149234D01*
X123509234Y-70267059D01*
X123370687Y-70359633D01*
X123216742Y-70423399D01*
X123053315Y-70455907D01*
X122886685Y-70455907D01*
X122723258Y-70423399D01*
X122569313Y-70359633D01*
X122430766Y-70267059D01*
X122312941Y-70149234D01*
X122220367Y-70010687D01*
X122156601Y-69856742D01*
X122124093Y-69693315D01*
X122124093Y-69526685D01*
X122156601Y-69363258D01*
X122220367Y-69209313D01*
X122312941Y-69070766D01*
X122430766Y-68952941D01*
X122569313Y-68860367D01*
X122723258Y-68796601D01*
X122886685Y-68764093D01*
X123053315Y-68764093D01*
X123216742Y-68796601D01*
G37*
G36*
X125756742Y-68796601D02*
G01*
X125910687Y-68860367D01*
X126049234Y-68952941D01*
X126167059Y-69070766D01*
X126259633Y-69209313D01*
X126323399Y-69363258D01*
X126355907Y-69526685D01*
X126355907Y-69693315D01*
X126323399Y-69856742D01*
X126259633Y-70010687D01*
X126167059Y-70149234D01*
X126049234Y-70267059D01*
X125910687Y-70359633D01*
X125756742Y-70423399D01*
X125593315Y-70455907D01*
X125426685Y-70455907D01*
X125263258Y-70423399D01*
X125109313Y-70359633D01*
X124970766Y-70267059D01*
X124852941Y-70149234D01*
X124760367Y-70010687D01*
X124696601Y-69856742D01*
X124664093Y-69693315D01*
X124664093Y-69526685D01*
X124696601Y-69363258D01*
X124760367Y-69209313D01*
X124852941Y-69070766D01*
X124970766Y-68952941D01*
X125109313Y-68860367D01*
X125263258Y-68796601D01*
X125426685Y-68764093D01*
X125593315Y-68764093D01*
X125756742Y-68796601D01*
G37*
G36*
X130836742Y-68796601D02*
G01*
X130990687Y-68860367D01*
X131129234Y-68952941D01*
X131247059Y-69070766D01*
X131339633Y-69209313D01*
X131403399Y-69363258D01*
X131435907Y-69526685D01*
X131435907Y-69693315D01*
X131403399Y-69856742D01*
X131339633Y-70010687D01*
X131247059Y-70149234D01*
X131129234Y-70267059D01*
X130990687Y-70359633D01*
X130836742Y-70423399D01*
X130673315Y-70455907D01*
X130506685Y-70455907D01*
X130343258Y-70423399D01*
X130189313Y-70359633D01*
X130050766Y-70267059D01*
X129932941Y-70149234D01*
X129840367Y-70010687D01*
X129776601Y-69856742D01*
X129744093Y-69693315D01*
X129744093Y-69526685D01*
X129776601Y-69363258D01*
X129840367Y-69209313D01*
X129932941Y-69070766D01*
X130050766Y-68952941D01*
X130189313Y-68860367D01*
X130343258Y-68796601D01*
X130506685Y-68764093D01*
X130673315Y-68764093D01*
X130836742Y-68796601D01*
G37*
G36*
X133806537Y-68825224D02*
G01*
X133871421Y-68868579D01*
X133914776Y-68933463D01*
X133930000Y-69010000D01*
X133930000Y-70210000D01*
X133914776Y-70286537D01*
X133871421Y-70351421D01*
X133806537Y-70394776D01*
X133730000Y-70410000D01*
X132530000Y-70410000D01*
X132453463Y-70394776D01*
X132388579Y-70351421D01*
X132345224Y-70286537D01*
X132330000Y-70210000D01*
X132330000Y-69010000D01*
X132345224Y-68933463D01*
X132388579Y-68868579D01*
X132453463Y-68825224D01*
X132530000Y-68810000D01*
X133730000Y-68810000D01*
X133806537Y-68825224D01*
G37*
G36*
X85720000Y-65380000D02*
G01*
X84020000Y-65380000D01*
X84020000Y-63680000D01*
X85720000Y-63680000D01*
X85720000Y-65380000D01*
G37*
G36*
X88260000Y-65380000D02*
G01*
X86560000Y-65380000D01*
X86560000Y-63680000D01*
X88260000Y-63680000D01*
X88260000Y-65380000D01*
G37*
G36*
X90800000Y-65380000D02*
G01*
X89100000Y-65380000D01*
X89100000Y-63680000D01*
X90800000Y-63680000D01*
X90800000Y-65380000D01*
G37*
G36*
X93340000Y-65380000D02*
G01*
X91640000Y-65380000D01*
X91640000Y-63680000D01*
X93340000Y-63680000D01*
X93340000Y-65380000D01*
G37*
G36*
X95880000Y-65380000D02*
G01*
X94180000Y-65380000D01*
X94180000Y-63680000D01*
X95880000Y-63680000D01*
X95880000Y-65380000D01*
G37*
G36*
X98420000Y-65380000D02*
G01*
X96720000Y-65380000D01*
X96720000Y-63680000D01*
X98420000Y-63680000D01*
X98420000Y-65380000D01*
G37*
G36*
X103500000Y-65380000D02*
G01*
X101800000Y-65380000D01*
X101800000Y-63680000D01*
X103500000Y-63680000D01*
X103500000Y-65380000D01*
G37*
G36*
X133980000Y-65380000D02*
G01*
X132280000Y-65380000D01*
X132280000Y-63680000D01*
X133980000Y-63680000D01*
X133980000Y-65380000D01*
G37*
G36*
X105436742Y-63716601D02*
G01*
X105590687Y-63780367D01*
X105729234Y-63872941D01*
X105847059Y-63990766D01*
X105939633Y-64129313D01*
X106003399Y-64283258D01*
X106035907Y-64446685D01*
X106035907Y-64613315D01*
X106003399Y-64776742D01*
X105939633Y-64930687D01*
X105847059Y-65069234D01*
X105729234Y-65187059D01*
X105590687Y-65279633D01*
X105436742Y-65343399D01*
X105273315Y-65375907D01*
X105106685Y-65375907D01*
X104943258Y-65343399D01*
X104789313Y-65279633D01*
X104650766Y-65187059D01*
X104532941Y-65069234D01*
X104440367Y-64930687D01*
X104376601Y-64776742D01*
X104344093Y-64613315D01*
X104344093Y-64446685D01*
X104376601Y-64283258D01*
X104440367Y-64129313D01*
X104532941Y-63990766D01*
X104650766Y-63872941D01*
X104789313Y-63780367D01*
X104943258Y-63716601D01*
X105106685Y-63684093D01*
X105273315Y-63684093D01*
X105436742Y-63716601D01*
G37*
G36*
X110516742Y-63716601D02*
G01*
X110670687Y-63780367D01*
X110809234Y-63872941D01*
X110927059Y-63990766D01*
X111019633Y-64129313D01*
X111083399Y-64283258D01*
X111115907Y-64446685D01*
X111115907Y-64613315D01*
X111083399Y-64776742D01*
X111019633Y-64930687D01*
X110927059Y-65069234D01*
X110809234Y-65187059D01*
X110670687Y-65279633D01*
X110516742Y-65343399D01*
X110353315Y-65375907D01*
X110186685Y-65375907D01*
X110023258Y-65343399D01*
X109869313Y-65279633D01*
X109730766Y-65187059D01*
X109612941Y-65069234D01*
X109520367Y-64930687D01*
X109456601Y-64776742D01*
X109424093Y-64613315D01*
X109424093Y-64446685D01*
X109456601Y-64283258D01*
X109520367Y-64129313D01*
X109612941Y-63990766D01*
X109730766Y-63872941D01*
X109869313Y-63780367D01*
X110023258Y-63716601D01*
X110186685Y-63684093D01*
X110353315Y-63684093D01*
X110516742Y-63716601D01*
G37*
G36*
X113056742Y-63716601D02*
G01*
X113210687Y-63780367D01*
X113349234Y-63872941D01*
X113467059Y-63990766D01*
X113559633Y-64129313D01*
X113623399Y-64283258D01*
X113655907Y-64446685D01*
X113655907Y-64613315D01*
X113623399Y-64776742D01*
X113559633Y-64930687D01*
X113467059Y-65069234D01*
X113349234Y-65187059D01*
X113210687Y-65279633D01*
X113056742Y-65343399D01*
X112893315Y-65375907D01*
X112726685Y-65375907D01*
X112563258Y-65343399D01*
X112409313Y-65279633D01*
X112270766Y-65187059D01*
X112152941Y-65069234D01*
X112060367Y-64930687D01*
X111996601Y-64776742D01*
X111964093Y-64613315D01*
X111964093Y-64446685D01*
X111996601Y-64283258D01*
X112060367Y-64129313D01*
X112152941Y-63990766D01*
X112270766Y-63872941D01*
X112409313Y-63780367D01*
X112563258Y-63716601D01*
X112726685Y-63684093D01*
X112893315Y-63684093D01*
X113056742Y-63716601D01*
G37*
G36*
X115596742Y-63716601D02*
G01*
X115750687Y-63780367D01*
X115889234Y-63872941D01*
X116007059Y-63990766D01*
X116099633Y-64129313D01*
X116163399Y-64283258D01*
X116195907Y-64446685D01*
X116195907Y-64613315D01*
X116163399Y-64776742D01*
X116099633Y-64930687D01*
X116007059Y-65069234D01*
X115889234Y-65187059D01*
X115750687Y-65279633D01*
X115596742Y-65343399D01*
X115433315Y-65375907D01*
X115266685Y-65375907D01*
X115103258Y-65343399D01*
X114949313Y-65279633D01*
X114810766Y-65187059D01*
X114692941Y-65069234D01*
X114600367Y-64930687D01*
X114536601Y-64776742D01*
X114504093Y-64613315D01*
X114504093Y-64446685D01*
X114536601Y-64283258D01*
X114600367Y-64129313D01*
X114692941Y-63990766D01*
X114810766Y-63872941D01*
X114949313Y-63780367D01*
X115103258Y-63716601D01*
X115266685Y-63684093D01*
X115433315Y-63684093D01*
X115596742Y-63716601D01*
G37*
G36*
X118136742Y-63716601D02*
G01*
X118290687Y-63780367D01*
X118429234Y-63872941D01*
X118547059Y-63990766D01*
X118639633Y-64129313D01*
X118703399Y-64283258D01*
X118735907Y-64446685D01*
X118735907Y-64613315D01*
X118703399Y-64776742D01*
X118639633Y-64930687D01*
X118547059Y-65069234D01*
X118429234Y-65187059D01*
X118290687Y-65279633D01*
X118136742Y-65343399D01*
X117973315Y-65375907D01*
X117806685Y-65375907D01*
X117643258Y-65343399D01*
X117489313Y-65279633D01*
X117350766Y-65187059D01*
X117232941Y-65069234D01*
X117140367Y-64930687D01*
X117076601Y-64776742D01*
X117044093Y-64613315D01*
X117044093Y-64446685D01*
X117076601Y-64283258D01*
X117140367Y-64129313D01*
X117232941Y-63990766D01*
X117350766Y-63872941D01*
X117489313Y-63780367D01*
X117643258Y-63716601D01*
X117806685Y-63684093D01*
X117973315Y-63684093D01*
X118136742Y-63716601D01*
G37*
G36*
X120676742Y-63716601D02*
G01*
X120830687Y-63780367D01*
X120969234Y-63872941D01*
X121087059Y-63990766D01*
X121179633Y-64129313D01*
X121243399Y-64283258D01*
X121275907Y-64446685D01*
X121275907Y-64613315D01*
X121243399Y-64776742D01*
X121179633Y-64930687D01*
X121087059Y-65069234D01*
X120969234Y-65187059D01*
X120830687Y-65279633D01*
X120676742Y-65343399D01*
X120513315Y-65375907D01*
X120346685Y-65375907D01*
X120183258Y-65343399D01*
X120029313Y-65279633D01*
X119890766Y-65187059D01*
X119772941Y-65069234D01*
X119680367Y-64930687D01*
X119616601Y-64776742D01*
X119584093Y-64613315D01*
X119584093Y-64446685D01*
X119616601Y-64283258D01*
X119680367Y-64129313D01*
X119772941Y-63990766D01*
X119890766Y-63872941D01*
X120029313Y-63780367D01*
X120183258Y-63716601D01*
X120346685Y-63684093D01*
X120513315Y-63684093D01*
X120676742Y-63716601D01*
G37*
G36*
X123216742Y-63716601D02*
G01*
X123370687Y-63780367D01*
X123509234Y-63872941D01*
X123627059Y-63990766D01*
X123719633Y-64129313D01*
X123783399Y-64283258D01*
X123815907Y-64446685D01*
X123815907Y-64613315D01*
X123783399Y-64776742D01*
X123719633Y-64930687D01*
X123627059Y-65069234D01*
X123509234Y-65187059D01*
X123370687Y-65279633D01*
X123216742Y-65343399D01*
X123053315Y-65375907D01*
X122886685Y-65375907D01*
X122723258Y-65343399D01*
X122569313Y-65279633D01*
X122430766Y-65187059D01*
X122312941Y-65069234D01*
X122220367Y-64930687D01*
X122156601Y-64776742D01*
X122124093Y-64613315D01*
X122124093Y-64446685D01*
X122156601Y-64283258D01*
X122220367Y-64129313D01*
X122312941Y-63990766D01*
X122430766Y-63872941D01*
X122569313Y-63780367D01*
X122723258Y-63716601D01*
X122886685Y-63684093D01*
X123053315Y-63684093D01*
X123216742Y-63716601D01*
G37*
G36*
X125756742Y-63716601D02*
G01*
X125910687Y-63780367D01*
X126049234Y-63872941D01*
X126167059Y-63990766D01*
X126259633Y-64129313D01*
X126323399Y-64283258D01*
X126355907Y-64446685D01*
X126355907Y-64613315D01*
X126323399Y-64776742D01*
X126259633Y-64930687D01*
X126167059Y-65069234D01*
X126049234Y-65187059D01*
X125910687Y-65279633D01*
X125756742Y-65343399D01*
X125593315Y-65375907D01*
X125426685Y-65375907D01*
X125263258Y-65343399D01*
X125109313Y-65279633D01*
X124970766Y-65187059D01*
X124852941Y-65069234D01*
X124760367Y-64930687D01*
X124696601Y-64776742D01*
X124664093Y-64613315D01*
X124664093Y-64446685D01*
X124696601Y-64283258D01*
X124760367Y-64129313D01*
X124852941Y-63990766D01*
X124970766Y-63872941D01*
X125109313Y-63780367D01*
X125263258Y-63716601D01*
X125426685Y-63684093D01*
X125593315Y-63684093D01*
X125756742Y-63716601D01*
G37*
G36*
X128296742Y-63716601D02*
G01*
X128450687Y-63780367D01*
X128589234Y-63872941D01*
X128707059Y-63990766D01*
X128799633Y-64129313D01*
X128863399Y-64283258D01*
X128895907Y-64446685D01*
X128895907Y-64613315D01*
X128863399Y-64776742D01*
X128799633Y-64930687D01*
X128707059Y-65069234D01*
X128589234Y-65187059D01*
X128450687Y-65279633D01*
X128296742Y-65343399D01*
X128133315Y-65375907D01*
X127966685Y-65375907D01*
X127803258Y-65343399D01*
X127649313Y-65279633D01*
X127510766Y-65187059D01*
X127392941Y-65069234D01*
X127300367Y-64930687D01*
X127236601Y-64776742D01*
X127204093Y-64613315D01*
X127204093Y-64446685D01*
X127236601Y-64283258D01*
X127300367Y-64129313D01*
X127392941Y-63990766D01*
X127510766Y-63872941D01*
X127649313Y-63780367D01*
X127803258Y-63716601D01*
X127966685Y-63684093D01*
X128133315Y-63684093D01*
X128296742Y-63716601D01*
G37*
G36*
X130836742Y-63716601D02*
G01*
X130990687Y-63780367D01*
X131129234Y-63872941D01*
X131247059Y-63990766D01*
X131339633Y-64129313D01*
X131403399Y-64283258D01*
X131435907Y-64446685D01*
X131435907Y-64613315D01*
X131403399Y-64776742D01*
X131339633Y-64930687D01*
X131247059Y-65069234D01*
X131129234Y-65187059D01*
X130990687Y-65279633D01*
X130836742Y-65343399D01*
X130673315Y-65375907D01*
X130506685Y-65375907D01*
X130343258Y-65343399D01*
X130189313Y-65279633D01*
X130050766Y-65187059D01*
X129932941Y-65069234D01*
X129840367Y-64930687D01*
X129776601Y-64776742D01*
X129744093Y-64613315D01*
X129744093Y-64446685D01*
X129776601Y-64283258D01*
X129840367Y-64129313D01*
X129932941Y-63990766D01*
X130050766Y-63872941D01*
X130189313Y-63780367D01*
X130343258Y-63716601D01*
X130506685Y-63684093D01*
X130673315Y-63684093D01*
X130836742Y-63716601D01*
G37*
G36*
X85116742Y-61176601D02*
G01*
X85270687Y-61240367D01*
X85409234Y-61332941D01*
X85527059Y-61450766D01*
X85619633Y-61589313D01*
X85683399Y-61743258D01*
X85715907Y-61906685D01*
X85715907Y-62073315D01*
X85683399Y-62236742D01*
X85619633Y-62390687D01*
X85527059Y-62529234D01*
X85409234Y-62647059D01*
X85270687Y-62739633D01*
X85116742Y-62803399D01*
X84953315Y-62835907D01*
X84786685Y-62835907D01*
X84623258Y-62803399D01*
X84469313Y-62739633D01*
X84330766Y-62647059D01*
X84212941Y-62529234D01*
X84120367Y-62390687D01*
X84056601Y-62236742D01*
X84024093Y-62073315D01*
X84024093Y-61906685D01*
X84056601Y-61743258D01*
X84120367Y-61589313D01*
X84212941Y-61450766D01*
X84330766Y-61332941D01*
X84469313Y-61240367D01*
X84623258Y-61176601D01*
X84786685Y-61144093D01*
X84953315Y-61144093D01*
X85116742Y-61176601D01*
G37*
G36*
X87656742Y-61176601D02*
G01*
X87810687Y-61240367D01*
X87949234Y-61332941D01*
X88067059Y-61450766D01*
X88159633Y-61589313D01*
X88223399Y-61743258D01*
X88255907Y-61906685D01*
X88255907Y-62073315D01*
X88223399Y-62236742D01*
X88159633Y-62390687D01*
X88067059Y-62529234D01*
X87949234Y-62647059D01*
X87810687Y-62739633D01*
X87656742Y-62803399D01*
X87493315Y-62835907D01*
X87326685Y-62835907D01*
X87163258Y-62803399D01*
X87009313Y-62739633D01*
X86870766Y-62647059D01*
X86752941Y-62529234D01*
X86660367Y-62390687D01*
X86596601Y-62236742D01*
X86564093Y-62073315D01*
X86564093Y-61906685D01*
X86596601Y-61743258D01*
X86660367Y-61589313D01*
X86752941Y-61450766D01*
X86870766Y-61332941D01*
X87009313Y-61240367D01*
X87163258Y-61176601D01*
X87326685Y-61144093D01*
X87493315Y-61144093D01*
X87656742Y-61176601D01*
G37*
G36*
X90196742Y-61176601D02*
G01*
X90350687Y-61240367D01*
X90489234Y-61332941D01*
X90607059Y-61450766D01*
X90699633Y-61589313D01*
X90763399Y-61743258D01*
X90795907Y-61906685D01*
X90795907Y-62073315D01*
X90763399Y-62236742D01*
X90699633Y-62390687D01*
X90607059Y-62529234D01*
X90489234Y-62647059D01*
X90350687Y-62739633D01*
X90196742Y-62803399D01*
X90033315Y-62835907D01*
X89866685Y-62835907D01*
X89703258Y-62803399D01*
X89549313Y-62739633D01*
X89410766Y-62647059D01*
X89292941Y-62529234D01*
X89200367Y-62390687D01*
X89136601Y-62236742D01*
X89104093Y-62073315D01*
X89104093Y-61906685D01*
X89136601Y-61743258D01*
X89200367Y-61589313D01*
X89292941Y-61450766D01*
X89410766Y-61332941D01*
X89549313Y-61240367D01*
X89703258Y-61176601D01*
X89866685Y-61144093D01*
X90033315Y-61144093D01*
X90196742Y-61176601D01*
G37*
G36*
X92736742Y-61176601D02*
G01*
X92890687Y-61240367D01*
X93029234Y-61332941D01*
X93147059Y-61450766D01*
X93239633Y-61589313D01*
X93303399Y-61743258D01*
X93335907Y-61906685D01*
X93335907Y-62073315D01*
X93303399Y-62236742D01*
X93239633Y-62390687D01*
X93147059Y-62529234D01*
X93029234Y-62647059D01*
X92890687Y-62739633D01*
X92736742Y-62803399D01*
X92573315Y-62835907D01*
X92406685Y-62835907D01*
X92243258Y-62803399D01*
X92089313Y-62739633D01*
X91950766Y-62647059D01*
X91832941Y-62529234D01*
X91740367Y-62390687D01*
X91676601Y-62236742D01*
X91644093Y-62073315D01*
X91644093Y-61906685D01*
X91676601Y-61743258D01*
X91740367Y-61589313D01*
X91832941Y-61450766D01*
X91950766Y-61332941D01*
X92089313Y-61240367D01*
X92243258Y-61176601D01*
X92406685Y-61144093D01*
X92573315Y-61144093D01*
X92736742Y-61176601D01*
G37*
G36*
X95276742Y-61176601D02*
G01*
X95430687Y-61240367D01*
X95569234Y-61332941D01*
X95687059Y-61450766D01*
X95779633Y-61589313D01*
X95843399Y-61743258D01*
X95875907Y-61906685D01*
X95875907Y-62073315D01*
X95843399Y-62236742D01*
X95779633Y-62390687D01*
X95687059Y-62529234D01*
X95569234Y-62647059D01*
X95430687Y-62739633D01*
X95276742Y-62803399D01*
X95113315Y-62835907D01*
X94946685Y-62835907D01*
X94783258Y-62803399D01*
X94629313Y-62739633D01*
X94490766Y-62647059D01*
X94372941Y-62529234D01*
X94280367Y-62390687D01*
X94216601Y-62236742D01*
X94184093Y-62073315D01*
X94184093Y-61906685D01*
X94216601Y-61743258D01*
X94280367Y-61589313D01*
X94372941Y-61450766D01*
X94490766Y-61332941D01*
X94629313Y-61240367D01*
X94783258Y-61176601D01*
X94946685Y-61144093D01*
X95113315Y-61144093D01*
X95276742Y-61176601D01*
G37*
G36*
X97816742Y-61176601D02*
G01*
X97970687Y-61240367D01*
X98109234Y-61332941D01*
X98227059Y-61450766D01*
X98319633Y-61589313D01*
X98383399Y-61743258D01*
X98415907Y-61906685D01*
X98415907Y-62073315D01*
X98383399Y-62236742D01*
X98319633Y-62390687D01*
X98227059Y-62529234D01*
X98109234Y-62647059D01*
X97970687Y-62739633D01*
X97816742Y-62803399D01*
X97653315Y-62835907D01*
X97486685Y-62835907D01*
X97323258Y-62803399D01*
X97169313Y-62739633D01*
X97030766Y-62647059D01*
X96912941Y-62529234D01*
X96820367Y-62390687D01*
X96756601Y-62236742D01*
X96724093Y-62073315D01*
X96724093Y-61906685D01*
X96756601Y-61743258D01*
X96820367Y-61589313D01*
X96912941Y-61450766D01*
X97030766Y-61332941D01*
X97169313Y-61240367D01*
X97323258Y-61176601D01*
X97486685Y-61144093D01*
X97653315Y-61144093D01*
X97816742Y-61176601D01*
G37*
G36*
X118740000Y-61510000D02*
G01*
X117040000Y-61510000D01*
X117040000Y-59810000D01*
X118740000Y-59810000D01*
X118740000Y-61510000D01*
G37*
G36*
X120676742Y-59846601D02*
G01*
X120830687Y-59910367D01*
X120969234Y-60002941D01*
X121087059Y-60120766D01*
X121179633Y-60259313D01*
X121243399Y-60413258D01*
X121275907Y-60576685D01*
X121275907Y-60743315D01*
X121243399Y-60906742D01*
X121179633Y-61060687D01*
X121087059Y-61199234D01*
X120969234Y-61317059D01*
X120830687Y-61409633D01*
X120676742Y-61473399D01*
X120513315Y-61505907D01*
X120346685Y-61505907D01*
X120183258Y-61473399D01*
X120029313Y-61409633D01*
X119890766Y-61317059D01*
X119772941Y-61199234D01*
X119680367Y-61060687D01*
X119616601Y-60906742D01*
X119584093Y-60743315D01*
X119584093Y-60576685D01*
X119616601Y-60413258D01*
X119680367Y-60259313D01*
X119772941Y-60120766D01*
X119890766Y-60002941D01*
X120029313Y-59910367D01*
X120183258Y-59846601D01*
X120346685Y-59814093D01*
X120513315Y-59814093D01*
X120676742Y-59846601D01*
G37*
G36*
X85116742Y-58636601D02*
G01*
X85270687Y-58700367D01*
X85409234Y-58792941D01*
X85527059Y-58910766D01*
X85619633Y-59049313D01*
X85683399Y-59203258D01*
X85715907Y-59366685D01*
X85715907Y-59533315D01*
X85683399Y-59696742D01*
X85619633Y-59850687D01*
X85527059Y-59989234D01*
X85409234Y-60107059D01*
X85270687Y-60199633D01*
X85116742Y-60263399D01*
X84953315Y-60295907D01*
X84786685Y-60295907D01*
X84623258Y-60263399D01*
X84469313Y-60199633D01*
X84330766Y-60107059D01*
X84212941Y-59989234D01*
X84120367Y-59850687D01*
X84056601Y-59696742D01*
X84024093Y-59533315D01*
X84024093Y-59366685D01*
X84056601Y-59203258D01*
X84120367Y-59049313D01*
X84212941Y-58910766D01*
X84330766Y-58792941D01*
X84469313Y-58700367D01*
X84623258Y-58636601D01*
X84786685Y-58604093D01*
X84953315Y-58604093D01*
X85116742Y-58636601D01*
G37*
G36*
X87656742Y-58636601D02*
G01*
X87810687Y-58700367D01*
X87949234Y-58792941D01*
X88067059Y-58910766D01*
X88159633Y-59049313D01*
X88223399Y-59203258D01*
X88255907Y-59366685D01*
X88255907Y-59533315D01*
X88223399Y-59696742D01*
X88159633Y-59850687D01*
X88067059Y-59989234D01*
X87949234Y-60107059D01*
X87810687Y-60199633D01*
X87656742Y-60263399D01*
X87493315Y-60295907D01*
X87326685Y-60295907D01*
X87163258Y-60263399D01*
X87009313Y-60199633D01*
X86870766Y-60107059D01*
X86752941Y-59989234D01*
X86660367Y-59850687D01*
X86596601Y-59696742D01*
X86564093Y-59533315D01*
X86564093Y-59366685D01*
X86596601Y-59203258D01*
X86660367Y-59049313D01*
X86752941Y-58910766D01*
X86870766Y-58792941D01*
X87009313Y-58700367D01*
X87163258Y-58636601D01*
X87326685Y-58604093D01*
X87493315Y-58604093D01*
X87656742Y-58636601D01*
G37*
G36*
X90196742Y-58636601D02*
G01*
X90350687Y-58700367D01*
X90489234Y-58792941D01*
X90607059Y-58910766D01*
X90699633Y-59049313D01*
X90763399Y-59203258D01*
X90795907Y-59366685D01*
X90795907Y-59533315D01*
X90763399Y-59696742D01*
X90699633Y-59850687D01*
X90607059Y-59989234D01*
X90489234Y-60107059D01*
X90350687Y-60199633D01*
X90196742Y-60263399D01*
X90033315Y-60295907D01*
X89866685Y-60295907D01*
X89703258Y-60263399D01*
X89549313Y-60199633D01*
X89410766Y-60107059D01*
X89292941Y-59989234D01*
X89200367Y-59850687D01*
X89136601Y-59696742D01*
X89104093Y-59533315D01*
X89104093Y-59366685D01*
X89136601Y-59203258D01*
X89200367Y-59049313D01*
X89292941Y-58910766D01*
X89410766Y-58792941D01*
X89549313Y-58700367D01*
X89703258Y-58636601D01*
X89866685Y-58604093D01*
X90033315Y-58604093D01*
X90196742Y-58636601D01*
G37*
G36*
X92736742Y-58636601D02*
G01*
X92890687Y-58700367D01*
X93029234Y-58792941D01*
X93147059Y-58910766D01*
X93239633Y-59049313D01*
X93303399Y-59203258D01*
X93335907Y-59366685D01*
X93335907Y-59533315D01*
X93303399Y-59696742D01*
X93239633Y-59850687D01*
X93147059Y-59989234D01*
X93029234Y-60107059D01*
X92890687Y-60199633D01*
X92736742Y-60263399D01*
X92573315Y-60295907D01*
X92406685Y-60295907D01*
X92243258Y-60263399D01*
X92089313Y-60199633D01*
X91950766Y-60107059D01*
X91832941Y-59989234D01*
X91740367Y-59850687D01*
X91676601Y-59696742D01*
X91644093Y-59533315D01*
X91644093Y-59366685D01*
X91676601Y-59203258D01*
X91740367Y-59049313D01*
X91832941Y-58910766D01*
X91950766Y-58792941D01*
X92089313Y-58700367D01*
X92243258Y-58636601D01*
X92406685Y-58604093D01*
X92573315Y-58604093D01*
X92736742Y-58636601D01*
G37*
G36*
X95276742Y-58636601D02*
G01*
X95430687Y-58700367D01*
X95569234Y-58792941D01*
X95687059Y-58910766D01*
X95779633Y-59049313D01*
X95843399Y-59203258D01*
X95875907Y-59366685D01*
X95875907Y-59533315D01*
X95843399Y-59696742D01*
X95779633Y-59850687D01*
X95687059Y-59989234D01*
X95569234Y-60107059D01*
X95430687Y-60199633D01*
X95276742Y-60263399D01*
X95113315Y-60295907D01*
X94946685Y-60295907D01*
X94783258Y-60263399D01*
X94629313Y-60199633D01*
X94490766Y-60107059D01*
X94372941Y-59989234D01*
X94280367Y-59850687D01*
X94216601Y-59696742D01*
X94184093Y-59533315D01*
X94184093Y-59366685D01*
X94216601Y-59203258D01*
X94280367Y-59049313D01*
X94372941Y-58910766D01*
X94490766Y-58792941D01*
X94629313Y-58700367D01*
X94783258Y-58636601D01*
X94946685Y-58604093D01*
X95113315Y-58604093D01*
X95276742Y-58636601D01*
G37*
G36*
X97816742Y-58636601D02*
G01*
X97970687Y-58700367D01*
X98109234Y-58792941D01*
X98227059Y-58910766D01*
X98319633Y-59049313D01*
X98383399Y-59203258D01*
X98415907Y-59366685D01*
X98415907Y-59533315D01*
X98383399Y-59696742D01*
X98319633Y-59850687D01*
X98227059Y-59989234D01*
X98109234Y-60107059D01*
X97970687Y-60199633D01*
X97816742Y-60263399D01*
X97653315Y-60295907D01*
X97486685Y-60295907D01*
X97323258Y-60263399D01*
X97169313Y-60199633D01*
X97030766Y-60107059D01*
X96912941Y-59989234D01*
X96820367Y-59850687D01*
X96756601Y-59696742D01*
X96724093Y-59533315D01*
X96724093Y-59366685D01*
X96756601Y-59203258D01*
X96820367Y-59049313D01*
X96912941Y-58910766D01*
X97030766Y-58792941D01*
X97169313Y-58700367D01*
X97323258Y-58636601D01*
X97486685Y-58604093D01*
X97653315Y-58604093D01*
X97816742Y-58636601D01*
G37*
G36*
X118136742Y-57306601D02*
G01*
X118290687Y-57370367D01*
X118429234Y-57462941D01*
X118547059Y-57580766D01*
X118639633Y-57719313D01*
X118703399Y-57873258D01*
X118735907Y-58036685D01*
X118735907Y-58203315D01*
X118703399Y-58366742D01*
X118639633Y-58520687D01*
X118547059Y-58659234D01*
X118429234Y-58777059D01*
X118290687Y-58869633D01*
X118136742Y-58933399D01*
X117973315Y-58965907D01*
X117806685Y-58965907D01*
X117643258Y-58933399D01*
X117489313Y-58869633D01*
X117350766Y-58777059D01*
X117232941Y-58659234D01*
X117140367Y-58520687D01*
X117076601Y-58366742D01*
X117044093Y-58203315D01*
X117044093Y-58036685D01*
X117076601Y-57873258D01*
X117140367Y-57719313D01*
X117232941Y-57580766D01*
X117350766Y-57462941D01*
X117489313Y-57370367D01*
X117643258Y-57306601D01*
X117806685Y-57274093D01*
X117973315Y-57274093D01*
X118136742Y-57306601D01*
G37*
G36*
X120676742Y-57306601D02*
G01*
X120830687Y-57370367D01*
X120969234Y-57462941D01*
X121087059Y-57580766D01*
X121179633Y-57719313D01*
X121243399Y-57873258D01*
X121275907Y-58036685D01*
X121275907Y-58203315D01*
X121243399Y-58366742D01*
X121179633Y-58520687D01*
X121087059Y-58659234D01*
X120969234Y-58777059D01*
X120830687Y-58869633D01*
X120676742Y-58933399D01*
X120513315Y-58965907D01*
X120346685Y-58965907D01*
X120183258Y-58933399D01*
X120029313Y-58869633D01*
X119890766Y-58777059D01*
X119772941Y-58659234D01*
X119680367Y-58520687D01*
X119616601Y-58366742D01*
X119584093Y-58203315D01*
X119584093Y-58036685D01*
X119616601Y-57873258D01*
X119680367Y-57719313D01*
X119772941Y-57580766D01*
X119890766Y-57462941D01*
X120029313Y-57370367D01*
X120183258Y-57306601D01*
X120346685Y-57274093D01*
X120513315Y-57274093D01*
X120676742Y-57306601D01*
G37*
G36*
X53952267Y-51338148D02*
G01*
X54247456Y-51405523D01*
X54533245Y-51505525D01*
X54806041Y-51636897D01*
X55062412Y-51797986D01*
X55299136Y-51986766D01*
X55513234Y-52200864D01*
X55702014Y-52437588D01*
X55863103Y-52693959D01*
X55994475Y-52966755D01*
X56094477Y-53252544D01*
X56161852Y-53547733D01*
X56195752Y-53848610D01*
X56195752Y-54151390D01*
X56161852Y-54452267D01*
X56094477Y-54747456D01*
X55994475Y-55033245D01*
X55863103Y-55306041D01*
X55702014Y-55562412D01*
X55513234Y-55799136D01*
X55299136Y-56013234D01*
X55062412Y-56202014D01*
X54806041Y-56363103D01*
X54533245Y-56494475D01*
X54247456Y-56594477D01*
X53952267Y-56661852D01*
X53651390Y-56695752D01*
X53348610Y-56695752D01*
X53047733Y-56661852D01*
X52752544Y-56594477D01*
X52466755Y-56494475D01*
X52193959Y-56363103D01*
X51937588Y-56202014D01*
X51700864Y-56013234D01*
X51486766Y-55799136D01*
X51297986Y-55562412D01*
X51136897Y-55306041D01*
X51005525Y-55033245D01*
X50905523Y-54747456D01*
X50838148Y-54452267D01*
X50804248Y-54151390D01*
X50804248Y-53848610D01*
X50838148Y-53547733D01*
X50905523Y-53252544D01*
X51005525Y-52966755D01*
X51136897Y-52693959D01*
X51297986Y-52437588D01*
X51486766Y-52200864D01*
X51700864Y-51986766D01*
X51937588Y-51797986D01*
X52193959Y-51636897D01*
X52466755Y-51505525D01*
X52752544Y-51405523D01*
X53047733Y-51338148D01*
X53348610Y-51304248D01*
X53651390Y-51304248D01*
X53952267Y-51338148D01*
G37*
G36*
X111952267Y-51338148D02*
G01*
X112247456Y-51405523D01*
X112533245Y-51505525D01*
X112806041Y-51636897D01*
X113062412Y-51797986D01*
X113299136Y-51986766D01*
X113513234Y-52200864D01*
X113702014Y-52437588D01*
X113863103Y-52693959D01*
X113994475Y-52966755D01*
X114094477Y-53252544D01*
X114161852Y-53547733D01*
X114195752Y-53848610D01*
X114195752Y-54151390D01*
X114161852Y-54452267D01*
X114094477Y-54747456D01*
X113994475Y-55033245D01*
X113863103Y-55306041D01*
X113702014Y-55562412D01*
X113513234Y-55799136D01*
X113299136Y-56013234D01*
X113062412Y-56202014D01*
X112806041Y-56363103D01*
X112533245Y-56494475D01*
X112247456Y-56594477D01*
X111952267Y-56661852D01*
X111651390Y-56695752D01*
X111348610Y-56695752D01*
X111047733Y-56661852D01*
X110752544Y-56594477D01*
X110466755Y-56494475D01*
X110193959Y-56363103D01*
X109937588Y-56202014D01*
X109700864Y-56013234D01*
X109486766Y-55799136D01*
X109297986Y-55562412D01*
X109136897Y-55306041D01*
X109005525Y-55033245D01*
X108905523Y-54747456D01*
X108838148Y-54452267D01*
X108804248Y-54151390D01*
X108804248Y-53848610D01*
X108838148Y-53547733D01*
X108905523Y-53252544D01*
X109005525Y-52966755D01*
X109136897Y-52693959D01*
X109297986Y-52437588D01*
X109486766Y-52200864D01*
X109700864Y-51986766D01*
X109937588Y-51797986D01*
X110193959Y-51636897D01*
X110466755Y-51505525D01*
X110752544Y-51405523D01*
X111047733Y-51338148D01*
X111348610Y-51304248D01*
X111651390Y-51304248D01*
X111952267Y-51338148D01*
G37*
G36*
X118740000Y-53890000D02*
G01*
X117040000Y-53890000D01*
X117040000Y-52190000D01*
X118740000Y-52190000D01*
X118740000Y-53890000D01*
G37*
G36*
X120676742Y-52226601D02*
G01*
X120830687Y-52290367D01*
X120969234Y-52382941D01*
X121087059Y-52500766D01*
X121179633Y-52639313D01*
X121243399Y-52793258D01*
X121275907Y-52956685D01*
X121275907Y-53123315D01*
X121243399Y-53286742D01*
X121179633Y-53440687D01*
X121087059Y-53579234D01*
X120969234Y-53697059D01*
X120830687Y-53789633D01*
X120676742Y-53853399D01*
X120513315Y-53885907D01*
X120346685Y-53885907D01*
X120183258Y-53853399D01*
X120029313Y-53789633D01*
X119890766Y-53697059D01*
X119772941Y-53579234D01*
X119680367Y-53440687D01*
X119616601Y-53286742D01*
X119584093Y-53123315D01*
X119584093Y-52956685D01*
X119616601Y-52793258D01*
X119680367Y-52639313D01*
X119772941Y-52500766D01*
X119890766Y-52382941D01*
X120029313Y-52290367D01*
X120183258Y-52226601D01*
X120346685Y-52194093D01*
X120513315Y-52194093D01*
X120676742Y-52226601D01*
G37*
G36*
X123216742Y-52226601D02*
G01*
X123370687Y-52290367D01*
X123509234Y-52382941D01*
X123627059Y-52500766D01*
X123719633Y-52639313D01*
X123783399Y-52793258D01*
X123815907Y-52956685D01*
X123815907Y-53123315D01*
X123783399Y-53286742D01*
X123719633Y-53440687D01*
X123627059Y-53579234D01*
X123509234Y-53697059D01*
X123370687Y-53789633D01*
X123216742Y-53853399D01*
X123053315Y-53885907D01*
X122886685Y-53885907D01*
X122723258Y-53853399D01*
X122569313Y-53789633D01*
X122430766Y-53697059D01*
X122312941Y-53579234D01*
X122220367Y-53440687D01*
X122156601Y-53286742D01*
X122124093Y-53123315D01*
X122124093Y-52956685D01*
X122156601Y-52793258D01*
X122220367Y-52639313D01*
X122312941Y-52500766D01*
X122430766Y-52382941D01*
X122569313Y-52290367D01*
X122723258Y-52226601D01*
X122886685Y-52194093D01*
X123053315Y-52194093D01*
X123216742Y-52226601D01*
G37*
G36*
X125756742Y-52226601D02*
G01*
X125910687Y-52290367D01*
X126049234Y-52382941D01*
X126167059Y-52500766D01*
X126259633Y-52639313D01*
X126323399Y-52793258D01*
X126355907Y-52956685D01*
X126355907Y-53123315D01*
X126323399Y-53286742D01*
X126259633Y-53440687D01*
X126167059Y-53579234D01*
X126049234Y-53697059D01*
X125910687Y-53789633D01*
X125756742Y-53853399D01*
X125593315Y-53885907D01*
X125426685Y-53885907D01*
X125263258Y-53853399D01*
X125109313Y-53789633D01*
X124970766Y-53697059D01*
X124852941Y-53579234D01*
X124760367Y-53440687D01*
X124696601Y-53286742D01*
X124664093Y-53123315D01*
X124664093Y-52956685D01*
X124696601Y-52793258D01*
X124760367Y-52639313D01*
X124852941Y-52500766D01*
X124970766Y-52382941D01*
X125109313Y-52290367D01*
X125263258Y-52226601D01*
X125426685Y-52194093D01*
X125593315Y-52194093D01*
X125756742Y-52226601D01*
G37*
G36*
X128296742Y-52226601D02*
G01*
X128450687Y-52290367D01*
X128589234Y-52382941D01*
X128707059Y-52500766D01*
X128799633Y-52639313D01*
X128863399Y-52793258D01*
X128895907Y-52956685D01*
X128895907Y-53123315D01*
X128863399Y-53286742D01*
X128799633Y-53440687D01*
X128707059Y-53579234D01*
X128589234Y-53697059D01*
X128450687Y-53789633D01*
X128296742Y-53853399D01*
X128133315Y-53885907D01*
X127966685Y-53885907D01*
X127803258Y-53853399D01*
X127649313Y-53789633D01*
X127510766Y-53697059D01*
X127392941Y-53579234D01*
X127300367Y-53440687D01*
X127236601Y-53286742D01*
X127204093Y-53123315D01*
X127204093Y-52956685D01*
X127236601Y-52793258D01*
X127300367Y-52639313D01*
X127392941Y-52500766D01*
X127510766Y-52382941D01*
X127649313Y-52290367D01*
X127803258Y-52226601D01*
X127966685Y-52194093D01*
X128133315Y-52194093D01*
X128296742Y-52226601D01*
G37*
G36*
X130836742Y-52226601D02*
G01*
X130990687Y-52290367D01*
X131129234Y-52382941D01*
X131247059Y-52500766D01*
X131339633Y-52639313D01*
X131403399Y-52793258D01*
X131435907Y-52956685D01*
X131435907Y-53123315D01*
X131403399Y-53286742D01*
X131339633Y-53440687D01*
X131247059Y-53579234D01*
X131129234Y-53697059D01*
X130990687Y-53789633D01*
X130836742Y-53853399D01*
X130673315Y-53885907D01*
X130506685Y-53885907D01*
X130343258Y-53853399D01*
X130189313Y-53789633D01*
X130050766Y-53697059D01*
X129932941Y-53579234D01*
X129840367Y-53440687D01*
X129776601Y-53286742D01*
X129744093Y-53123315D01*
X129744093Y-52956685D01*
X129776601Y-52793258D01*
X129840367Y-52639313D01*
X129932941Y-52500766D01*
X130050766Y-52382941D01*
X130189313Y-52290367D01*
X130343258Y-52226601D01*
X130506685Y-52194093D01*
X130673315Y-52194093D01*
X130836742Y-52226601D01*
G37*
M02*
