%TF.GenerationSoftware,KiCad,Pcbnew,9.0.7-9.0.7~ubuntu24.04.1*%
%TF.CreationDate,2026-01-31T19:08:08-06:00*%
%TF.ProjectId,PCB,5043422e-6b69-4636-9164-5f7063625858,rev?*%
%TF.SameCoordinates,Original*%
%TF.FileFunction,Profile,NP*%
%FSLAX46Y46*%
G04 Gerber Fmt 4.6, Leading zero omitted, Abs format (unit mm)*
G04 Created by KiCad (PCBNEW 9.0.7-9.0.7~ubuntu24.04.1) date 2026-01-31 19:08:08*
%MOMM*%
%LPD*%
G01*
G04 APERTURE LIST*
%TA.AperFunction,Profile*%
%ADD10C,0.038100*%
%TD*%
G04 APERTURE END LIST*
D10*
X106000000Y-51500000D02*
G75*
G02*
X107000000Y-52500000I0J-1000000D01*
G01*
X107000000Y-55500000D02*
G75*
G02*
X106000000Y-56500000I-1000000J0D01*
G01*
X107000000Y-52500000D02*
X107000000Y-55500000D01*
X58000000Y-55500000D02*
X58000000Y-52500000D01*
X53500000Y-50500000D02*
X131500000Y-50500000D01*
X50000000Y-54000000D02*
G75*
G02*
X53500000Y-50500000I3500000J0D01*
G01*
X135000000Y-103000000D02*
G75*
G02*
X131500000Y-106500000I-3500000J0D01*
G01*
X59000000Y-51500000D02*
X106000000Y-51500000D01*
X97500000Y-105500000D02*
G75*
G02*
X96500000Y-106500000I-1000000J0D01*
G01*
X53500000Y-106500000D02*
X96500000Y-106500000D01*
X50000000Y-103000000D02*
X50000000Y-54000000D01*
X107500000Y-91500000D02*
X107500000Y-105500000D01*
X106000000Y-56500000D02*
X59000000Y-56500000D01*
X58000000Y-52500000D02*
G75*
G02*
X59000000Y-51500000I1000000J0D01*
G01*
X79150000Y-103800000D02*
G75*
G02*
X76150000Y-103800000I-1500000J0D01*
G01*
X76150000Y-103800000D02*
G75*
G02*
X79150000Y-103800000I1500000J0D01*
G01*
X131500000Y-50500000D02*
G75*
G02*
X135000000Y-54000000I0J-3500000D01*
G01*
X97500000Y-105500000D02*
X97500000Y-91500000D01*
X108500000Y-106500000D02*
X131500000Y-106500000D01*
X53500000Y-106500000D02*
G75*
G02*
X50000000Y-103000000I0J3500000D01*
G01*
X135000000Y-54000000D02*
X135000000Y-103000000D01*
X97500000Y-91500000D02*
G75*
G02*
X98500000Y-90500000I1000000J0D01*
G01*
X59000000Y-56500000D02*
G75*
G02*
X58000000Y-55500000I0J1000000D01*
G01*
X98500000Y-90500000D02*
X106500000Y-90500000D01*
X108500000Y-106500000D02*
G75*
G02*
X107500000Y-105500000I0J1000000D01*
G01*
X79150000Y-58800000D02*
G75*
G02*
X76150000Y-58800000I-1500000J0D01*
G01*
X76150000Y-58800000D02*
G75*
G02*
X79150000Y-58800000I1500000J0D01*
G01*
X106500000Y-90500000D02*
G75*
G02*
X107500000Y-91500000I0J-1000000D01*
G01*
M02*
