%TF.GenerationSoftware,KiCad,Pcbnew,9.0.7-9.0.7~ubuntu24.04.1*%
%TF.CreationDate,2026-01-31T19:08:08-06:00*%
%TF.ProjectId,PCB,5043422e-6b69-4636-9164-5f7063625858,rev?*%
%TF.SameCoordinates,Original*%
%TF.FileFunction,Copper,L4,Bot*%
%TF.FilePolarity,Positive*%
%FSLAX46Y46*%
G04 Gerber Fmt 4.6, Leading zero omitted, Abs format (unit mm)*
G04 Created by KiCad (PCBNEW 9.0.7-9.0.7~ubuntu24.04.1) date 2026-01-31 19:08:08*
%MOMM*%
%LPD*%
G01*
G04 APERTURE LIST*
G04 Aperture macros list*
%AMRoundRect*
0 Rectangle with rounded corners*
0 $1 Rounding radius*
0 $2 $3 $4 $5 $6 $7 $8 $9 X,Y pos of 4 corners*
0 Add a 4 corners polygon primitive as box body*
4,1,4,$2,$3,$4,$5,$6,$7,$8,$9,$2,$3,0*
0 Add four circle primitives for the rounded corners*
1,1,$1+$1,$2,$3*
1,1,$1+$1,$4,$5*
1,1,$1+$1,$6,$7*
1,1,$1+$1,$8,$9*
0 Add four rect primitives between the rounded corners*
20,1,$1+$1,$2,$3,$4,$5,0*
20,1,$1+$1,$4,$5,$6,$7,0*
20,1,$1+$1,$6,$7,$8,$9,0*
20,1,$1+$1,$8,$9,$2,$3,0*%
G04 Aperture macros list end*
%TA.AperFunction,ComponentPad*%
%ADD10R,1.700000X1.700000*%
%TD*%
%TA.AperFunction,ComponentPad*%
%ADD11C,1.700000*%
%TD*%
%TA.AperFunction,ComponentPad*%
%ADD12R,1.800000X1.800000*%
%TD*%
%TA.AperFunction,ComponentPad*%
%ADD13C,1.800000*%
%TD*%
%TA.AperFunction,ComponentPad*%
%ADD14C,0.800000*%
%TD*%
%TA.AperFunction,ComponentPad*%
%ADD15C,5.400000*%
%TD*%
%TA.AperFunction,ComponentPad*%
%ADD16C,1.600000*%
%TD*%
%TA.AperFunction,ComponentPad*%
%ADD17RoundRect,0.200000X-0.600000X0.600000X-0.600000X-0.600000X0.600000X-0.600000X0.600000X0.600000X0*%
%TD*%
%TA.AperFunction,ViaPad*%
%ADD18C,0.600000*%
%TD*%
%TA.AperFunction,Conductor*%
%ADD19C,0.200000*%
%TD*%
%TA.AperFunction,Conductor*%
%ADD20C,0.600000*%
%TD*%
G04 APERTURE END LIST*
D10*
%TO.P,J9,1,Pin_1*%
%TO.N,/RED1*%
X117890000Y-98880000D03*
D11*
%TO.P,J9,2,Pin_2*%
X117890000Y-96340000D03*
%TO.P,J9,3,Pin_3*%
%TO.N,/BLK1*%
X120430000Y-98880000D03*
%TO.P,J9,4,Pin_4*%
X120430000Y-96340000D03*
%TD*%
D10*
%TO.P,J11,1,Pin_1*%
%TO.N,+6V*%
X102650000Y-64530000D03*
D11*
%TO.P,J11,2,Pin_2*%
%TO.N,GND*%
X105190000Y-64530000D03*
%TD*%
D10*
%TO.P,J4,1,Pin_1*%
%TO.N,/Srvo4_Sig*%
X97570000Y-64530000D03*
D11*
%TO.P,J4,2,Pin_2*%
%TO.N,+6V*%
X97570000Y-61990000D03*
%TO.P,J4,3,Pin_3*%
%TO.N,GND*%
X97570000Y-59450000D03*
%TD*%
D12*
%TO.P,D1,1,RA*%
%TO.N,Net-(D1-RA)*%
X125510000Y-96340000D03*
D13*
%TO.P,D1,2,K*%
%TO.N,GND*%
X127669000Y-96340000D03*
%TO.P,D1,3,GA*%
%TO.N,Net-(D1-GA)*%
X129828000Y-96340000D03*
%TO.P,D1,4,BA*%
%TO.N,Net-(D1-BA)*%
X131987000Y-96340000D03*
%TD*%
D14*
%TO.P,H1,1,1*%
%TO.N,unconnected-(H1-Pad1)_8*%
X51475000Y-54000000D03*
%TO.N,unconnected-(H1-Pad1)_3*%
X52068109Y-52568109D03*
%TO.N,unconnected-(H1-Pad1)_6*%
X52068109Y-55431891D03*
%TO.N,unconnected-(H1-Pad1)_7*%
X53500000Y-51975000D03*
D15*
%TO.N,unconnected-(H1-Pad1)_2*%
X53500000Y-54000000D03*
D14*
%TO.N,unconnected-(H1-Pad1)_4*%
X53500000Y-56025000D03*
%TO.N,unconnected-(H1-Pad1)*%
X54931891Y-52568109D03*
%TO.N,unconnected-(H1-Pad1)_1*%
X54931891Y-55431891D03*
%TO.N,unconnected-(H1-Pad1)_5*%
X55525000Y-54000000D03*
%TD*%
D16*
%TO.P,R1,1*%
%TO.N,Net-(D1-RA)*%
X118430000Y-80075000D03*
%TO.P,R1,2*%
%TO.N,/RED*%
X126050000Y-80075000D03*
%TD*%
D10*
%TO.P,S3,1,Pin_1*%
%TO.N,/Srvo3_Sig*%
X89950000Y-64530000D03*
D11*
%TO.P,S3,2,Pin_2*%
%TO.N,+6V*%
X89950000Y-61990000D03*
%TO.P,S3,3,Pin_3*%
%TO.N,GND*%
X89950000Y-59450000D03*
%TD*%
D10*
%TO.P,MOT_DRV_Conn1,1,Pin_1*%
%TO.N,+3V3*%
X93760000Y-103000000D03*
D11*
%TO.P,MOT_DRV_Conn1,2,Pin_2*%
X91220000Y-103000000D03*
%TO.P,MOT_DRV_Conn1,3,Pin_3*%
%TO.N,/PWM2*%
X93760000Y-100460000D03*
%TO.P,MOT_DRV_Conn1,4,Pin_4*%
%TO.N,/PWM1*%
X91220000Y-100460000D03*
%TO.P,MOT_DRV_Conn1,5,Pin_5*%
%TO.N,/INA2*%
X93760000Y-97920000D03*
%TO.P,MOT_DRV_Conn1,6,Pin_6*%
%TO.N,/INA1*%
X91220000Y-97920000D03*
%TO.P,MOT_DRV_Conn1,7,Pin_7*%
%TO.N,/INB2*%
X93760000Y-95380000D03*
%TO.P,MOT_DRV_Conn1,8,Pin_8*%
%TO.N,/INB1*%
X91220000Y-95380000D03*
%TO.P,MOT_DRV_Conn1,9,Pin_9*%
%TO.N,GND*%
X93760000Y-92840000D03*
%TO.P,MOT_DRV_Conn1,10,Pin_10*%
X91220000Y-92840000D03*
%TD*%
D10*
%TO.P,J8,1,Pin_1*%
%TO.N,/RED2*%
X117890000Y-53040000D03*
D11*
%TO.P,J8,2,Pin_2*%
%TO.N,/BLK2*%
X120430000Y-53040000D03*
%TO.P,J8,3,Pin_3*%
%TO.N,GND*%
X122970000Y-53040000D03*
%TO.P,J8,4,Pin_4*%
%TO.N,VBUS*%
X125510000Y-53040000D03*
%TO.P,J8,5,Pin_5*%
%TO.N,/ENCA2*%
X128050000Y-53040000D03*
%TO.P,J8,6,Pin_6*%
%TO.N,/ENCB2*%
X130590000Y-53040000D03*
%TD*%
D16*
%TO.P,R3,1*%
%TO.N,Net-(D1-BA)*%
X118430000Y-73700000D03*
%TO.P,R3,2*%
%TO.N,/BLUE*%
X126050000Y-73700000D03*
%TD*%
D14*
%TO.P,H2,1,1*%
%TO.N,unconnected-(H2-Pad1)_1*%
X51475000Y-103000000D03*
%TO.N,unconnected-(H2-Pad1)_7*%
X52068109Y-101568109D03*
%TO.N,unconnected-(H2-Pad1)_5*%
X52068109Y-104431891D03*
%TO.N,unconnected-(H2-Pad1)*%
X53500000Y-100975000D03*
D15*
%TO.N,unconnected-(H2-Pad1)_2*%
X53500000Y-103000000D03*
D14*
%TO.N,unconnected-(H2-Pad1)_4*%
X53500000Y-105025000D03*
%TO.N,unconnected-(H2-Pad1)_6*%
X54931891Y-101568109D03*
%TO.N,unconnected-(H2-Pad1)_8*%
X54931891Y-104431891D03*
%TO.N,unconnected-(H2-Pad1)_3*%
X55525000Y-103000000D03*
%TD*%
D16*
%TO.P,R2,1*%
%TO.N,Net-(D1-GA)*%
X118430000Y-76887500D03*
%TO.P,R2,2*%
%TO.N,/GREEN*%
X126050000Y-76887500D03*
%TD*%
D10*
%TO.P,S2,1,Pin_1*%
%TO.N,/Srvo2_Sig*%
X87410000Y-64530000D03*
D11*
%TO.P,S2,2,Pin_2*%
%TO.N,+6V*%
X87410000Y-61990000D03*
%TO.P,S2,3,Pin_3*%
%TO.N,GND*%
X87410000Y-59450000D03*
%TD*%
D10*
%TO.P,J7,1,Pin_1*%
%TO.N,/RED1*%
X117890000Y-103960000D03*
D11*
%TO.P,J7,2,Pin_2*%
%TO.N,/BLK1*%
X120430000Y-103960000D03*
%TO.P,J7,3,Pin_3*%
%TO.N,GND*%
X122970000Y-103960000D03*
%TO.P,J7,4,Pin_4*%
%TO.N,VBUS*%
X125510000Y-103960000D03*
%TO.P,J7,5,Pin_5*%
%TO.N,/ENCA1*%
X128050000Y-103960000D03*
%TO.P,J7,6,Pin_6*%
%TO.N,/ENCB1*%
X130590000Y-103960000D03*
%TD*%
D17*
%TO.P,A2,1,GPIO0*%
%TO.N,/RED*%
X133130000Y-69610000D03*
D11*
%TO.P,A2,2,GPIO1*%
%TO.N,/GREEN*%
X130590000Y-69610000D03*
D10*
%TO.P,A2,3,GND*%
%TO.N,GND*%
X128050000Y-69610000D03*
D11*
%TO.P,A2,4,GPIO2*%
%TO.N,/BLUE*%
X125510000Y-69610000D03*
%TO.P,A2,5,GPIO3*%
%TO.N,/GPIO3*%
X122970000Y-69610000D03*
%TO.P,A2,6,GPIO4*%
%TO.N,/GPIO4*%
X120430000Y-69610000D03*
%TO.P,A2,7,GPIO5*%
%TO.N,/GPIO5*%
X117890000Y-69610000D03*
D10*
%TO.P,A2,8,GND*%
%TO.N,GND*%
X115350000Y-69610000D03*
D11*
%TO.P,A2,9,GPIO6*%
%TO.N,/ENCB2*%
X112810000Y-69610000D03*
%TO.P,A2,10,GPIO7*%
%TO.N,/ENCA2*%
X110270000Y-69610000D03*
%TO.P,A2,11,GPIO8*%
%TO.N,/GPIO8*%
X107730000Y-69610000D03*
%TO.P,A2,12,GPIO9*%
%TO.N,/GPIO9*%
X105190000Y-69610000D03*
D10*
%TO.P,A2,13,GND*%
%TO.N,GND*%
X102650000Y-69610000D03*
D11*
%TO.P,A2,14,GPIO10*%
%TO.N,/GPIO10*%
X100110000Y-69610000D03*
%TO.P,A2,15,GPIO11*%
%TO.N,/GPIO11*%
X97570000Y-69610000D03*
%TO.P,A2,16,GPIO12*%
%TO.N,/GPIO12*%
X95030000Y-69610000D03*
%TO.P,A2,17,GPIO13*%
%TO.N,/Srvo3_Sig*%
X92490000Y-69610000D03*
D10*
%TO.P,A2,18,GND*%
%TO.N,GND*%
X89950000Y-69610000D03*
D11*
%TO.P,A2,19,GPIO14*%
%TO.N,/Srvo2_Sig*%
X87410000Y-69610000D03*
%TO.P,A2,20,GPIO15*%
%TO.N,/Srvo1_Sig*%
X84870000Y-69610000D03*
%TO.P,A2,21,GPIO16*%
%TO.N,/PWM1*%
X84870000Y-87390000D03*
%TO.P,A2,22,GPIO17*%
%TO.N,/INA1*%
X87410000Y-87390000D03*
D10*
%TO.P,A2,23,GND*%
%TO.N,GND*%
X89950000Y-87390000D03*
D11*
%TO.P,A2,24,GPIO18*%
%TO.N,/INB1*%
X92490000Y-87390000D03*
%TO.P,A2,25,GPIO19*%
%TO.N,/INB2*%
X95030000Y-87390000D03*
%TO.P,A2,26,GPIO20*%
%TO.N,/INA2*%
X97570000Y-87390000D03*
%TO.P,A2,27,GPIO21*%
%TO.N,/PWM2*%
X100110000Y-87390000D03*
D10*
%TO.P,A2,28,GND*%
%TO.N,GND*%
X102650000Y-87390000D03*
D11*
%TO.P,A2,29,GPIO22*%
%TO.N,/GPIO22*%
X105190000Y-87390000D03*
%TO.P,A2,30,RUN*%
%TO.N,unconnected-(A2-RUN-Pad30)*%
X107730000Y-87390000D03*
%TO.P,A2,31,GPIO26_ADC0*%
%TO.N,/ENCA1*%
X110270000Y-87390000D03*
%TO.P,A2,32,GPIO27_ADC1*%
%TO.N,/ENCB1*%
X112810000Y-87390000D03*
D10*
%TO.P,A2,33,AGND*%
%TO.N,GND*%
X115350000Y-87390000D03*
D11*
%TO.P,A2,34,GPIO28_ADC2*%
%TO.N,/GPIO28*%
X117890000Y-87390000D03*
%TO.P,A2,35,ADC_VREF*%
%TO.N,unconnected-(A2-ADC_VREF-Pad35)*%
X120430000Y-87390000D03*
%TO.P,A2,36,3V3*%
%TO.N,+3V3*%
X122970000Y-87390000D03*
%TO.P,A2,37,3V3_EN*%
%TO.N,unconnected-(A2-3V3_EN-Pad37)*%
X125510000Y-87390000D03*
D10*
%TO.P,A2,38,GND*%
%TO.N,GND*%
X128050000Y-87390000D03*
D11*
%TO.P,A2,39,VSYS*%
%TO.N,5VIN*%
X130590000Y-87390000D03*
%TO.P,A2,40,VBUS*%
%TO.N,VBUS*%
X133130000Y-87390000D03*
%TD*%
D10*
%TO.P,J12,1,Pin_1*%
%TO.N,/GPIO3*%
X133130000Y-64530000D03*
D11*
%TO.P,J12,2,Pin_2*%
%TO.N,/GPIO4*%
X130590000Y-64530000D03*
%TO.P,J12,3,Pin_3*%
%TO.N,/GPIO5*%
X128050000Y-64530000D03*
%TO.P,J12,4,Pin_4*%
%TO.N,GND*%
X125510000Y-64530000D03*
%TO.P,J12,5,Pin_5*%
%TO.N,/GPIO8*%
X122970000Y-64530000D03*
%TO.P,J12,6,Pin_6*%
%TO.N,/GPIO9*%
X120430000Y-64530000D03*
%TO.P,J12,7,Pin_7*%
%TO.N,GND*%
X117890000Y-64530000D03*
%TO.P,J12,8,Pin_8*%
%TO.N,/GPIO10*%
X115350000Y-64530000D03*
%TO.P,J12,9,Pin_9*%
%TO.N,/GPIO11*%
X112810000Y-64530000D03*
%TO.P,J12,10,Pin_10*%
%TO.N,/GPIO12*%
X110270000Y-64530000D03*
%TD*%
D14*
%TO.P,H4,1,1*%
%TO.N,unconnected-(H4-Pad1)_2*%
X109475000Y-54000000D03*
%TO.N,unconnected-(H4-Pad1)_3*%
X110068109Y-52568109D03*
%TO.N,unconnected-(H4-Pad1)_4*%
X110068109Y-55431891D03*
%TO.N,unconnected-(H4-Pad1)_7*%
X111500000Y-51975000D03*
D15*
%TO.N,unconnected-(H4-Pad1)_8*%
X111500000Y-54000000D03*
D14*
%TO.N,unconnected-(H4-Pad1)_5*%
X111500000Y-56025000D03*
%TO.N,unconnected-(H4-Pad1)*%
X112931891Y-52568109D03*
%TO.N,unconnected-(H4-Pad1)_1*%
X112931891Y-55431891D03*
%TO.N,unconnected-(H4-Pad1)_6*%
X113525000Y-54000000D03*
%TD*%
D10*
%TO.P,J6,1,Pin_1*%
%TO.N,/Srvo6_Sig*%
X92490000Y-64530000D03*
D11*
%TO.P,J6,2,Pin_2*%
%TO.N,+6V*%
X92490000Y-61990000D03*
%TO.P,J6,3,Pin_3*%
%TO.N,GND*%
X92490000Y-59450000D03*
%TD*%
D10*
%TO.P,J10,1,Pin_1*%
%TO.N,/RED2*%
X117890000Y-60660000D03*
D11*
%TO.P,J10,2,Pin_2*%
X117890000Y-58120000D03*
%TO.P,J10,3,Pin_3*%
%TO.N,/BLK2*%
X120430000Y-60660000D03*
%TO.P,J10,4,Pin_4*%
X120430000Y-58120000D03*
%TD*%
D10*
%TO.P,J5,1,Pin_1*%
%TO.N,/Srvo5_Sig*%
X95030000Y-64530000D03*
D11*
%TO.P,J5,2,Pin_2*%
%TO.N,+6V*%
X95030000Y-61990000D03*
%TO.P,J5,3,Pin_3*%
%TO.N,GND*%
X95030000Y-59450000D03*
%TD*%
D14*
%TO.P,H3,1,1*%
%TO.N,unconnected-(H3-Pad1)_8*%
X109475000Y-103000000D03*
%TO.N,unconnected-(H3-Pad1)_6*%
X110068109Y-101568109D03*
%TO.N,unconnected-(H3-Pad1)_5*%
X110068109Y-104431891D03*
%TO.N,unconnected-(H3-Pad1)_4*%
X111500000Y-100975000D03*
D15*
%TO.N,unconnected-(H3-Pad1)_1*%
X111500000Y-103000000D03*
D14*
%TO.N,unconnected-(H3-Pad1)*%
X111500000Y-105025000D03*
%TO.N,unconnected-(H3-Pad1)_3*%
X112931891Y-101568109D03*
%TO.N,unconnected-(H3-Pad1)_7*%
X112931891Y-104431891D03*
%TO.N,unconnected-(H3-Pad1)_2*%
X113525000Y-103000000D03*
%TD*%
D10*
%TO.P,S1,1,Pin_1*%
%TO.N,/Srvo1_Sig*%
X84870000Y-64530000D03*
D11*
%TO.P,S1,2,Pin_2*%
%TO.N,+6V*%
X84870000Y-61990000D03*
%TO.P,S1,3,Pin_3*%
%TO.N,GND*%
X84870000Y-59450000D03*
%TD*%
D18*
%TO.N,+3V3*%
X96213000Y-92600000D03*
%TO.N,VBUS*%
X129600000Y-91350000D03*
X123700000Y-96450000D03*
%TO.N,/GPIO12*%
X105475000Y-71450000D03*
%TD*%
D19*
%TO.N,+3V3*%
X96213000Y-100547000D02*
X96213000Y-92600000D01*
X93760000Y-103000000D02*
X96213000Y-100547000D01*
%TO.N,/RED*%
X133130000Y-72995000D02*
X133130000Y-69610000D01*
X126050000Y-80075000D02*
X133130000Y-72995000D01*
%TO.N,/BLUE*%
X126050000Y-70150000D02*
X125510000Y-69610000D01*
X126050000Y-73700000D02*
X126050000Y-70150000D01*
%TO.N,/INA2*%
X95358000Y-89602000D02*
X95358000Y-96322000D01*
X95358000Y-96322000D02*
X93760000Y-97920000D01*
X97570000Y-87390000D02*
X95358000Y-89602000D01*
%TO.N,/Srvo1_Sig*%
X84870000Y-64530000D02*
X84870000Y-69610000D01*
%TO.N,/INB2*%
X95030000Y-87390000D02*
X95030000Y-94110000D01*
X95030000Y-94110000D02*
X93760000Y-95380000D01*
%TO.N,VBUS*%
X126800000Y-51750000D02*
X125510000Y-53040000D01*
X131600000Y-51750000D02*
X126800000Y-51750000D01*
X133130000Y-88070000D02*
X129850000Y-91350000D01*
X123700000Y-102150000D02*
X125510000Y-103960000D01*
X129850000Y-91350000D02*
X129600000Y-91350000D01*
X134350000Y-54500000D02*
X131600000Y-51750000D01*
X123700000Y-96450000D02*
X123700000Y-102150000D01*
X134350000Y-86170000D02*
X134350000Y-54500000D01*
X133130000Y-87390000D02*
X133130000Y-88070000D01*
X133130000Y-87390000D02*
X134350000Y-86170000D01*
%TO.N,/Srvo2_Sig*%
X87410000Y-64530000D02*
X87410000Y-69610000D01*
%TO.N,/INB1*%
X89700000Y-93860000D02*
X91220000Y-95380000D01*
X89700000Y-90180000D02*
X89700000Y-93860000D01*
X92490000Y-87390000D02*
X89700000Y-90180000D01*
%TO.N,/PWM1*%
X84870000Y-94110000D02*
X91220000Y-100460000D01*
X84870000Y-87390000D02*
X84870000Y-94110000D01*
%TO.N,/ENCB2*%
X121700000Y-65250000D02*
X120950000Y-66000000D01*
X130590000Y-53040000D02*
X130590000Y-55185000D01*
X121700000Y-64075000D02*
X121700000Y-65250000D01*
X130590000Y-55185000D02*
X121700000Y-64075000D01*
X114120000Y-68300000D02*
X112810000Y-69610000D01*
X119424999Y-66000000D02*
X117124999Y-68300000D01*
X117124999Y-68300000D02*
X114120000Y-68300000D01*
X120950000Y-66000000D02*
X119424999Y-66000000D01*
%TO.N,/Srvo3_Sig*%
X89950000Y-64530000D02*
X89950000Y-67070000D01*
X89950000Y-67070000D02*
X92490000Y-69610000D01*
%TO.N,/PWM2*%
X100110000Y-87390000D02*
X95686000Y-91814000D01*
X95686000Y-98534000D02*
X93760000Y-100460000D01*
X95686000Y-91814000D02*
X95686000Y-98534000D01*
%TO.N,/GREEN*%
X130590000Y-72347500D02*
X130590000Y-69610000D01*
X126050000Y-76887500D02*
X130590000Y-72347500D01*
%TO.N,/ENCA2*%
X122911138Y-62400000D02*
X120725000Y-62400000D01*
X119125000Y-65836137D02*
X116989137Y-67972000D01*
X116989137Y-67972000D02*
X111908000Y-67972000D01*
X120725000Y-62400000D02*
X119125000Y-64000000D01*
X111908000Y-67972000D02*
X110270000Y-69610000D01*
X128050000Y-57261138D02*
X122911138Y-62400000D01*
X128050000Y-53040000D02*
X128050000Y-57261138D01*
X119125000Y-64000000D02*
X119125000Y-65836137D01*
%TO.N,/INA1*%
X87410000Y-87390000D02*
X87410000Y-94110000D01*
X87410000Y-94110000D02*
X91220000Y-97920000D01*
%TO.N,/GPIO12*%
X110270000Y-64530000D02*
X106450000Y-68350000D01*
X106450000Y-68350000D02*
X106450000Y-70475000D01*
X106450000Y-70475000D02*
X105475000Y-71450000D01*
%TO.N,Net-(D1-RA)*%
X118430000Y-80075000D02*
X121700000Y-83345000D01*
X121700000Y-92530000D02*
X125510000Y-96340000D01*
X121700000Y-83345000D02*
X121700000Y-92530000D01*
%TO.N,Net-(D1-BA)*%
X126775000Y-91128000D02*
X131987000Y-96340000D01*
X126775000Y-86400000D02*
X126775000Y-91128000D01*
X124750000Y-80020000D02*
X124750000Y-84375000D01*
X118430000Y-73700000D02*
X124750000Y-80020000D01*
X124750000Y-84375000D02*
X126775000Y-86400000D01*
%TO.N,Net-(D1-GA)*%
X124225000Y-82682500D02*
X124225000Y-90737000D01*
X124225000Y-90737000D02*
X129828000Y-96340000D01*
X118430000Y-76887500D02*
X124225000Y-82682500D01*
D20*
%TO.N,/BLK1*%
X120430000Y-96340000D02*
X120430000Y-103960000D01*
%TO.N,/RED1*%
X117890000Y-96340000D02*
X117890000Y-103960000D01*
%TO.N,/RED2*%
X117890000Y-60660000D02*
X117890000Y-53040000D01*
%TO.N,/BLK2*%
X120430000Y-60660000D02*
X120430000Y-53040000D01*
%TD*%
%TA.AperFunction,Conductor*%
%TO.N,GND*%
G36*
X58202591Y-51020185D02*
G01*
X58248346Y-51072989D01*
X58258290Y-51142147D01*
X58229265Y-51205703D01*
X58202591Y-51228815D01*
X58098493Y-51295714D01*
X58098487Y-51295718D01*
X57936275Y-51436275D01*
X57795720Y-51598485D01*
X57679679Y-51779048D01*
X57679672Y-51779061D01*
X57590517Y-51974284D01*
X57530047Y-52180225D01*
X57530044Y-52180235D01*
X57499500Y-52392682D01*
X57499500Y-55607317D01*
X57530044Y-55819764D01*
X57530047Y-55819774D01*
X57590517Y-56025715D01*
X57679672Y-56220938D01*
X57679679Y-56220951D01*
X57795720Y-56401514D01*
X57936275Y-56563724D01*
X58060277Y-56671172D01*
X58098487Y-56704281D01*
X58227531Y-56787211D01*
X58279048Y-56820320D01*
X58279061Y-56820327D01*
X58474284Y-56909482D01*
X58474288Y-56909483D01*
X58474290Y-56909484D01*
X58680231Y-56969954D01*
X58680232Y-56969954D01*
X58680235Y-56969955D01*
X58743584Y-56979062D01*
X58892682Y-57000500D01*
X58934108Y-57000500D01*
X76343682Y-57000500D01*
X76410721Y-57020185D01*
X76456476Y-57072989D01*
X76466420Y-57142147D01*
X76437395Y-57205703D01*
X76419169Y-57222875D01*
X76328148Y-57292718D01*
X76142718Y-57478148D01*
X75983075Y-57686196D01*
X75851958Y-57913299D01*
X75851953Y-57913309D01*
X75751605Y-58155571D01*
X75751602Y-58155581D01*
X75683731Y-58408883D01*
X75683730Y-58408885D01*
X75649500Y-58668872D01*
X75649500Y-58931127D01*
X75665138Y-59049901D01*
X75683730Y-59191116D01*
X75748831Y-59434076D01*
X75751602Y-59444418D01*
X75751605Y-59444428D01*
X75851953Y-59686690D01*
X75851958Y-59686700D01*
X75983075Y-59913803D01*
X76142718Y-60121851D01*
X76142726Y-60121860D01*
X76328140Y-60307274D01*
X76328148Y-60307281D01*
X76536196Y-60466924D01*
X76763299Y-60598041D01*
X76763309Y-60598046D01*
X77005571Y-60698394D01*
X77005581Y-60698398D01*
X77258884Y-60766270D01*
X77518880Y-60800500D01*
X77518887Y-60800500D01*
X77781113Y-60800500D01*
X77781120Y-60800500D01*
X78041116Y-60766270D01*
X78294419Y-60698398D01*
X78509680Y-60609234D01*
X78536690Y-60598046D01*
X78536691Y-60598045D01*
X78536697Y-60598043D01*
X78763803Y-60466924D01*
X78971851Y-60307282D01*
X78971855Y-60307277D01*
X78971860Y-60307274D01*
X79157274Y-60121860D01*
X79157277Y-60121855D01*
X79157282Y-60121851D01*
X79316924Y-59913803D01*
X79448043Y-59686697D01*
X79548398Y-59444419D01*
X79616270Y-59191116D01*
X79650500Y-58931120D01*
X79650500Y-58668880D01*
X79616270Y-58408884D01*
X79548398Y-58155581D01*
X79495294Y-58027376D01*
X79448046Y-57913309D01*
X79448041Y-57913299D01*
X79316924Y-57686196D01*
X79157281Y-57478148D01*
X79157274Y-57478140D01*
X78971860Y-57292726D01*
X78971851Y-57292718D01*
X78880831Y-57222875D01*
X78839628Y-57166447D01*
X78835474Y-57096701D01*
X78869687Y-57035781D01*
X78931405Y-57003029D01*
X78956318Y-57000500D01*
X106107317Y-57000500D01*
X106107318Y-57000500D01*
X106277851Y-56975980D01*
X106319764Y-56969955D01*
X106319765Y-56969954D01*
X106319769Y-56969954D01*
X106525710Y-56909484D01*
X106525713Y-56909482D01*
X106525715Y-56909482D01*
X106720938Y-56820327D01*
X106720944Y-56820323D01*
X106720950Y-56820321D01*
X106901513Y-56704281D01*
X107063724Y-56563724D01*
X107204281Y-56401513D01*
X107320321Y-56220950D01*
X107320323Y-56220944D01*
X107320327Y-56220938D01*
X107409482Y-56025715D01*
X107409482Y-56025713D01*
X107409484Y-56025710D01*
X107469954Y-55819769D01*
X107500500Y-55607318D01*
X107500500Y-55500000D01*
X107500500Y-55434108D01*
X107500500Y-52434108D01*
X107500500Y-52392682D01*
X107478107Y-52236938D01*
X107469955Y-52180235D01*
X107469952Y-52180225D01*
X107464075Y-52160208D01*
X107409484Y-51974290D01*
X107409483Y-51974288D01*
X107409482Y-51974284D01*
X107320327Y-51779061D01*
X107320320Y-51779048D01*
X107262771Y-51689500D01*
X107204281Y-51598487D01*
X107171172Y-51560277D01*
X107063724Y-51436275D01*
X106901512Y-51295718D01*
X106901506Y-51295714D01*
X106797409Y-51228815D01*
X106751654Y-51176012D01*
X106741710Y-51106853D01*
X106770735Y-51043297D01*
X106829513Y-51005523D01*
X106864448Y-51000500D01*
X109827648Y-51000500D01*
X109894687Y-51020185D01*
X109940442Y-51072989D01*
X109950386Y-51142147D01*
X109921361Y-51205703D01*
X109893620Y-51229494D01*
X109645045Y-51385684D01*
X109363997Y-51609811D01*
X109109811Y-51863997D01*
X108885684Y-52145045D01*
X108694432Y-52449420D01*
X108538465Y-52773288D01*
X108419741Y-53112580D01*
X108419737Y-53112592D01*
X108339748Y-53463048D01*
X108339746Y-53463064D01*
X108299500Y-53820259D01*
X108299500Y-54179740D01*
X108339746Y-54536935D01*
X108339748Y-54536951D01*
X108419737Y-54887407D01*
X108419741Y-54887419D01*
X108538465Y-55226711D01*
X108694432Y-55550579D01*
X108694434Y-55550582D01*
X108885685Y-55854956D01*
X109109812Y-56136003D01*
X109363997Y-56390188D01*
X109645044Y-56614315D01*
X109949418Y-56805566D01*
X110273292Y-56961536D01*
X110486513Y-57036145D01*
X110612580Y-57080258D01*
X110612592Y-57080262D01*
X110963052Y-57160252D01*
X111320260Y-57200499D01*
X111320261Y-57200500D01*
X111320264Y-57200500D01*
X111679739Y-57200500D01*
X111679739Y-57200499D01*
X112036948Y-57160252D01*
X112387408Y-57080262D01*
X112726708Y-56961536D01*
X113050582Y-56805566D01*
X113354956Y-56614315D01*
X113636003Y-56390188D01*
X113890188Y-56136003D01*
X114114315Y-55854956D01*
X114305566Y-55550582D01*
X114461536Y-55226708D01*
X114580262Y-54887408D01*
X114660252Y-54536948D01*
X114700500Y-54179736D01*
X114700500Y-53820264D01*
X114660252Y-53463052D01*
X114580262Y-53112592D01*
X114579101Y-53109275D01*
X114550703Y-53028119D01*
X114461536Y-52773292D01*
X114305566Y-52449418D01*
X114114315Y-52145044D01*
X113890188Y-51863997D01*
X113636003Y-51609812D01*
X113621799Y-51598485D01*
X113418395Y-51436276D01*
X113354956Y-51385685D01*
X113154643Y-51259820D01*
X113106380Y-51229494D01*
X113060089Y-51177159D01*
X113049441Y-51108106D01*
X113077816Y-51044257D01*
X113136206Y-51005885D01*
X113172352Y-51000500D01*
X126434397Y-51000500D01*
X126501436Y-51020185D01*
X126547191Y-51072989D01*
X126557135Y-51142147D01*
X126528110Y-51205703D01*
X126496397Y-51231887D01*
X126431287Y-51269477D01*
X126431282Y-51269481D01*
X126319478Y-51381286D01*
X125994522Y-51706241D01*
X125933199Y-51739726D01*
X125868523Y-51736491D01*
X125826245Y-51722754D01*
X125686272Y-51700584D01*
X125616287Y-51689500D01*
X125403713Y-51689500D01*
X125355042Y-51697208D01*
X125193760Y-51722753D01*
X124991585Y-51788444D01*
X124802179Y-51884951D01*
X124630213Y-52009890D01*
X124479890Y-52160213D01*
X124354949Y-52332182D01*
X124350202Y-52341499D01*
X124302227Y-52392293D01*
X124234405Y-52409087D01*
X124168271Y-52386548D01*
X124129234Y-52341495D01*
X124124626Y-52332452D01*
X124085270Y-52278282D01*
X124085269Y-52278282D01*
X123452962Y-52910590D01*
X123435925Y-52847007D01*
X123370099Y-52732993D01*
X123277007Y-52639901D01*
X123162993Y-52574075D01*
X123099409Y-52557037D01*
X123731716Y-51924728D01*
X123677550Y-51885375D01*
X123488217Y-51788904D01*
X123286129Y-51723242D01*
X123076246Y-51690000D01*
X122863754Y-51690000D01*
X122653872Y-51723242D01*
X122653869Y-51723242D01*
X122451782Y-51788904D01*
X122262439Y-51885380D01*
X122208282Y-51924727D01*
X122208282Y-51924728D01*
X122840591Y-52557037D01*
X122777007Y-52574075D01*
X122662993Y-52639901D01*
X122569901Y-52732993D01*
X122504075Y-52847007D01*
X122487037Y-52910591D01*
X121854728Y-52278282D01*
X121854727Y-52278282D01*
X121815380Y-52332440D01*
X121815376Y-52332446D01*
X121810760Y-52341505D01*
X121762781Y-52392297D01*
X121694959Y-52409087D01*
X121628826Y-52386543D01*
X121589794Y-52341493D01*
X121585051Y-52332184D01*
X121585049Y-52332181D01*
X121585048Y-52332179D01*
X121460109Y-52160213D01*
X121309786Y-52009890D01*
X121137820Y-51884951D01*
X120948414Y-51788444D01*
X120948413Y-51788443D01*
X120948412Y-51788443D01*
X120746243Y-51722754D01*
X120746241Y-51722753D01*
X120746240Y-51722753D01*
X120584957Y-51697208D01*
X120536287Y-51689500D01*
X120323713Y-51689500D01*
X120275042Y-51697208D01*
X120113760Y-51722753D01*
X119911585Y-51788444D01*
X119722179Y-51884951D01*
X119550215Y-52009889D01*
X119436673Y-52123431D01*
X119375350Y-52156915D01*
X119305658Y-52151931D01*
X119249725Y-52110059D01*
X119232810Y-52079082D01*
X119183797Y-51947671D01*
X119183793Y-51947664D01*
X119097547Y-51832455D01*
X119097544Y-51832452D01*
X118982335Y-51746206D01*
X118982328Y-51746202D01*
X118847482Y-51695908D01*
X118847483Y-51695908D01*
X118787883Y-51689501D01*
X118787881Y-51689500D01*
X118787873Y-51689500D01*
X118787864Y-51689500D01*
X116992129Y-51689500D01*
X116992123Y-51689501D01*
X116932516Y-51695908D01*
X116797671Y-51746202D01*
X116797664Y-51746206D01*
X116682455Y-51832452D01*
X116682452Y-51832455D01*
X116596206Y-51947664D01*
X116596202Y-51947671D01*
X116545908Y-52082517D01*
X116539501Y-52142116D01*
X116539500Y-52142135D01*
X116539500Y-53937870D01*
X116539501Y-53937876D01*
X116545908Y-53997483D01*
X116596202Y-54132328D01*
X116596206Y-54132335D01*
X116682452Y-54247544D01*
X116682455Y-54247547D01*
X116797664Y-54333793D01*
X116797671Y-54333797D01*
X116932516Y-54384091D01*
X116978757Y-54389063D01*
X117043307Y-54415801D01*
X117083155Y-54473194D01*
X117089500Y-54512352D01*
X117089500Y-56969106D01*
X117069815Y-57036145D01*
X117038387Y-57069422D01*
X117010208Y-57089896D01*
X117010206Y-57089898D01*
X117010205Y-57089898D01*
X116859890Y-57240213D01*
X116734951Y-57412179D01*
X116638444Y-57601585D01*
X116572753Y-57803760D01*
X116539500Y-58013713D01*
X116539500Y-58226286D01*
X116572753Y-58436239D01*
X116638444Y-58638414D01*
X116734951Y-58827820D01*
X116859890Y-58999786D01*
X116973430Y-59113326D01*
X117006915Y-59174649D01*
X117001931Y-59244341D01*
X116960059Y-59300274D01*
X116929083Y-59317189D01*
X116797669Y-59366203D01*
X116797664Y-59366206D01*
X116682455Y-59452452D01*
X116682452Y-59452455D01*
X116596206Y-59567664D01*
X116596202Y-59567671D01*
X116545908Y-59702517D01*
X116539501Y-59762116D01*
X116539500Y-59762135D01*
X116539500Y-61557870D01*
X116539501Y-61557876D01*
X116545908Y-61617483D01*
X116596202Y-61752328D01*
X116596206Y-61752335D01*
X116682452Y-61867544D01*
X116682455Y-61867547D01*
X116797664Y-61953793D01*
X116797671Y-61953797D01*
X116932517Y-62004091D01*
X116932516Y-62004091D01*
X116939444Y-62004835D01*
X116992127Y-62010500D01*
X118787872Y-62010499D01*
X118847483Y-62004091D01*
X118982331Y-61953796D01*
X119097546Y-61867546D01*
X119183796Y-61752331D01*
X119232810Y-61620916D01*
X119274681Y-61564984D01*
X119340145Y-61540566D01*
X119408418Y-61555417D01*
X119436673Y-61576569D01*
X119550213Y-61690109D01*
X119722179Y-61815048D01*
X119722181Y-61815049D01*
X119722184Y-61815051D01*
X119911588Y-61911557D01*
X120060762Y-61960026D01*
X120118437Y-61999463D01*
X120145635Y-62063822D01*
X120133720Y-62132668D01*
X120110124Y-62165638D01*
X118847838Y-63427923D01*
X118786515Y-63461408D01*
X118716823Y-63456424D01*
X118687272Y-63440560D01*
X118597557Y-63375379D01*
X118408217Y-63278904D01*
X118206129Y-63213242D01*
X117996246Y-63180000D01*
X117783754Y-63180000D01*
X117573872Y-63213242D01*
X117573869Y-63213242D01*
X117371782Y-63278904D01*
X117182439Y-63375380D01*
X117128282Y-63414727D01*
X117128282Y-63414728D01*
X117760591Y-64047037D01*
X117697007Y-64064075D01*
X117582993Y-64129901D01*
X117489901Y-64222993D01*
X117424075Y-64337007D01*
X117407037Y-64400591D01*
X116774728Y-63768282D01*
X116774727Y-63768282D01*
X116735380Y-63822440D01*
X116735376Y-63822446D01*
X116730760Y-63831505D01*
X116682781Y-63882297D01*
X116614959Y-63899087D01*
X116548826Y-63876543D01*
X116509794Y-63831493D01*
X116505051Y-63822184D01*
X116505049Y-63822181D01*
X116505048Y-63822179D01*
X116380109Y-63650213D01*
X116229786Y-63499890D01*
X116057820Y-63374951D01*
X115868414Y-63278444D01*
X115868413Y-63278443D01*
X115868412Y-63278443D01*
X115666243Y-63212754D01*
X115666241Y-63212753D01*
X115666240Y-63212753D01*
X115504833Y-63187189D01*
X115456287Y-63179500D01*
X115243713Y-63179500D01*
X115195167Y-63187189D01*
X115033760Y-63212753D01*
X114831585Y-63278444D01*
X114642179Y-63374951D01*
X114470213Y-63499890D01*
X114319890Y-63650213D01*
X114194949Y-63822182D01*
X114190484Y-63830946D01*
X114142509Y-63881742D01*
X114074688Y-63898536D01*
X114008553Y-63875998D01*
X113969516Y-63830946D01*
X113965050Y-63822182D01*
X113840109Y-63650213D01*
X113689786Y-63499890D01*
X113517820Y-63374951D01*
X113328414Y-63278444D01*
X113328413Y-63278443D01*
X113328412Y-63278443D01*
X113126243Y-63212754D01*
X113126241Y-63212753D01*
X113126240Y-63212753D01*
X112964833Y-63187189D01*
X112916287Y-63179500D01*
X112703713Y-63179500D01*
X112655167Y-63187189D01*
X112493760Y-63212753D01*
X112291585Y-63278444D01*
X112102179Y-63374951D01*
X111930213Y-63499890D01*
X111779890Y-63650213D01*
X111654949Y-63822182D01*
X111650484Y-63830946D01*
X111602509Y-63881742D01*
X111534688Y-63898536D01*
X111468553Y-63875998D01*
X111429516Y-63830946D01*
X111425050Y-63822182D01*
X111300109Y-63650213D01*
X111149786Y-63499890D01*
X110977820Y-63374951D01*
X110788414Y-63278444D01*
X110788413Y-63278443D01*
X110788412Y-63278443D01*
X110586243Y-63212754D01*
X110586241Y-63212753D01*
X110586240Y-63212753D01*
X110424833Y-63187189D01*
X110376287Y-63179500D01*
X110163713Y-63179500D01*
X110115167Y-63187189D01*
X109953760Y-63212753D01*
X109751585Y-63278444D01*
X109562179Y-63374951D01*
X109390213Y-63499890D01*
X109239890Y-63650213D01*
X109114951Y-63822179D01*
X109018444Y-64011585D01*
X108952753Y-64213760D01*
X108919500Y-64423713D01*
X108919500Y-64636286D01*
X108952754Y-64846244D01*
X108952754Y-64846247D01*
X108966491Y-64888523D01*
X108968486Y-64958364D01*
X108936241Y-65014522D01*
X106081286Y-67869478D01*
X105969481Y-67981282D01*
X105969480Y-67981284D01*
X105929197Y-68051057D01*
X105916272Y-68073443D01*
X105890423Y-68118213D01*
X105850451Y-68267390D01*
X105814085Y-68327051D01*
X105751238Y-68357579D01*
X105692359Y-68353227D01*
X105506243Y-68292754D01*
X105506241Y-68292753D01*
X105506240Y-68292753D01*
X105344957Y-68267208D01*
X105296287Y-68259500D01*
X105083713Y-68259500D01*
X105035042Y-68267208D01*
X104873760Y-68292753D01*
X104671585Y-68358444D01*
X104482179Y-68454951D01*
X104310215Y-68579889D01*
X104196285Y-68693819D01*
X104134962Y-68727303D01*
X104065270Y-68722319D01*
X104009337Y-68680447D01*
X103992422Y-68649470D01*
X103943354Y-68517913D01*
X103943350Y-68517906D01*
X103857190Y-68402812D01*
X103857187Y-68402809D01*
X103742093Y-68316649D01*
X103742086Y-68316645D01*
X103607379Y-68266403D01*
X103607372Y-68266401D01*
X103547844Y-68260000D01*
X102900000Y-68260000D01*
X102900000Y-69176988D01*
X102842993Y-69144075D01*
X102715826Y-69110000D01*
X102584174Y-69110000D01*
X102457007Y-69144075D01*
X102400000Y-69176988D01*
X102400000Y-68260000D01*
X101752155Y-68260000D01*
X101692627Y-68266401D01*
X101692620Y-68266403D01*
X101557913Y-68316645D01*
X101557906Y-68316649D01*
X101442812Y-68402809D01*
X101442809Y-68402812D01*
X101356649Y-68517906D01*
X101356646Y-68517912D01*
X101307577Y-68649471D01*
X101265705Y-68705404D01*
X101200241Y-68729821D01*
X101131968Y-68714969D01*
X101103714Y-68693818D01*
X100989786Y-68579890D01*
X100817820Y-68454951D01*
X100628414Y-68358444D01*
X100628413Y-68358443D01*
X100628412Y-68358443D01*
X100426243Y-68292754D01*
X100426241Y-68292753D01*
X100426240Y-68292753D01*
X100264957Y-68267208D01*
X100216287Y-68259500D01*
X100003713Y-68259500D01*
X99955042Y-68267208D01*
X99793760Y-68292753D01*
X99591585Y-68358444D01*
X99402179Y-68454951D01*
X99230213Y-68579890D01*
X99079890Y-68730213D01*
X98954949Y-68902182D01*
X98950484Y-68910946D01*
X98902509Y-68961742D01*
X98834688Y-68978536D01*
X98768553Y-68955998D01*
X98729516Y-68910946D01*
X98725050Y-68902182D01*
X98600109Y-68730213D01*
X98449786Y-68579890D01*
X98277820Y-68454951D01*
X98088414Y-68358444D01*
X98088413Y-68358443D01*
X98088412Y-68358443D01*
X97886243Y-68292754D01*
X97886241Y-68292753D01*
X97886240Y-68292753D01*
X97724957Y-68267208D01*
X97676287Y-68259500D01*
X97463713Y-68259500D01*
X97415042Y-68267208D01*
X97253760Y-68292753D01*
X97051585Y-68358444D01*
X96862179Y-68454951D01*
X96690213Y-68579890D01*
X96539890Y-68730213D01*
X96414949Y-68902182D01*
X96410484Y-68910946D01*
X96362509Y-68961742D01*
X96294688Y-68978536D01*
X96228553Y-68955998D01*
X96189516Y-68910946D01*
X96185050Y-68902182D01*
X96060109Y-68730213D01*
X95909786Y-68579890D01*
X95737820Y-68454951D01*
X95548414Y-68358444D01*
X95548413Y-68358443D01*
X95548412Y-68358443D01*
X95346243Y-68292754D01*
X95346241Y-68292753D01*
X95346240Y-68292753D01*
X95184957Y-68267208D01*
X95136287Y-68259500D01*
X94923713Y-68259500D01*
X94875042Y-68267208D01*
X94713760Y-68292753D01*
X94511585Y-68358444D01*
X94322179Y-68454951D01*
X94150213Y-68579890D01*
X93999890Y-68730213D01*
X93874949Y-68902182D01*
X93870484Y-68910946D01*
X93822509Y-68961742D01*
X93754688Y-68978536D01*
X93688553Y-68955998D01*
X93649516Y-68910946D01*
X93645050Y-68902182D01*
X93520109Y-68730213D01*
X93369786Y-68579890D01*
X93197820Y-68454951D01*
X93008414Y-68358444D01*
X93008413Y-68358443D01*
X93008412Y-68358443D01*
X92806243Y-68292754D01*
X92806241Y-68292753D01*
X92806240Y-68292753D01*
X92644957Y-68267208D01*
X92596287Y-68259500D01*
X92383713Y-68259500D01*
X92375979Y-68260725D01*
X92173757Y-68292753D01*
X92131473Y-68306492D01*
X92061632Y-68308486D01*
X92005476Y-68276241D01*
X90586819Y-66857584D01*
X90553334Y-66796261D01*
X90550500Y-66769903D01*
X90550500Y-66004499D01*
X90570185Y-65937460D01*
X90622989Y-65891705D01*
X90674500Y-65880499D01*
X90847871Y-65880499D01*
X90847872Y-65880499D01*
X90907483Y-65874091D01*
X91042331Y-65823796D01*
X91145690Y-65746421D01*
X91211152Y-65722004D01*
X91279425Y-65736855D01*
X91294303Y-65746416D01*
X91379275Y-65810026D01*
X91397668Y-65823795D01*
X91397671Y-65823797D01*
X91532517Y-65874091D01*
X91532516Y-65874091D01*
X91539444Y-65874835D01*
X91592127Y-65880500D01*
X93387872Y-65880499D01*
X93447483Y-65874091D01*
X93582331Y-65823796D01*
X93685690Y-65746421D01*
X93751152Y-65722004D01*
X93819425Y-65736855D01*
X93834303Y-65746416D01*
X93919275Y-65810026D01*
X93937668Y-65823795D01*
X93937671Y-65823797D01*
X94072517Y-65874091D01*
X94072516Y-65874091D01*
X94079444Y-65874835D01*
X94132127Y-65880500D01*
X95927872Y-65880499D01*
X95987483Y-65874091D01*
X96122331Y-65823796D01*
X96225690Y-65746421D01*
X96291152Y-65722004D01*
X96359425Y-65736855D01*
X96374303Y-65746416D01*
X96459275Y-65810026D01*
X96477668Y-65823795D01*
X96477671Y-65823797D01*
X96612517Y-65874091D01*
X96612516Y-65874091D01*
X96619444Y-65874835D01*
X96672127Y-65880500D01*
X98467872Y-65880499D01*
X98527483Y-65874091D01*
X98662331Y-65823796D01*
X98777546Y-65737546D01*
X98863796Y-65622331D01*
X98914091Y-65487483D01*
X98920500Y-65427873D01*
X98920499Y-63632135D01*
X101299500Y-63632135D01*
X101299500Y-65427870D01*
X101299501Y-65427876D01*
X101305908Y-65487483D01*
X101356202Y-65622328D01*
X101356206Y-65622335D01*
X101442452Y-65737544D01*
X101442455Y-65737547D01*
X101557664Y-65823793D01*
X101557671Y-65823797D01*
X101692517Y-65874091D01*
X101692516Y-65874091D01*
X101699444Y-65874835D01*
X101752127Y-65880500D01*
X103547872Y-65880499D01*
X103607483Y-65874091D01*
X103742331Y-65823796D01*
X103857546Y-65737546D01*
X103943796Y-65622331D01*
X103994091Y-65487483D01*
X104000500Y-65427873D01*
X104000499Y-65403979D01*
X104003330Y-65390963D01*
X104013940Y-65371525D01*
X104020179Y-65350275D01*
X104036803Y-65329643D01*
X104036808Y-65329636D01*
X104036811Y-65329634D01*
X104036818Y-65329626D01*
X104707037Y-64659408D01*
X104724075Y-64722993D01*
X104789901Y-64837007D01*
X104882993Y-64930099D01*
X104997007Y-64995925D01*
X105060590Y-65012962D01*
X104428282Y-65645269D01*
X104428282Y-65645270D01*
X104482449Y-65684624D01*
X104671782Y-65781095D01*
X104873870Y-65846757D01*
X105083754Y-65880000D01*
X105296246Y-65880000D01*
X105506127Y-65846757D01*
X105506130Y-65846757D01*
X105708217Y-65781095D01*
X105897554Y-65684622D01*
X105951716Y-65645270D01*
X105951717Y-65645270D01*
X105319408Y-65012962D01*
X105382993Y-64995925D01*
X105497007Y-64930099D01*
X105590099Y-64837007D01*
X105655925Y-64722993D01*
X105672962Y-64659409D01*
X106305270Y-65291717D01*
X106305270Y-65291716D01*
X106344622Y-65237554D01*
X106441095Y-65048217D01*
X106506757Y-64846130D01*
X106506757Y-64846127D01*
X106540000Y-64636246D01*
X106540000Y-64423753D01*
X106506757Y-64213872D01*
X106506757Y-64213869D01*
X106441095Y-64011782D01*
X106344624Y-63822449D01*
X106305270Y-63768282D01*
X106305269Y-63768282D01*
X105672962Y-64400590D01*
X105655925Y-64337007D01*
X105590099Y-64222993D01*
X105497007Y-64129901D01*
X105382993Y-64064075D01*
X105319409Y-64047037D01*
X105951716Y-63414728D01*
X105897550Y-63375375D01*
X105708217Y-63278904D01*
X105506129Y-63213242D01*
X105296246Y-63180000D01*
X105083754Y-63180000D01*
X104873872Y-63213242D01*
X104873869Y-63213242D01*
X104671782Y-63278904D01*
X104482439Y-63375380D01*
X104428282Y-63414727D01*
X104428282Y-63414728D01*
X105060591Y-64047037D01*
X104997007Y-64064075D01*
X104882993Y-64129901D01*
X104789901Y-64222993D01*
X104724075Y-64337007D01*
X104707037Y-64400591D01*
X104036818Y-63730372D01*
X104003333Y-63669049D01*
X104003330Y-63669036D01*
X104000499Y-63656015D01*
X104000499Y-63632128D01*
X103994091Y-63572517D01*
X103965926Y-63497002D01*
X103943798Y-63437673D01*
X103943793Y-63437664D01*
X103857547Y-63322455D01*
X103857544Y-63322452D01*
X103742335Y-63236206D01*
X103742328Y-63236202D01*
X103607482Y-63185908D01*
X103607483Y-63185908D01*
X103547883Y-63179501D01*
X103547881Y-63179500D01*
X103547873Y-63179500D01*
X103547864Y-63179500D01*
X101752129Y-63179500D01*
X101752123Y-63179501D01*
X101692516Y-63185908D01*
X101557671Y-63236202D01*
X101557664Y-63236206D01*
X101442455Y-63322452D01*
X101442452Y-63322455D01*
X101356206Y-63437664D01*
X101356202Y-63437671D01*
X101305908Y-63572517D01*
X101299501Y-63632116D01*
X101299500Y-63632135D01*
X98920499Y-63632135D01*
X98920499Y-63632128D01*
X98914091Y-63572517D01*
X98912810Y-63569083D01*
X98863797Y-63437671D01*
X98863793Y-63437664D01*
X98777547Y-63322455D01*
X98777544Y-63322452D01*
X98662335Y-63236206D01*
X98662328Y-63236202D01*
X98530917Y-63187189D01*
X98474983Y-63145318D01*
X98450566Y-63079853D01*
X98465418Y-63011580D01*
X98486563Y-62983332D01*
X98600104Y-62869792D01*
X98725051Y-62697816D01*
X98821557Y-62508412D01*
X98887246Y-62306243D01*
X98920500Y-62096287D01*
X98920500Y-61883713D01*
X98887246Y-61673757D01*
X98821557Y-61471588D01*
X98725051Y-61282184D01*
X98725049Y-61282181D01*
X98725048Y-61282179D01*
X98600109Y-61110213D01*
X98449786Y-60959890D01*
X98277817Y-60834949D01*
X98268504Y-60830204D01*
X98217707Y-60782230D01*
X98200912Y-60714409D01*
X98223449Y-60648274D01*
X98268507Y-60609232D01*
X98277555Y-60604622D01*
X98331716Y-60565270D01*
X98331717Y-60565270D01*
X97699408Y-59932962D01*
X97762993Y-59915925D01*
X97877007Y-59850099D01*
X97970099Y-59757007D01*
X98035925Y-59642993D01*
X98052962Y-59579409D01*
X98685270Y-60211717D01*
X98685270Y-60211716D01*
X98724622Y-60157554D01*
X98821095Y-59968217D01*
X98886757Y-59766130D01*
X98886757Y-59766127D01*
X98920000Y-59556246D01*
X98920000Y-59343753D01*
X98886757Y-59133872D01*
X98886757Y-59133869D01*
X98821095Y-58931782D01*
X98724624Y-58742449D01*
X98685270Y-58688282D01*
X98685269Y-58688282D01*
X98052962Y-59320590D01*
X98035925Y-59257007D01*
X97970099Y-59142993D01*
X97877007Y-59049901D01*
X97762993Y-58984075D01*
X97699409Y-58967037D01*
X98331716Y-58334728D01*
X98277550Y-58295375D01*
X98088217Y-58198904D01*
X97886129Y-58133242D01*
X97676246Y-58100000D01*
X97463754Y-58100000D01*
X97253872Y-58133242D01*
X97253869Y-58133242D01*
X97051782Y-58198904D01*
X96862439Y-58295380D01*
X96808282Y-58334727D01*
X96808282Y-58334728D01*
X97440591Y-58967037D01*
X97377007Y-58984075D01*
X97262993Y-59049901D01*
X97169901Y-59142993D01*
X97104075Y-59257007D01*
X97087037Y-59320591D01*
X96454728Y-58688282D01*
X96454727Y-58688282D01*
X96415380Y-58742440D01*
X96410483Y-58752051D01*
X96362506Y-58802845D01*
X96294684Y-58819638D01*
X96228550Y-58797098D01*
X96189516Y-58752048D01*
X96184626Y-58742452D01*
X96145270Y-58688282D01*
X96145269Y-58688282D01*
X95512962Y-59320590D01*
X95495925Y-59257007D01*
X95430099Y-59142993D01*
X95337007Y-59049901D01*
X95222993Y-58984075D01*
X95159409Y-58967037D01*
X95791716Y-58334728D01*
X95737550Y-58295375D01*
X95548217Y-58198904D01*
X95346129Y-58133242D01*
X95136246Y-58100000D01*
X94923754Y-58100000D01*
X94713872Y-58133242D01*
X94713869Y-58133242D01*
X94511782Y-58198904D01*
X94322439Y-58295380D01*
X94268282Y-58334727D01*
X94268282Y-58334728D01*
X94900591Y-58967037D01*
X94837007Y-58984075D01*
X94722993Y-59049901D01*
X94629901Y-59142993D01*
X94564075Y-59257007D01*
X94547037Y-59320591D01*
X93914728Y-58688282D01*
X93914727Y-58688282D01*
X93875380Y-58742440D01*
X93870483Y-58752051D01*
X93822506Y-58802845D01*
X93754684Y-58819638D01*
X93688550Y-58797098D01*
X93649516Y-58752048D01*
X93644626Y-58742452D01*
X93605270Y-58688282D01*
X93605269Y-58688282D01*
X92972962Y-59320590D01*
X92955925Y-59257007D01*
X92890099Y-59142993D01*
X92797007Y-59049901D01*
X92682993Y-58984075D01*
X92619409Y-58967037D01*
X93251716Y-58334728D01*
X93197550Y-58295375D01*
X93008217Y-58198904D01*
X92806129Y-58133242D01*
X92596246Y-58100000D01*
X92383754Y-58100000D01*
X92173872Y-58133242D01*
X92173869Y-58133242D01*
X91971782Y-58198904D01*
X91782439Y-58295380D01*
X91728282Y-58334727D01*
X91728282Y-58334728D01*
X92360591Y-58967037D01*
X92297007Y-58984075D01*
X92182993Y-59049901D01*
X92089901Y-59142993D01*
X92024075Y-59257007D01*
X92007037Y-59320591D01*
X91374728Y-58688282D01*
X91374727Y-58688282D01*
X91335380Y-58742440D01*
X91330483Y-58752051D01*
X91282506Y-58802845D01*
X91214684Y-58819638D01*
X91148550Y-58797098D01*
X91109516Y-58752048D01*
X91104626Y-58742452D01*
X91065270Y-58688282D01*
X90432962Y-59320590D01*
X90415925Y-59257007D01*
X90350099Y-59142993D01*
X90257007Y-59049901D01*
X90142993Y-58984075D01*
X90079409Y-58967037D01*
X90711716Y-58334728D01*
X90657550Y-58295375D01*
X90468217Y-58198904D01*
X90266129Y-58133242D01*
X90056246Y-58100000D01*
X89843754Y-58100000D01*
X89633872Y-58133242D01*
X89633869Y-58133242D01*
X89431782Y-58198904D01*
X89242439Y-58295380D01*
X89188282Y-58334727D01*
X89188282Y-58334728D01*
X89820591Y-58967037D01*
X89757007Y-58984075D01*
X89642993Y-59049901D01*
X89549901Y-59142993D01*
X89484075Y-59257007D01*
X89467037Y-59320591D01*
X88834728Y-58688282D01*
X88834727Y-58688282D01*
X88795380Y-58742440D01*
X88790483Y-58752051D01*
X88742506Y-58802845D01*
X88674684Y-58819638D01*
X88608550Y-58797098D01*
X88569516Y-58752048D01*
X88564626Y-58742452D01*
X88525270Y-58688282D01*
X88525269Y-58688282D01*
X87892962Y-59320590D01*
X87875925Y-59257007D01*
X87810099Y-59142993D01*
X87717007Y-59049901D01*
X87602993Y-58984075D01*
X87539409Y-58967037D01*
X88171716Y-58334728D01*
X88117550Y-58295375D01*
X87928217Y-58198904D01*
X87726129Y-58133242D01*
X87516246Y-58100000D01*
X87303754Y-58100000D01*
X87093872Y-58133242D01*
X87093869Y-58133242D01*
X86891782Y-58198904D01*
X86702439Y-58295380D01*
X86648282Y-58334727D01*
X86648282Y-58334728D01*
X87280591Y-58967037D01*
X87217007Y-58984075D01*
X87102993Y-59049901D01*
X87009901Y-59142993D01*
X86944075Y-59257007D01*
X86927037Y-59320591D01*
X86294728Y-58688282D01*
X86294727Y-58688282D01*
X86255380Y-58742440D01*
X86250483Y-58752051D01*
X86202506Y-58802845D01*
X86134684Y-58819638D01*
X86068550Y-58797098D01*
X86029516Y-58752048D01*
X86024626Y-58742452D01*
X85985270Y-58688282D01*
X85985269Y-58688282D01*
X85352962Y-59320590D01*
X85335925Y-59257007D01*
X85270099Y-59142993D01*
X85177007Y-59049901D01*
X85062993Y-58984075D01*
X84999409Y-58967037D01*
X85631716Y-58334728D01*
X85577550Y-58295375D01*
X85388217Y-58198904D01*
X85186129Y-58133242D01*
X84976246Y-58100000D01*
X84763754Y-58100000D01*
X84553872Y-58133242D01*
X84553869Y-58133242D01*
X84351782Y-58198904D01*
X84162439Y-58295380D01*
X84108282Y-58334727D01*
X84108282Y-58334728D01*
X84740591Y-58967037D01*
X84677007Y-58984075D01*
X84562993Y-59049901D01*
X84469901Y-59142993D01*
X84404075Y-59257007D01*
X84387037Y-59320591D01*
X83754728Y-58688282D01*
X83754727Y-58688282D01*
X83715380Y-58742439D01*
X83618904Y-58931782D01*
X83553242Y-59133869D01*
X83553242Y-59133872D01*
X83520000Y-59343753D01*
X83520000Y-59556246D01*
X83553242Y-59766127D01*
X83553242Y-59766130D01*
X83618904Y-59968217D01*
X83715375Y-60157550D01*
X83754728Y-60211716D01*
X84387037Y-59579408D01*
X84404075Y-59642993D01*
X84469901Y-59757007D01*
X84562993Y-59850099D01*
X84677007Y-59915925D01*
X84740590Y-59932962D01*
X84108282Y-60565269D01*
X84108282Y-60565270D01*
X84162452Y-60604626D01*
X84162451Y-60604626D01*
X84171495Y-60609234D01*
X84222292Y-60657208D01*
X84239087Y-60725029D01*
X84216550Y-60791164D01*
X84171499Y-60830202D01*
X84162182Y-60834949D01*
X83990213Y-60959890D01*
X83839890Y-61110213D01*
X83714951Y-61282179D01*
X83618444Y-61471585D01*
X83618443Y-61471587D01*
X83618443Y-61471588D01*
X83590407Y-61557873D01*
X83552753Y-61673760D01*
X83519500Y-61883713D01*
X83519500Y-62096286D01*
X83552753Y-62306239D01*
X83618444Y-62508414D01*
X83714951Y-62697820D01*
X83839890Y-62869786D01*
X83953430Y-62983326D01*
X83986915Y-63044649D01*
X83981931Y-63114341D01*
X83940059Y-63170274D01*
X83909083Y-63187189D01*
X83777669Y-63236203D01*
X83777664Y-63236206D01*
X83662455Y-63322452D01*
X83662452Y-63322455D01*
X83576206Y-63437664D01*
X83576202Y-63437671D01*
X83525908Y-63572517D01*
X83519501Y-63632116D01*
X83519500Y-63632135D01*
X83519500Y-65427870D01*
X83519501Y-65427876D01*
X83525908Y-65487483D01*
X83576202Y-65622328D01*
X83576206Y-65622335D01*
X83662452Y-65737544D01*
X83662455Y-65737547D01*
X83777664Y-65823793D01*
X83777671Y-65823797D01*
X83822618Y-65840561D01*
X83912517Y-65874091D01*
X83972127Y-65880500D01*
X84145500Y-65880499D01*
X84212539Y-65900183D01*
X84258294Y-65952987D01*
X84269500Y-66004499D01*
X84269500Y-68324281D01*
X84249815Y-68391320D01*
X84201795Y-68434765D01*
X84162185Y-68454947D01*
X84162184Y-68454948D01*
X83990213Y-68579890D01*
X83839890Y-68730213D01*
X83714951Y-68902179D01*
X83618444Y-69091585D01*
X83552753Y-69293760D01*
X83551291Y-69302993D01*
X83519500Y-69503713D01*
X83519500Y-69716287D01*
X83529534Y-69779644D01*
X83552753Y-69926239D01*
X83618444Y-70128414D01*
X83714951Y-70317820D01*
X83839890Y-70489786D01*
X83990213Y-70640109D01*
X84162179Y-70765048D01*
X84162181Y-70765049D01*
X84162184Y-70765051D01*
X84351588Y-70861557D01*
X84553757Y-70927246D01*
X84763713Y-70960500D01*
X84763714Y-70960500D01*
X84976286Y-70960500D01*
X84976287Y-70960500D01*
X85186243Y-70927246D01*
X85388412Y-70861557D01*
X85577816Y-70765051D01*
X85664478Y-70702088D01*
X85749786Y-70640109D01*
X85749788Y-70640106D01*
X85749792Y-70640104D01*
X85900104Y-70489792D01*
X85900106Y-70489788D01*
X85900109Y-70489786D01*
X86025048Y-70317820D01*
X86025047Y-70317820D01*
X86025051Y-70317816D01*
X86029514Y-70309054D01*
X86077488Y-70258259D01*
X86145308Y-70241463D01*
X86211444Y-70263999D01*
X86250486Y-70309056D01*
X86254951Y-70317820D01*
X86379890Y-70489786D01*
X86530213Y-70640109D01*
X86702179Y-70765048D01*
X86702181Y-70765049D01*
X86702184Y-70765051D01*
X86891588Y-70861557D01*
X87093757Y-70927246D01*
X87303713Y-70960500D01*
X87303714Y-70960500D01*
X87516286Y-70960500D01*
X87516287Y-70960500D01*
X87726243Y-70927246D01*
X87928412Y-70861557D01*
X88117816Y-70765051D01*
X88204478Y-70702088D01*
X88289784Y-70640110D01*
X88289784Y-70640109D01*
X88289792Y-70640104D01*
X88403717Y-70526178D01*
X88465036Y-70492696D01*
X88534728Y-70497680D01*
X88590662Y-70539551D01*
X88607577Y-70570528D01*
X88656646Y-70702088D01*
X88656649Y-70702093D01*
X88742809Y-70817187D01*
X88742812Y-70817190D01*
X88857906Y-70903350D01*
X88857913Y-70903354D01*
X88992620Y-70953596D01*
X88992627Y-70953598D01*
X89052155Y-70959999D01*
X89052172Y-70960000D01*
X89700000Y-70960000D01*
X89700000Y-70043012D01*
X89757007Y-70075925D01*
X89884174Y-70110000D01*
X90015826Y-70110000D01*
X90142993Y-70075925D01*
X90200000Y-70043012D01*
X90200000Y-70960000D01*
X90847828Y-70960000D01*
X90847844Y-70959999D01*
X90907372Y-70953598D01*
X90907379Y-70953596D01*
X91042086Y-70903354D01*
X91042093Y-70903350D01*
X91157187Y-70817190D01*
X91157190Y-70817187D01*
X91243350Y-70702093D01*
X91243354Y-70702086D01*
X91292422Y-70570529D01*
X91334293Y-70514595D01*
X91399757Y-70490178D01*
X91468030Y-70505030D01*
X91496285Y-70526181D01*
X91610213Y-70640109D01*
X91782179Y-70765048D01*
X91782181Y-70765049D01*
X91782184Y-70765051D01*
X91971588Y-70861557D01*
X92173757Y-70927246D01*
X92383713Y-70960500D01*
X92383714Y-70960500D01*
X92596286Y-70960500D01*
X92596287Y-70960500D01*
X92806243Y-70927246D01*
X93008412Y-70861557D01*
X93197816Y-70765051D01*
X93284478Y-70702088D01*
X93369786Y-70640109D01*
X93369788Y-70640106D01*
X93369792Y-70640104D01*
X93520104Y-70489792D01*
X93520106Y-70489788D01*
X93520109Y-70489786D01*
X93645048Y-70317820D01*
X93645047Y-70317820D01*
X93645051Y-70317816D01*
X93649514Y-70309054D01*
X93697488Y-70258259D01*
X93765308Y-70241463D01*
X93831444Y-70263999D01*
X93870486Y-70309056D01*
X93874951Y-70317820D01*
X93999890Y-70489786D01*
X94150213Y-70640109D01*
X94322179Y-70765048D01*
X94322181Y-70765049D01*
X94322184Y-70765051D01*
X94511588Y-70861557D01*
X94713757Y-70927246D01*
X94923713Y-70960500D01*
X94923714Y-70960500D01*
X95136286Y-70960500D01*
X95136287Y-70960500D01*
X95346243Y-70927246D01*
X95548412Y-70861557D01*
X95737816Y-70765051D01*
X95824478Y-70702088D01*
X95909786Y-70640109D01*
X95909788Y-70640106D01*
X95909792Y-70640104D01*
X96060104Y-70489792D01*
X96060106Y-70489788D01*
X96060109Y-70489786D01*
X96185048Y-70317820D01*
X96185047Y-70317820D01*
X96185051Y-70317816D01*
X96189514Y-70309054D01*
X96237488Y-70258259D01*
X96305308Y-70241463D01*
X96371444Y-70263999D01*
X96410486Y-70309056D01*
X96414951Y-70317820D01*
X96539890Y-70489786D01*
X96690213Y-70640109D01*
X96862179Y-70765048D01*
X96862181Y-70765049D01*
X96862184Y-70765051D01*
X97051588Y-70861557D01*
X97253757Y-70927246D01*
X97463713Y-70960500D01*
X97463714Y-70960500D01*
X97676286Y-70960500D01*
X97676287Y-70960500D01*
X97886243Y-70927246D01*
X98088412Y-70861557D01*
X98277816Y-70765051D01*
X98364478Y-70702088D01*
X98449786Y-70640109D01*
X98449788Y-70640106D01*
X98449792Y-70640104D01*
X98600104Y-70489792D01*
X98600106Y-70489788D01*
X98600109Y-70489786D01*
X98725048Y-70317820D01*
X98725047Y-70317820D01*
X98725051Y-70317816D01*
X98729514Y-70309054D01*
X98777488Y-70258259D01*
X98845308Y-70241463D01*
X98911444Y-70263999D01*
X98950486Y-70309056D01*
X98954951Y-70317820D01*
X99079890Y-70489786D01*
X99230213Y-70640109D01*
X99402179Y-70765048D01*
X99402181Y-70765049D01*
X99402184Y-70765051D01*
X99591588Y-70861557D01*
X99793757Y-70927246D01*
X100003713Y-70960500D01*
X100003714Y-70960500D01*
X100216286Y-70960500D01*
X100216287Y-70960500D01*
X100426243Y-70927246D01*
X100628412Y-70861557D01*
X100817816Y-70765051D01*
X100904478Y-70702088D01*
X100989784Y-70640110D01*
X100989784Y-70640109D01*
X100989792Y-70640104D01*
X101103717Y-70526178D01*
X101165036Y-70492696D01*
X101234728Y-70497680D01*
X101290662Y-70539551D01*
X101307577Y-70570528D01*
X101356646Y-70702088D01*
X101356649Y-70702093D01*
X101442809Y-70817187D01*
X101442812Y-70817190D01*
X101557906Y-70903350D01*
X101557913Y-70903354D01*
X101692620Y-70953596D01*
X101692627Y-70953598D01*
X101752155Y-70959999D01*
X101752172Y-70960000D01*
X102400000Y-70960000D01*
X102400000Y-70043012D01*
X102457007Y-70075925D01*
X102584174Y-70110000D01*
X102715826Y-70110000D01*
X102842993Y-70075925D01*
X102900000Y-70043012D01*
X102900000Y-70960000D01*
X103547828Y-70960000D01*
X103547844Y-70959999D01*
X103607372Y-70953598D01*
X103607379Y-70953596D01*
X103742086Y-70903354D01*
X103742093Y-70903350D01*
X103857187Y-70817190D01*
X103857190Y-70817187D01*
X103943350Y-70702093D01*
X103943354Y-70702086D01*
X103992422Y-70570529D01*
X104034293Y-70514595D01*
X104099757Y-70490178D01*
X104168030Y-70505030D01*
X104196285Y-70526181D01*
X104310213Y-70640109D01*
X104482179Y-70765048D01*
X104482181Y-70765049D01*
X104482184Y-70765051D01*
X104671588Y-70861557D01*
X104707927Y-70873364D01*
X104765603Y-70912802D01*
X104792801Y-70977160D01*
X104780886Y-71046007D01*
X104772712Y-71060184D01*
X104765611Y-71070811D01*
X104765602Y-71070827D01*
X104705264Y-71216498D01*
X104705261Y-71216510D01*
X104674500Y-71371153D01*
X104674500Y-71528846D01*
X104705261Y-71683489D01*
X104705264Y-71683501D01*
X104765602Y-71829172D01*
X104765609Y-71829185D01*
X104853210Y-71960288D01*
X104853213Y-71960292D01*
X104964707Y-72071786D01*
X104964711Y-72071789D01*
X105095814Y-72159390D01*
X105095827Y-72159397D01*
X105241498Y-72219735D01*
X105241503Y-72219737D01*
X105396153Y-72250499D01*
X105396156Y-72250500D01*
X105396158Y-72250500D01*
X105553844Y-72250500D01*
X105553845Y-72250499D01*
X105708497Y-72219737D01*
X105854179Y-72159394D01*
X105985289Y-72071789D01*
X106096789Y-71960289D01*
X106184394Y-71829179D01*
X106244737Y-71683497D01*
X106264113Y-71586085D01*
X106275638Y-71528150D01*
X106308023Y-71466239D01*
X106309522Y-71464712D01*
X106818713Y-70955521D01*
X106818716Y-70955520D01*
X106930520Y-70843716D01*
X106935346Y-70835356D01*
X106946129Y-70824275D01*
X106963614Y-70814414D01*
X106978138Y-70800556D01*
X106993425Y-70797603D01*
X107006989Y-70789955D01*
X107027030Y-70791113D01*
X107046740Y-70787307D01*
X107067963Y-70793479D01*
X107076743Y-70793987D01*
X107081428Y-70797395D01*
X107091295Y-70800265D01*
X107124507Y-70817187D01*
X107211588Y-70861557D01*
X107413757Y-70927246D01*
X107623713Y-70960500D01*
X107623714Y-70960500D01*
X107836286Y-70960500D01*
X107836287Y-70960500D01*
X108046243Y-70927246D01*
X108248412Y-70861557D01*
X108437816Y-70765051D01*
X108524478Y-70702088D01*
X108609786Y-70640109D01*
X108609788Y-70640106D01*
X108609792Y-70640104D01*
X108760104Y-70489792D01*
X108760106Y-70489788D01*
X108760109Y-70489786D01*
X108885048Y-70317820D01*
X108885047Y-70317820D01*
X108885051Y-70317816D01*
X108889514Y-70309054D01*
X108937488Y-70258259D01*
X109005308Y-70241463D01*
X109071444Y-70263999D01*
X109110486Y-70309056D01*
X109114951Y-70317820D01*
X109239890Y-70489786D01*
X109390213Y-70640109D01*
X109562179Y-70765048D01*
X109562181Y-70765049D01*
X109562184Y-70765051D01*
X109751588Y-70861557D01*
X109953757Y-70927246D01*
X110163713Y-70960500D01*
X110163714Y-70960500D01*
X110376286Y-70960500D01*
X110376287Y-70960500D01*
X110586243Y-70927246D01*
X110788412Y-70861557D01*
X110977816Y-70765051D01*
X111064478Y-70702088D01*
X111149786Y-70640109D01*
X111149788Y-70640106D01*
X111149792Y-70640104D01*
X111300104Y-70489792D01*
X111300106Y-70489788D01*
X111300109Y-70489786D01*
X111425048Y-70317820D01*
X111425047Y-70317820D01*
X111425051Y-70317816D01*
X111429514Y-70309054D01*
X111477488Y-70258259D01*
X111545308Y-70241463D01*
X111611444Y-70263999D01*
X111650486Y-70309056D01*
X111654951Y-70317820D01*
X111779890Y-70489786D01*
X111930213Y-70640109D01*
X112102179Y-70765048D01*
X112102181Y-70765049D01*
X112102184Y-70765051D01*
X112291588Y-70861557D01*
X112493757Y-70927246D01*
X112703713Y-70960500D01*
X112703714Y-70960500D01*
X112916286Y-70960500D01*
X112916287Y-70960500D01*
X113126243Y-70927246D01*
X113328412Y-70861557D01*
X113517816Y-70765051D01*
X113604478Y-70702088D01*
X113689784Y-70640110D01*
X113689784Y-70640109D01*
X113689792Y-70640104D01*
X113803717Y-70526178D01*
X113865036Y-70492696D01*
X113934728Y-70497680D01*
X113990662Y-70539551D01*
X114007577Y-70570528D01*
X114056646Y-70702088D01*
X114056649Y-70702093D01*
X114142809Y-70817187D01*
X114142812Y-70817190D01*
X114257906Y-70903350D01*
X114257913Y-70903354D01*
X114392620Y-70953596D01*
X114392627Y-70953598D01*
X114452155Y-70959999D01*
X114452172Y-70960000D01*
X115100000Y-70960000D01*
X115100000Y-70043012D01*
X115157007Y-70075925D01*
X115284174Y-70110000D01*
X115415826Y-70110000D01*
X115542993Y-70075925D01*
X115600000Y-70043012D01*
X115600000Y-70960000D01*
X116247828Y-70960000D01*
X116247844Y-70959999D01*
X116307372Y-70953598D01*
X116307379Y-70953596D01*
X116442086Y-70903354D01*
X116442093Y-70903350D01*
X116557187Y-70817190D01*
X116557190Y-70817187D01*
X116643350Y-70702093D01*
X116643354Y-70702086D01*
X116692422Y-70570529D01*
X116734293Y-70514595D01*
X116799757Y-70490178D01*
X116868030Y-70505030D01*
X116896285Y-70526181D01*
X117010213Y-70640109D01*
X117182179Y-70765048D01*
X117182181Y-70765049D01*
X117182184Y-70765051D01*
X117371588Y-70861557D01*
X117573757Y-70927246D01*
X117783713Y-70960500D01*
X117783714Y-70960500D01*
X117996286Y-70960500D01*
X117996287Y-70960500D01*
X118206243Y-70927246D01*
X118408412Y-70861557D01*
X118597816Y-70765051D01*
X118684478Y-70702088D01*
X118769786Y-70640109D01*
X118769788Y-70640106D01*
X118769792Y-70640104D01*
X118920104Y-70489792D01*
X118920106Y-70489788D01*
X118920109Y-70489786D01*
X119045048Y-70317820D01*
X119045047Y-70317820D01*
X119045051Y-70317816D01*
X119049514Y-70309054D01*
X119097488Y-70258259D01*
X119165308Y-70241463D01*
X119231444Y-70263999D01*
X119270486Y-70309056D01*
X119274951Y-70317820D01*
X119399890Y-70489786D01*
X119550213Y-70640109D01*
X119722179Y-70765048D01*
X119722181Y-70765049D01*
X119722184Y-70765051D01*
X119911588Y-70861557D01*
X120113757Y-70927246D01*
X120323713Y-70960500D01*
X120323714Y-70960500D01*
X120536286Y-70960500D01*
X120536287Y-70960500D01*
X120746243Y-70927246D01*
X120948412Y-70861557D01*
X121137816Y-70765051D01*
X121224478Y-70702088D01*
X121309786Y-70640109D01*
X121309788Y-70640106D01*
X121309792Y-70640104D01*
X121460104Y-70489792D01*
X121460106Y-70489788D01*
X121460109Y-70489786D01*
X121585048Y-70317820D01*
X121585047Y-70317820D01*
X121585051Y-70317816D01*
X121589514Y-70309054D01*
X121637488Y-70258259D01*
X121705308Y-70241463D01*
X121771444Y-70263999D01*
X121810486Y-70309056D01*
X121814951Y-70317820D01*
X121939890Y-70489786D01*
X122090213Y-70640109D01*
X122262179Y-70765048D01*
X122262181Y-70765049D01*
X122262184Y-70765051D01*
X122451588Y-70861557D01*
X122653757Y-70927246D01*
X122863713Y-70960500D01*
X122863714Y-70960500D01*
X123076286Y-70960500D01*
X123076287Y-70960500D01*
X123286243Y-70927246D01*
X123488412Y-70861557D01*
X123677816Y-70765051D01*
X123764478Y-70702088D01*
X123849786Y-70640109D01*
X123849788Y-70640106D01*
X123849792Y-70640104D01*
X124000104Y-70489792D01*
X124000106Y-70489788D01*
X124000109Y-70489786D01*
X124125048Y-70317820D01*
X124125047Y-70317820D01*
X124125051Y-70317816D01*
X124129514Y-70309054D01*
X124177488Y-70258259D01*
X124245308Y-70241463D01*
X124311444Y-70263999D01*
X124350486Y-70309056D01*
X124354951Y-70317820D01*
X124479890Y-70489786D01*
X124630213Y-70640109D01*
X124802179Y-70765048D01*
X124802181Y-70765049D01*
X124802184Y-70765051D01*
X124991588Y-70861557D01*
X125193757Y-70927246D01*
X125193760Y-70927246D01*
X125193761Y-70927247D01*
X125266542Y-70938774D01*
X125344898Y-70951184D01*
X125408032Y-70981113D01*
X125444964Y-71040424D01*
X125449500Y-71073657D01*
X125449500Y-72470397D01*
X125429815Y-72537436D01*
X125381800Y-72580879D01*
X125368389Y-72587712D01*
X125202786Y-72708028D01*
X125058028Y-72852786D01*
X124937715Y-73018386D01*
X124844781Y-73200776D01*
X124781522Y-73395465D01*
X124749500Y-73597648D01*
X124749500Y-73802351D01*
X124781522Y-74004534D01*
X124844781Y-74199223D01*
X124937715Y-74381613D01*
X125058028Y-74547213D01*
X125202786Y-74691971D01*
X125357749Y-74804556D01*
X125368390Y-74812287D01*
X125484607Y-74871503D01*
X125550776Y-74905218D01*
X125550778Y-74905218D01*
X125550781Y-74905220D01*
X125655137Y-74939127D01*
X125745465Y-74968477D01*
X125846557Y-74984488D01*
X125947648Y-75000500D01*
X125947649Y-75000500D01*
X126152351Y-75000500D01*
X126152352Y-75000500D01*
X126354534Y-74968477D01*
X126549219Y-74905220D01*
X126731610Y-74812287D01*
X126824590Y-74744732D01*
X126897213Y-74691971D01*
X126897215Y-74691968D01*
X126897219Y-74691966D01*
X127041966Y-74547219D01*
X127041968Y-74547215D01*
X127041971Y-74547213D01*
X127094732Y-74474590D01*
X127162287Y-74381610D01*
X127255220Y-74199219D01*
X127318477Y-74004534D01*
X127350500Y-73802352D01*
X127350500Y-73597648D01*
X127332774Y-73485732D01*
X127318477Y-73395465D01*
X127289127Y-73305137D01*
X127255220Y-73200781D01*
X127255218Y-73200778D01*
X127255218Y-73200776D01*
X127221503Y-73134607D01*
X127162287Y-73018390D01*
X127087853Y-72915939D01*
X127041971Y-72852786D01*
X126897213Y-72708028D01*
X126731610Y-72587712D01*
X126718200Y-72580879D01*
X126667406Y-72532903D01*
X126650500Y-72470397D01*
X126650500Y-70920946D01*
X126670185Y-70853907D01*
X126722989Y-70808152D01*
X126792147Y-70798208D01*
X126848812Y-70821680D01*
X126957910Y-70903352D01*
X126957913Y-70903354D01*
X127092620Y-70953596D01*
X127092627Y-70953598D01*
X127152155Y-70959999D01*
X127152172Y-70960000D01*
X127800000Y-70960000D01*
X127800000Y-70043012D01*
X127857007Y-70075925D01*
X127984174Y-70110000D01*
X128115826Y-70110000D01*
X128242993Y-70075925D01*
X128300000Y-70043012D01*
X128300000Y-70960000D01*
X128947828Y-70960000D01*
X128947844Y-70959999D01*
X129007372Y-70953598D01*
X129007379Y-70953596D01*
X129142086Y-70903354D01*
X129142093Y-70903350D01*
X129257187Y-70817190D01*
X129257190Y-70817187D01*
X129343350Y-70702093D01*
X129343354Y-70702086D01*
X129392422Y-70570529D01*
X129434293Y-70514595D01*
X129499757Y-70490178D01*
X129568030Y-70505030D01*
X129596285Y-70526181D01*
X129710213Y-70640109D01*
X129882184Y-70765051D01*
X129882184Y-70765052D01*
X129921793Y-70785233D01*
X129972590Y-70833206D01*
X129989500Y-70895718D01*
X129989500Y-72047402D01*
X129969815Y-72114441D01*
X129953181Y-72135083D01*
X126494842Y-75593421D01*
X126433519Y-75626906D01*
X126368848Y-75623673D01*
X126354534Y-75619022D01*
X126179995Y-75591378D01*
X126152352Y-75587000D01*
X125947648Y-75587000D01*
X125923329Y-75590851D01*
X125745465Y-75619022D01*
X125550776Y-75682281D01*
X125368386Y-75775215D01*
X125202786Y-75895528D01*
X125058028Y-76040286D01*
X124937715Y-76205886D01*
X124844781Y-76388276D01*
X124781522Y-76582965D01*
X124749500Y-76785148D01*
X124749500Y-76989851D01*
X124781522Y-77192034D01*
X124844781Y-77386723D01*
X124937715Y-77569113D01*
X125058028Y-77734713D01*
X125202786Y-77879471D01*
X125357749Y-77992056D01*
X125368390Y-77999787D01*
X125484607Y-78059003D01*
X125550776Y-78092718D01*
X125550778Y-78092718D01*
X125550781Y-78092720D01*
X125655137Y-78126627D01*
X125745465Y-78155977D01*
X125846557Y-78171988D01*
X125947648Y-78188000D01*
X125947649Y-78188000D01*
X126152351Y-78188000D01*
X126152352Y-78188000D01*
X126354534Y-78155977D01*
X126549219Y-78092720D01*
X126731610Y-77999787D01*
X126824590Y-77932232D01*
X126897213Y-77879471D01*
X126897215Y-77879468D01*
X126897219Y-77879466D01*
X127041966Y-77734719D01*
X127041968Y-77734715D01*
X127041971Y-77734713D01*
X127094732Y-77662090D01*
X127162287Y-77569110D01*
X127255220Y-77386719D01*
X127318477Y-77192034D01*
X127350500Y-76989852D01*
X127350500Y-76785148D01*
X127318477Y-76582966D01*
X127313825Y-76568651D01*
X127311832Y-76498812D01*
X127344075Y-76442658D01*
X131070520Y-72716216D01*
X131149577Y-72579284D01*
X131190501Y-72426557D01*
X131190501Y-72268442D01*
X131190501Y-72260847D01*
X131190500Y-72260829D01*
X131190500Y-70895718D01*
X131210185Y-70828679D01*
X131258207Y-70785233D01*
X131297815Y-70765052D01*
X131297815Y-70765051D01*
X131297816Y-70765051D01*
X131389193Y-70698661D01*
X131469786Y-70640109D01*
X131469788Y-70640106D01*
X131469792Y-70640104D01*
X131620104Y-70489792D01*
X131659206Y-70435972D01*
X131714534Y-70393307D01*
X131784147Y-70387326D01*
X131845943Y-70419931D01*
X131877909Y-70471965D01*
X131886522Y-70499606D01*
X131971459Y-70640109D01*
X131974530Y-70645188D01*
X132094811Y-70765469D01*
X132094813Y-70765470D01*
X132094815Y-70765472D01*
X132240394Y-70853478D01*
X132402804Y-70904086D01*
X132416720Y-70905350D01*
X132481702Y-70931019D01*
X132522492Y-70987746D01*
X132529500Y-71028841D01*
X132529500Y-72694902D01*
X132509815Y-72761941D01*
X132493181Y-72782583D01*
X126494842Y-78780921D01*
X126433519Y-78814406D01*
X126368848Y-78811173D01*
X126354534Y-78806522D01*
X126179995Y-78778878D01*
X126152352Y-78774500D01*
X125947648Y-78774500D01*
X125923329Y-78778351D01*
X125745465Y-78806522D01*
X125550776Y-78869781D01*
X125368386Y-78962715D01*
X125202786Y-79083028D01*
X125058036Y-79227778D01*
X125058031Y-79227784D01*
X125037739Y-79255713D01*
X124982408Y-79298377D01*
X124912794Y-79304355D01*
X124851000Y-79271747D01*
X124849742Y-79270506D01*
X119724077Y-74144842D01*
X119690592Y-74083519D01*
X119693828Y-74018841D01*
X119698477Y-74004534D01*
X119730500Y-73802352D01*
X119730500Y-73597648D01*
X119712774Y-73485732D01*
X119698477Y-73395465D01*
X119669127Y-73305137D01*
X119635220Y-73200781D01*
X119635218Y-73200778D01*
X119635218Y-73200776D01*
X119601503Y-73134607D01*
X119542287Y-73018390D01*
X119467853Y-72915939D01*
X119421971Y-72852786D01*
X119277213Y-72708028D01*
X119111613Y-72587715D01*
X119111612Y-72587714D01*
X119111610Y-72587713D01*
X119054653Y-72558691D01*
X118929223Y-72494781D01*
X118734534Y-72431522D01*
X118559995Y-72403878D01*
X118532352Y-72399500D01*
X118327648Y-72399500D01*
X118303329Y-72403351D01*
X118125465Y-72431522D01*
X117930776Y-72494781D01*
X117748386Y-72587715D01*
X117582786Y-72708028D01*
X117438028Y-72852786D01*
X117317715Y-73018386D01*
X117224781Y-73200776D01*
X117161522Y-73395465D01*
X117129500Y-73597648D01*
X117129500Y-73802351D01*
X117161522Y-74004534D01*
X117224781Y-74199223D01*
X117317715Y-74381613D01*
X117438028Y-74547213D01*
X117582786Y-74691971D01*
X117737749Y-74804556D01*
X117748390Y-74812287D01*
X117864607Y-74871503D01*
X117930776Y-74905218D01*
X117930778Y-74905218D01*
X117930781Y-74905220D01*
X118035137Y-74939127D01*
X118125465Y-74968477D01*
X118226557Y-74984488D01*
X118327648Y-75000500D01*
X118327649Y-75000500D01*
X118532351Y-75000500D01*
X118532352Y-75000500D01*
X118734534Y-74968477D01*
X118748842Y-74963827D01*
X118818682Y-74961831D01*
X118874842Y-74994077D01*
X124113181Y-80232416D01*
X124146666Y-80293739D01*
X124149500Y-80320097D01*
X124149500Y-81458402D01*
X124129815Y-81525441D01*
X124077011Y-81571196D01*
X124007853Y-81581140D01*
X123944297Y-81552115D01*
X123937819Y-81546083D01*
X119724077Y-77332342D01*
X119690592Y-77271019D01*
X119693828Y-77206341D01*
X119698477Y-77192034D01*
X119730500Y-76989852D01*
X119730500Y-76785148D01*
X119698477Y-76582966D01*
X119635220Y-76388281D01*
X119635218Y-76388278D01*
X119635218Y-76388276D01*
X119601503Y-76322107D01*
X119542287Y-76205890D01*
X119534556Y-76195249D01*
X119421971Y-76040286D01*
X119277213Y-75895528D01*
X119111613Y-75775215D01*
X119111612Y-75775214D01*
X119111610Y-75775213D01*
X119054653Y-75746191D01*
X118929223Y-75682281D01*
X118734534Y-75619022D01*
X118559995Y-75591378D01*
X118532352Y-75587000D01*
X118327648Y-75587000D01*
X118303329Y-75590851D01*
X118125465Y-75619022D01*
X117930776Y-75682281D01*
X117748386Y-75775215D01*
X117582786Y-75895528D01*
X117438028Y-76040286D01*
X117317715Y-76205886D01*
X117224781Y-76388276D01*
X117161522Y-76582965D01*
X117129500Y-76785148D01*
X117129500Y-76989851D01*
X117161522Y-77192034D01*
X117224781Y-77386723D01*
X117317715Y-77569113D01*
X117438028Y-77734713D01*
X117582786Y-77879471D01*
X117737749Y-77992056D01*
X117748390Y-77999787D01*
X117864607Y-78059003D01*
X117930776Y-78092718D01*
X117930778Y-78092718D01*
X117930781Y-78092720D01*
X118035137Y-78126627D01*
X118125465Y-78155977D01*
X118226557Y-78171988D01*
X118327648Y-78188000D01*
X118327649Y-78188000D01*
X118532351Y-78188000D01*
X118532352Y-78188000D01*
X118734534Y-78155977D01*
X118748842Y-78151327D01*
X118818682Y-78149331D01*
X118874842Y-78181577D01*
X123588181Y-82894916D01*
X123621666Y-82956239D01*
X123624500Y-82982597D01*
X123624500Y-86011989D01*
X123604815Y-86079028D01*
X123552011Y-86124783D01*
X123482853Y-86134727D01*
X123462182Y-86129920D01*
X123286240Y-86072753D01*
X123124957Y-86047208D01*
X123076287Y-86039500D01*
X122863713Y-86039500D01*
X122824202Y-86045757D01*
X122653759Y-86072753D01*
X122462818Y-86134794D01*
X122392977Y-86136789D01*
X122333144Y-86100709D01*
X122302316Y-86038008D01*
X122300500Y-86016863D01*
X122300500Y-83265945D01*
X122300500Y-83265943D01*
X122259577Y-83113216D01*
X122184165Y-82982597D01*
X122180524Y-82976290D01*
X122180521Y-82976286D01*
X122180520Y-82976284D01*
X122068716Y-82864480D01*
X122068715Y-82864479D01*
X122064385Y-82860149D01*
X122064374Y-82860139D01*
X119724077Y-80519842D01*
X119690592Y-80458519D01*
X119693828Y-80393841D01*
X119698477Y-80379534D01*
X119730500Y-80177352D01*
X119730500Y-79972648D01*
X119698477Y-79770466D01*
X119635220Y-79575781D01*
X119635218Y-79575778D01*
X119635218Y-79575776D01*
X119601503Y-79509607D01*
X119542287Y-79393390D01*
X119527595Y-79373168D01*
X119421971Y-79227786D01*
X119277213Y-79083028D01*
X119111613Y-78962715D01*
X119111612Y-78962714D01*
X119111610Y-78962713D01*
X119054653Y-78933691D01*
X118929223Y-78869781D01*
X118734534Y-78806522D01*
X118559995Y-78778878D01*
X118532352Y-78774500D01*
X118327648Y-78774500D01*
X118303329Y-78778351D01*
X118125465Y-78806522D01*
X117930776Y-78869781D01*
X117748386Y-78962715D01*
X117582786Y-79083028D01*
X117438028Y-79227786D01*
X117317715Y-79393386D01*
X117224781Y-79575776D01*
X117161522Y-79770465D01*
X117129500Y-79972648D01*
X117129500Y-80177351D01*
X117161522Y-80379534D01*
X117224781Y-80574223D01*
X117317715Y-80756613D01*
X117438028Y-80922213D01*
X117582786Y-81066971D01*
X117730500Y-81174289D01*
X117748390Y-81187287D01*
X117864607Y-81246503D01*
X117930776Y-81280218D01*
X117930778Y-81280218D01*
X117930781Y-81280220D01*
X118033151Y-81313482D01*
X118125465Y-81343477D01*
X118226557Y-81359488D01*
X118327648Y-81375500D01*
X118327649Y-81375500D01*
X118532351Y-81375500D01*
X118532352Y-81375500D01*
X118734534Y-81343477D01*
X118748842Y-81338827D01*
X118818682Y-81336831D01*
X118874842Y-81369077D01*
X121063181Y-83557416D01*
X121096666Y-83618739D01*
X121099500Y-83645097D01*
X121099500Y-86016863D01*
X121079815Y-86083902D01*
X121027011Y-86129657D01*
X120957853Y-86139601D01*
X120937182Y-86134794D01*
X120746240Y-86072753D01*
X120584957Y-86047208D01*
X120536287Y-86039500D01*
X120323713Y-86039500D01*
X120275042Y-86047208D01*
X120113760Y-86072753D01*
X120113757Y-86072754D01*
X119916679Y-86136789D01*
X119911585Y-86138444D01*
X119722179Y-86234951D01*
X119550213Y-86359890D01*
X119399890Y-86510213D01*
X119274949Y-86682182D01*
X119270484Y-86690946D01*
X119222509Y-86741742D01*
X119154688Y-86758536D01*
X119088553Y-86735998D01*
X119049516Y-86690946D01*
X119045050Y-86682182D01*
X118920109Y-86510213D01*
X118769786Y-86359890D01*
X118597820Y-86234951D01*
X118408414Y-86138444D01*
X118408413Y-86138443D01*
X118408412Y-86138443D01*
X118206243Y-86072754D01*
X118206241Y-86072753D01*
X118206240Y-86072753D01*
X118044957Y-86047208D01*
X117996287Y-86039500D01*
X117783713Y-86039500D01*
X117735042Y-86047208D01*
X117573760Y-86072753D01*
X117573757Y-86072754D01*
X117376679Y-86136789D01*
X117371585Y-86138444D01*
X117182179Y-86234951D01*
X117010215Y-86359889D01*
X116896285Y-86473819D01*
X116834962Y-86507303D01*
X116765270Y-86502319D01*
X116709337Y-86460447D01*
X116692422Y-86429470D01*
X116643354Y-86297913D01*
X116643350Y-86297906D01*
X116557190Y-86182812D01*
X116557187Y-86182809D01*
X116442093Y-86096649D01*
X116442086Y-86096645D01*
X116307379Y-86046403D01*
X116307372Y-86046401D01*
X116247844Y-86040000D01*
X115600000Y-86040000D01*
X115600000Y-86956988D01*
X115542993Y-86924075D01*
X115415826Y-86890000D01*
X115284174Y-86890000D01*
X115157007Y-86924075D01*
X115100000Y-86956988D01*
X115100000Y-86040000D01*
X114452155Y-86040000D01*
X114392627Y-86046401D01*
X114392620Y-86046403D01*
X114257913Y-86096645D01*
X114257906Y-86096649D01*
X114142812Y-86182809D01*
X114142809Y-86182812D01*
X114056649Y-86297906D01*
X114056646Y-86297912D01*
X114007577Y-86429471D01*
X113965705Y-86485404D01*
X113900241Y-86509821D01*
X113831968Y-86494969D01*
X113803714Y-86473818D01*
X113689786Y-86359890D01*
X113517820Y-86234951D01*
X113328414Y-86138444D01*
X113328413Y-86138443D01*
X113328412Y-86138443D01*
X113126243Y-86072754D01*
X113126241Y-86072753D01*
X113126240Y-86072753D01*
X112964957Y-86047208D01*
X112916287Y-86039500D01*
X112703713Y-86039500D01*
X112655042Y-86047208D01*
X112493760Y-86072753D01*
X112493757Y-86072754D01*
X112296679Y-86136789D01*
X112291585Y-86138444D01*
X112102179Y-86234951D01*
X111930213Y-86359890D01*
X111779890Y-86510213D01*
X111654949Y-86682182D01*
X111650484Y-86690946D01*
X111602509Y-86741742D01*
X111534688Y-86758536D01*
X111468553Y-86735998D01*
X111429516Y-86690946D01*
X111425050Y-86682182D01*
X111300109Y-86510213D01*
X111149786Y-86359890D01*
X110977820Y-86234951D01*
X110788414Y-86138444D01*
X110788413Y-86138443D01*
X110788412Y-86138443D01*
X110586243Y-86072754D01*
X110586241Y-86072753D01*
X110586240Y-86072753D01*
X110424957Y-86047208D01*
X110376287Y-86039500D01*
X110163713Y-86039500D01*
X110115042Y-86047208D01*
X109953760Y-86072753D01*
X109953757Y-86072754D01*
X109756679Y-86136789D01*
X109751585Y-86138444D01*
X109562179Y-86234951D01*
X109390213Y-86359890D01*
X109239890Y-86510213D01*
X109114949Y-86682182D01*
X109110484Y-86690946D01*
X109062509Y-86741742D01*
X108994688Y-86758536D01*
X108928553Y-86735998D01*
X108889516Y-86690946D01*
X108885050Y-86682182D01*
X108760109Y-86510213D01*
X108609786Y-86359890D01*
X108437820Y-86234951D01*
X108248414Y-86138444D01*
X108248413Y-86138443D01*
X108248412Y-86138443D01*
X108046243Y-86072754D01*
X108046241Y-86072753D01*
X108046240Y-86072753D01*
X107884957Y-86047208D01*
X107836287Y-86039500D01*
X107623713Y-86039500D01*
X107575042Y-86047208D01*
X107413760Y-86072753D01*
X107413757Y-86072754D01*
X107216679Y-86136789D01*
X107211585Y-86138444D01*
X107022179Y-86234951D01*
X106850213Y-86359890D01*
X106699890Y-86510213D01*
X106574949Y-86682182D01*
X106570484Y-86690946D01*
X106522509Y-86741742D01*
X106454688Y-86758536D01*
X106388553Y-86735998D01*
X106349516Y-86690946D01*
X106345050Y-86682182D01*
X106220109Y-86510213D01*
X106069786Y-86359890D01*
X105897820Y-86234951D01*
X105708414Y-86138444D01*
X105708413Y-86138443D01*
X105708412Y-86138443D01*
X105506243Y-86072754D01*
X105506241Y-86072753D01*
X105506240Y-86072753D01*
X105344957Y-86047208D01*
X105296287Y-86039500D01*
X105083713Y-86039500D01*
X105035042Y-86047208D01*
X104873760Y-86072753D01*
X104873757Y-86072754D01*
X104676679Y-86136789D01*
X104671585Y-86138444D01*
X104482179Y-86234951D01*
X104310215Y-86359889D01*
X104196285Y-86473819D01*
X104134962Y-86507303D01*
X104065270Y-86502319D01*
X104009337Y-86460447D01*
X103992422Y-86429470D01*
X103943354Y-86297913D01*
X103943350Y-86297906D01*
X103857190Y-86182812D01*
X103857187Y-86182809D01*
X103742093Y-86096649D01*
X103742086Y-86096645D01*
X103607379Y-86046403D01*
X103607372Y-86046401D01*
X103547844Y-86040000D01*
X102900000Y-86040000D01*
X102900000Y-86956988D01*
X102842993Y-86924075D01*
X102715826Y-86890000D01*
X102584174Y-86890000D01*
X102457007Y-86924075D01*
X102400000Y-86956988D01*
X102400000Y-86040000D01*
X101752155Y-86040000D01*
X101692627Y-86046401D01*
X101692620Y-86046403D01*
X101557913Y-86096645D01*
X101557906Y-86096649D01*
X101442812Y-86182809D01*
X101442809Y-86182812D01*
X101356649Y-86297906D01*
X101356646Y-86297912D01*
X101307577Y-86429471D01*
X101265705Y-86485404D01*
X101200241Y-86509821D01*
X101131968Y-86494969D01*
X101103714Y-86473818D01*
X100989786Y-86359890D01*
X100817820Y-86234951D01*
X100628414Y-86138444D01*
X100628413Y-86138443D01*
X100628412Y-86138443D01*
X100426243Y-86072754D01*
X100426241Y-86072753D01*
X100426240Y-86072753D01*
X100264957Y-86047208D01*
X100216287Y-86039500D01*
X100003713Y-86039500D01*
X99955042Y-86047208D01*
X99793760Y-86072753D01*
X99793757Y-86072754D01*
X99596679Y-86136789D01*
X99591585Y-86138444D01*
X99402179Y-86234951D01*
X99230213Y-86359890D01*
X99079890Y-86510213D01*
X98954949Y-86682182D01*
X98950484Y-86690946D01*
X98902509Y-86741742D01*
X98834688Y-86758536D01*
X98768553Y-86735998D01*
X98729516Y-86690946D01*
X98725050Y-86682182D01*
X98600109Y-86510213D01*
X98449786Y-86359890D01*
X98277820Y-86234951D01*
X98088414Y-86138444D01*
X98088413Y-86138443D01*
X98088412Y-86138443D01*
X97886243Y-86072754D01*
X97886241Y-86072753D01*
X97886240Y-86072753D01*
X97724957Y-86047208D01*
X97676287Y-86039500D01*
X97463713Y-86039500D01*
X97415042Y-86047208D01*
X97253760Y-86072753D01*
X97253757Y-86072754D01*
X97056679Y-86136789D01*
X97051585Y-86138444D01*
X96862179Y-86234951D01*
X96690213Y-86359890D01*
X96539890Y-86510213D01*
X96414949Y-86682182D01*
X96410484Y-86690946D01*
X96362509Y-86741742D01*
X96294688Y-86758536D01*
X96228553Y-86735998D01*
X96189516Y-86690946D01*
X96185050Y-86682182D01*
X96060109Y-86510213D01*
X95909786Y-86359890D01*
X95737820Y-86234951D01*
X95548414Y-86138444D01*
X95548413Y-86138443D01*
X95548412Y-86138443D01*
X95346243Y-86072754D01*
X95346241Y-86072753D01*
X95346240Y-86072753D01*
X95184957Y-86047208D01*
X95136287Y-86039500D01*
X94923713Y-86039500D01*
X94875042Y-86047208D01*
X94713760Y-86072753D01*
X94713757Y-86072754D01*
X94516679Y-86136789D01*
X94511585Y-86138444D01*
X94322179Y-86234951D01*
X94150213Y-86359890D01*
X93999890Y-86510213D01*
X93874949Y-86682182D01*
X93870484Y-86690946D01*
X93822509Y-86741742D01*
X93754688Y-86758536D01*
X93688553Y-86735998D01*
X93649516Y-86690946D01*
X93645050Y-86682182D01*
X93520109Y-86510213D01*
X93369786Y-86359890D01*
X93197820Y-86234951D01*
X93008414Y-86138444D01*
X93008413Y-86138443D01*
X93008412Y-86138443D01*
X92806243Y-86072754D01*
X92806241Y-86072753D01*
X92806240Y-86072753D01*
X92644957Y-86047208D01*
X92596287Y-86039500D01*
X92383713Y-86039500D01*
X92335042Y-86047208D01*
X92173760Y-86072753D01*
X92173757Y-86072754D01*
X91976679Y-86136789D01*
X91971585Y-86138444D01*
X91782179Y-86234951D01*
X91610215Y-86359889D01*
X91496285Y-86473819D01*
X91434962Y-86507303D01*
X91365270Y-86502319D01*
X91309337Y-86460447D01*
X91292422Y-86429470D01*
X91243354Y-86297913D01*
X91243350Y-86297906D01*
X91157190Y-86182812D01*
X91157187Y-86182809D01*
X91042093Y-86096649D01*
X91042086Y-86096645D01*
X90907379Y-86046403D01*
X90907372Y-86046401D01*
X90847844Y-86040000D01*
X90200000Y-86040000D01*
X90200000Y-86956988D01*
X90142993Y-86924075D01*
X90015826Y-86890000D01*
X89884174Y-86890000D01*
X89757007Y-86924075D01*
X89700000Y-86956988D01*
X89700000Y-86040000D01*
X89052155Y-86040000D01*
X88992627Y-86046401D01*
X88992620Y-86046403D01*
X88857913Y-86096645D01*
X88857906Y-86096649D01*
X88742812Y-86182809D01*
X88742809Y-86182812D01*
X88656649Y-86297906D01*
X88656646Y-86297912D01*
X88607577Y-86429471D01*
X88565705Y-86485404D01*
X88500241Y-86509821D01*
X88431968Y-86494969D01*
X88403714Y-86473818D01*
X88289786Y-86359890D01*
X88117820Y-86234951D01*
X87928414Y-86138444D01*
X87928413Y-86138443D01*
X87928412Y-86138443D01*
X87726243Y-86072754D01*
X87726241Y-86072753D01*
X87726240Y-86072753D01*
X87564957Y-86047208D01*
X87516287Y-86039500D01*
X87303713Y-86039500D01*
X87255042Y-86047208D01*
X87093760Y-86072753D01*
X87093757Y-86072754D01*
X86896679Y-86136789D01*
X86891585Y-86138444D01*
X86702179Y-86234951D01*
X86530213Y-86359890D01*
X86379890Y-86510213D01*
X86254949Y-86682182D01*
X86250484Y-86690946D01*
X86202509Y-86741742D01*
X86134688Y-86758536D01*
X86068553Y-86735998D01*
X86029516Y-86690946D01*
X86025050Y-86682182D01*
X85900109Y-86510213D01*
X85749786Y-86359890D01*
X85577820Y-86234951D01*
X85388414Y-86138444D01*
X85388413Y-86138443D01*
X85388412Y-86138443D01*
X85186243Y-86072754D01*
X85186241Y-86072753D01*
X85186240Y-86072753D01*
X85024957Y-86047208D01*
X84976287Y-86039500D01*
X84763713Y-86039500D01*
X84715042Y-86047208D01*
X84553760Y-86072753D01*
X84553757Y-86072754D01*
X84356679Y-86136789D01*
X84351585Y-86138444D01*
X84162179Y-86234951D01*
X83990213Y-86359890D01*
X83839890Y-86510213D01*
X83714951Y-86682179D01*
X83618444Y-86871585D01*
X83552753Y-87073760D01*
X83519500Y-87283713D01*
X83519500Y-87496286D01*
X83552753Y-87706239D01*
X83618444Y-87908414D01*
X83714951Y-88097820D01*
X83839890Y-88269786D01*
X83990213Y-88420109D01*
X84162184Y-88545051D01*
X84162184Y-88545052D01*
X84201793Y-88565233D01*
X84252590Y-88613206D01*
X84269500Y-88675718D01*
X84269500Y-94023330D01*
X84269499Y-94023348D01*
X84269499Y-94189054D01*
X84269498Y-94189054D01*
X84269499Y-94189057D01*
X84310423Y-94341785D01*
X84310424Y-94341786D01*
X84315104Y-94349894D01*
X84315106Y-94349896D01*
X84389477Y-94478712D01*
X84389481Y-94478717D01*
X84508349Y-94597585D01*
X84508355Y-94597590D01*
X89886241Y-99975476D01*
X89919726Y-100036799D01*
X89916492Y-100101473D01*
X89902753Y-100143757D01*
X89869500Y-100353713D01*
X89869500Y-100566286D01*
X89896744Y-100738301D01*
X89902754Y-100776243D01*
X89930321Y-100861086D01*
X89968444Y-100978414D01*
X90064951Y-101167820D01*
X90189890Y-101339786D01*
X90340213Y-101490109D01*
X90512182Y-101615050D01*
X90520946Y-101619516D01*
X90571742Y-101667491D01*
X90588536Y-101735312D01*
X90565998Y-101801447D01*
X90520946Y-101840484D01*
X90512182Y-101844949D01*
X90340213Y-101969890D01*
X90189890Y-102120213D01*
X90064951Y-102292179D01*
X89968444Y-102481585D01*
X89902753Y-102683760D01*
X89869500Y-102893713D01*
X89869500Y-103106286D01*
X89902324Y-103313533D01*
X89902754Y-103316243D01*
X89965664Y-103509860D01*
X89968444Y-103518414D01*
X90064951Y-103707820D01*
X90189890Y-103879786D01*
X90340213Y-104030109D01*
X90512179Y-104155048D01*
X90512181Y-104155049D01*
X90512184Y-104155051D01*
X90701588Y-104251557D01*
X90903757Y-104317246D01*
X91113713Y-104350500D01*
X91113714Y-104350500D01*
X91326286Y-104350500D01*
X91326287Y-104350500D01*
X91536243Y-104317246D01*
X91738412Y-104251557D01*
X91927816Y-104155051D01*
X92049990Y-104066287D01*
X92099784Y-104030110D01*
X92099784Y-104030109D01*
X92099792Y-104030104D01*
X92213329Y-103916566D01*
X92274648Y-103883084D01*
X92344340Y-103888068D01*
X92400274Y-103929939D01*
X92417189Y-103960917D01*
X92466202Y-104092328D01*
X92466206Y-104092335D01*
X92552452Y-104207544D01*
X92552455Y-104207547D01*
X92667664Y-104293793D01*
X92667671Y-104293797D01*
X92802517Y-104344091D01*
X92802516Y-104344091D01*
X92809444Y-104344835D01*
X92862127Y-104350500D01*
X94657872Y-104350499D01*
X94717483Y-104344091D01*
X94852331Y-104293796D01*
X94967546Y-104207546D01*
X95053796Y-104092331D01*
X95104091Y-103957483D01*
X95110500Y-103897873D01*
X95110499Y-102550095D01*
X95130184Y-102483057D01*
X95146813Y-102462420D01*
X96571506Y-101037728D01*
X96571511Y-101037724D01*
X96581714Y-101027520D01*
X96581716Y-101027520D01*
X96693520Y-100915716D01*
X96750162Y-100817609D01*
X96768113Y-100786517D01*
X96818680Y-100738301D01*
X96887287Y-100725078D01*
X96952152Y-100751046D01*
X96992680Y-100807961D01*
X96999500Y-100848517D01*
X96999500Y-105493038D01*
X96998720Y-105506922D01*
X96998720Y-105506923D01*
X96988540Y-105597264D01*
X96982362Y-105624333D01*
X96954648Y-105703537D01*
X96942600Y-105728555D01*
X96897957Y-105799604D01*
X96880644Y-105821313D01*
X96821313Y-105880644D01*
X96799604Y-105897957D01*
X96728555Y-105942600D01*
X96703537Y-105954648D01*
X96624333Y-105982362D01*
X96597264Y-105988540D01*
X96517075Y-105997576D01*
X96506921Y-105998720D01*
X96493038Y-105999500D01*
X78112562Y-105999500D01*
X78045523Y-105979815D01*
X77999768Y-105927011D01*
X77989824Y-105857853D01*
X78018849Y-105794297D01*
X78077627Y-105756523D01*
X78080434Y-105755734D01*
X78294419Y-105698398D01*
X78536697Y-105598043D01*
X78763803Y-105466924D01*
X78971851Y-105307282D01*
X78971855Y-105307277D01*
X78971860Y-105307274D01*
X79157274Y-105121860D01*
X79157277Y-105121855D01*
X79157282Y-105121851D01*
X79316924Y-104913803D01*
X79448043Y-104686697D01*
X79459719Y-104658510D01*
X79487490Y-104591463D01*
X79548398Y-104444419D01*
X79616270Y-104191116D01*
X79650500Y-103931120D01*
X79650500Y-103668880D01*
X79616270Y-103408884D01*
X79548398Y-103155581D01*
X79527980Y-103106287D01*
X79448046Y-102913309D01*
X79448041Y-102913299D01*
X79316924Y-102686196D01*
X79159921Y-102481588D01*
X79157282Y-102478149D01*
X79157281Y-102478148D01*
X79157274Y-102478140D01*
X78971860Y-102292726D01*
X78971851Y-102292718D01*
X78763803Y-102133075D01*
X78536700Y-102001958D01*
X78536690Y-102001953D01*
X78294428Y-101901605D01*
X78294421Y-101901603D01*
X78294419Y-101901602D01*
X78041116Y-101833730D01*
X77983339Y-101826123D01*
X77781127Y-101799500D01*
X77781120Y-101799500D01*
X77518880Y-101799500D01*
X77518872Y-101799500D01*
X77287772Y-101829926D01*
X77258884Y-101833730D01*
X77100159Y-101876260D01*
X77005581Y-101901602D01*
X77005571Y-101901605D01*
X76763309Y-102001953D01*
X76763299Y-102001958D01*
X76536196Y-102133075D01*
X76328148Y-102292718D01*
X76142718Y-102478148D01*
X75983075Y-102686196D01*
X75851958Y-102913299D01*
X75851953Y-102913309D01*
X75751605Y-103155571D01*
X75751602Y-103155581D01*
X75705112Y-103329087D01*
X75683730Y-103408885D01*
X75649500Y-103668872D01*
X75649500Y-103931127D01*
X75670436Y-104090140D01*
X75683730Y-104191116D01*
X75726437Y-104350500D01*
X75751602Y-104444418D01*
X75751605Y-104444428D01*
X75851953Y-104686690D01*
X75851958Y-104686700D01*
X75983075Y-104913803D01*
X76142718Y-105121851D01*
X76142726Y-105121860D01*
X76328140Y-105307274D01*
X76328148Y-105307281D01*
X76328149Y-105307282D01*
X76332343Y-105310500D01*
X76536196Y-105466924D01*
X76763299Y-105598041D01*
X76763309Y-105598046D01*
X77005571Y-105698394D01*
X77005581Y-105698398D01*
X77219532Y-105755725D01*
X77279192Y-105792090D01*
X77309721Y-105854937D01*
X77301426Y-105924312D01*
X77256941Y-105978190D01*
X77190389Y-105999465D01*
X77187438Y-105999500D01*
X55172352Y-105999500D01*
X55105313Y-105979815D01*
X55059558Y-105927011D01*
X55049614Y-105857853D01*
X55078639Y-105794297D01*
X55106380Y-105770506D01*
X55173144Y-105728555D01*
X55354956Y-105614315D01*
X55636003Y-105390188D01*
X55890188Y-105136003D01*
X56114315Y-104854956D01*
X56305566Y-104550582D01*
X56461536Y-104226708D01*
X56580262Y-103887408D01*
X56660252Y-103536948D01*
X56700500Y-103179736D01*
X56700500Y-102820264D01*
X56660252Y-102463052D01*
X56580262Y-102112592D01*
X56565688Y-102070943D01*
X56550703Y-102028119D01*
X56461536Y-101773292D01*
X56307448Y-101453326D01*
X56305567Y-101449420D01*
X56299592Y-101439911D01*
X56114315Y-101145044D01*
X55890188Y-100863997D01*
X55636003Y-100609812D01*
X55354956Y-100385685D01*
X55050582Y-100194434D01*
X55050579Y-100194432D01*
X54726711Y-100038465D01*
X54387419Y-99919741D01*
X54387407Y-99919737D01*
X54036951Y-99839748D01*
X54036935Y-99839746D01*
X53679740Y-99799500D01*
X53679736Y-99799500D01*
X53320264Y-99799500D01*
X53320259Y-99799500D01*
X52963064Y-99839746D01*
X52963048Y-99839748D01*
X52612592Y-99919737D01*
X52612580Y-99919741D01*
X52273288Y-100038465D01*
X51949420Y-100194432D01*
X51645045Y-100385684D01*
X51363997Y-100609811D01*
X51109811Y-100863997D01*
X50885684Y-101145045D01*
X50729494Y-101393620D01*
X50677159Y-101439911D01*
X50608106Y-101450559D01*
X50544257Y-101422184D01*
X50505885Y-101363794D01*
X50500500Y-101327648D01*
X50500500Y-55672351D01*
X50520185Y-55605312D01*
X50572989Y-55559557D01*
X50642147Y-55549613D01*
X50705703Y-55578638D01*
X50729492Y-55606377D01*
X50885685Y-55854956D01*
X51109812Y-56136003D01*
X51363997Y-56390188D01*
X51645044Y-56614315D01*
X51949418Y-56805566D01*
X52273292Y-56961536D01*
X52486513Y-57036145D01*
X52612580Y-57080258D01*
X52612592Y-57080262D01*
X52963052Y-57160252D01*
X53320260Y-57200499D01*
X53320261Y-57200500D01*
X53320264Y-57200500D01*
X53679739Y-57200500D01*
X53679739Y-57200499D01*
X54036948Y-57160252D01*
X54387408Y-57080262D01*
X54726708Y-56961536D01*
X55050582Y-56805566D01*
X55354956Y-56614315D01*
X55636003Y-56390188D01*
X55890188Y-56136003D01*
X56114315Y-55854956D01*
X56305566Y-55550582D01*
X56461536Y-55226708D01*
X56580262Y-54887408D01*
X56660252Y-54536948D01*
X56700500Y-54179736D01*
X56700500Y-53820264D01*
X56660252Y-53463052D01*
X56580262Y-53112592D01*
X56579101Y-53109275D01*
X56550703Y-53028119D01*
X56461536Y-52773292D01*
X56305566Y-52449418D01*
X56114315Y-52145044D01*
X55890188Y-51863997D01*
X55636003Y-51609812D01*
X55621799Y-51598485D01*
X55418395Y-51436276D01*
X55354956Y-51385685D01*
X55154643Y-51259820D01*
X55106380Y-51229494D01*
X55060089Y-51177159D01*
X55049441Y-51108106D01*
X55077816Y-51044257D01*
X55136206Y-51005885D01*
X55172352Y-51000500D01*
X58135552Y-51000500D01*
X58202591Y-51020185D01*
G37*
%TD.AperFunction*%
%TA.AperFunction,Conductor*%
G36*
X128300000Y-88740000D02*
G01*
X128947828Y-88740000D01*
X128947844Y-88739999D01*
X129007372Y-88733598D01*
X129007379Y-88733596D01*
X129142086Y-88683354D01*
X129142093Y-88683350D01*
X129257187Y-88597190D01*
X129257190Y-88597187D01*
X129343350Y-88482093D01*
X129343354Y-88482086D01*
X129392422Y-88350529D01*
X129434293Y-88294595D01*
X129499757Y-88270178D01*
X129568030Y-88285030D01*
X129596285Y-88306181D01*
X129710213Y-88420109D01*
X129882179Y-88545048D01*
X129882181Y-88545049D01*
X129882184Y-88545051D01*
X130071588Y-88641557D01*
X130273757Y-88707246D01*
X130483713Y-88740500D01*
X130483714Y-88740500D01*
X130696286Y-88740500D01*
X130696287Y-88740500D01*
X130906243Y-88707246D01*
X131108412Y-88641557D01*
X131297816Y-88545051D01*
X131384478Y-88482088D01*
X131469786Y-88420109D01*
X131469788Y-88420106D01*
X131469792Y-88420104D01*
X131620104Y-88269792D01*
X131620106Y-88269788D01*
X131620109Y-88269786D01*
X131745048Y-88097820D01*
X131745047Y-88097820D01*
X131745051Y-88097816D01*
X131749514Y-88089054D01*
X131797488Y-88038259D01*
X131865308Y-88021463D01*
X131931444Y-88043999D01*
X131970484Y-88089054D01*
X131974949Y-88097816D01*
X132029683Y-88173152D01*
X132053163Y-88238956D01*
X132037338Y-88307010D01*
X132017046Y-88333717D01*
X129827819Y-90522944D01*
X129766496Y-90556429D01*
X129715947Y-90556880D01*
X129678846Y-90549500D01*
X129678842Y-90549500D01*
X129521158Y-90549500D01*
X129521155Y-90549500D01*
X129366510Y-90580261D01*
X129366498Y-90580264D01*
X129220827Y-90640602D01*
X129220814Y-90640609D01*
X129089711Y-90728210D01*
X129089707Y-90728213D01*
X128978213Y-90839707D01*
X128978210Y-90839711D01*
X128890609Y-90970814D01*
X128890602Y-90970827D01*
X128830264Y-91116498D01*
X128830261Y-91116510D01*
X128799500Y-91271153D01*
X128799500Y-91428846D01*
X128830261Y-91583489D01*
X128830264Y-91583501D01*
X128890602Y-91729172D01*
X128890609Y-91729185D01*
X128978210Y-91860288D01*
X128978213Y-91860292D01*
X129089707Y-91971786D01*
X129089711Y-91971789D01*
X129220814Y-92059390D01*
X129220827Y-92059397D01*
X129294013Y-92089711D01*
X129366503Y-92119737D01*
X129521153Y-92150499D01*
X129521156Y-92150500D01*
X129521158Y-92150500D01*
X129678844Y-92150500D01*
X129678845Y-92150499D01*
X129833497Y-92119737D01*
X129979179Y-92059394D01*
X130110289Y-91971789D01*
X130221789Y-91860289D01*
X130270864Y-91786843D01*
X130281138Y-91771467D01*
X130296557Y-91752678D01*
X130330520Y-91718716D01*
X130330521Y-91718713D01*
X133293881Y-88755352D01*
X133355202Y-88721869D01*
X133362119Y-88720569D01*
X133446243Y-88707246D01*
X133648412Y-88641557D01*
X133837816Y-88545051D01*
X133924478Y-88482088D01*
X134009786Y-88420109D01*
X134009788Y-88420106D01*
X134009792Y-88420104D01*
X134160104Y-88269792D01*
X134275182Y-88111398D01*
X134330511Y-88068734D01*
X134400124Y-88062755D01*
X134461920Y-88095360D01*
X134496277Y-88156199D01*
X134499500Y-88184285D01*
X134499500Y-102996753D01*
X134499330Y-103003243D01*
X134483407Y-103307046D01*
X134482050Y-103319953D01*
X134434971Y-103617205D01*
X134432273Y-103629902D01*
X134354374Y-103920623D01*
X134350363Y-103932966D01*
X134242510Y-104213935D01*
X134237231Y-104225793D01*
X134100591Y-104493963D01*
X134094101Y-104505203D01*
X133930187Y-104757608D01*
X133922558Y-104768109D01*
X133733149Y-105002010D01*
X133724464Y-105011655D01*
X133511655Y-105224464D01*
X133502010Y-105233149D01*
X133268109Y-105422558D01*
X133257608Y-105430187D01*
X133005203Y-105594101D01*
X132993963Y-105600591D01*
X132725793Y-105737231D01*
X132713935Y-105742510D01*
X132432966Y-105850363D01*
X132420623Y-105854374D01*
X132129902Y-105932273D01*
X132117205Y-105934971D01*
X131819953Y-105982050D01*
X131807046Y-105983407D01*
X131503244Y-105999330D01*
X131496754Y-105999500D01*
X113172352Y-105999500D01*
X113105313Y-105979815D01*
X113059558Y-105927011D01*
X113049614Y-105857853D01*
X113078639Y-105794297D01*
X113106380Y-105770506D01*
X113173144Y-105728555D01*
X113354956Y-105614315D01*
X113636003Y-105390188D01*
X113890188Y-105136003D01*
X114114315Y-104854956D01*
X114305566Y-104550582D01*
X114461536Y-104226708D01*
X114580262Y-103887408D01*
X114660252Y-103536948D01*
X114700500Y-103179736D01*
X114700500Y-102820264D01*
X114660252Y-102463052D01*
X114580262Y-102112592D01*
X114565688Y-102070943D01*
X114550703Y-102028119D01*
X114461536Y-101773292D01*
X114307448Y-101453326D01*
X114305567Y-101449420D01*
X114299592Y-101439911D01*
X114114315Y-101145044D01*
X113890188Y-100863997D01*
X113636003Y-100609812D01*
X113354956Y-100385685D01*
X113050582Y-100194434D01*
X113050579Y-100194432D01*
X112726711Y-100038465D01*
X112387419Y-99919741D01*
X112387407Y-99919737D01*
X112036951Y-99839748D01*
X112036935Y-99839746D01*
X111679740Y-99799500D01*
X111679736Y-99799500D01*
X111320264Y-99799500D01*
X111320259Y-99799500D01*
X110963064Y-99839746D01*
X110963048Y-99839748D01*
X110612592Y-99919737D01*
X110612580Y-99919741D01*
X110273288Y-100038465D01*
X109949420Y-100194432D01*
X109645045Y-100385684D01*
X109363997Y-100609811D01*
X109109811Y-100863997D01*
X108885684Y-101145045D01*
X108694432Y-101449420D01*
X108538465Y-101773288D01*
X108419741Y-102112580D01*
X108419737Y-102112592D01*
X108339748Y-102463048D01*
X108339746Y-102463064D01*
X108299500Y-102820259D01*
X108299500Y-103179740D01*
X108339746Y-103536935D01*
X108339748Y-103536951D01*
X108419737Y-103887407D01*
X108419741Y-103887419D01*
X108538465Y-104226711D01*
X108694432Y-104550579D01*
X108694434Y-104550582D01*
X108885685Y-104854956D01*
X109109812Y-105136003D01*
X109363997Y-105390188D01*
X109645044Y-105614315D01*
X109826420Y-105728281D01*
X109893620Y-105770506D01*
X109939911Y-105822841D01*
X109950559Y-105891894D01*
X109922184Y-105955743D01*
X109863794Y-105994115D01*
X109827648Y-105999500D01*
X108506962Y-105999500D01*
X108493078Y-105998720D01*
X108480553Y-105997308D01*
X108402735Y-105988540D01*
X108375666Y-105982362D01*
X108296462Y-105954648D01*
X108271444Y-105942600D01*
X108200395Y-105897957D01*
X108178686Y-105880644D01*
X108119355Y-105821313D01*
X108102042Y-105799604D01*
X108098707Y-105794297D01*
X108057398Y-105728553D01*
X108045351Y-105703537D01*
X108043552Y-105698397D01*
X108017636Y-105624331D01*
X108011459Y-105597263D01*
X108001280Y-105506922D01*
X108000500Y-105493038D01*
X108000500Y-91392682D01*
X107969955Y-91180235D01*
X107969952Y-91180225D01*
X107951242Y-91116503D01*
X107909484Y-90974290D01*
X107909483Y-90974288D01*
X107909482Y-90974284D01*
X107820327Y-90779061D01*
X107820320Y-90779048D01*
X107764547Y-90692264D01*
X107704281Y-90598487D01*
X107640243Y-90524583D01*
X107563724Y-90436275D01*
X107401514Y-90295720D01*
X107401513Y-90295719D01*
X107336991Y-90254253D01*
X107220951Y-90179679D01*
X107220938Y-90179672D01*
X107025715Y-90090517D01*
X106819774Y-90030047D01*
X106819764Y-90030044D01*
X106628754Y-90002582D01*
X106607318Y-89999500D01*
X106565892Y-89999500D01*
X98649096Y-89999500D01*
X98582057Y-89979815D01*
X98536302Y-89927011D01*
X98526358Y-89857853D01*
X98555383Y-89794297D01*
X98561415Y-89787819D01*
X98649756Y-89699478D01*
X99625478Y-88723755D01*
X99686799Y-88690272D01*
X99751473Y-88693506D01*
X99793757Y-88707246D01*
X100003713Y-88740500D01*
X100003714Y-88740500D01*
X100216286Y-88740500D01*
X100216287Y-88740500D01*
X100426243Y-88707246D01*
X100628412Y-88641557D01*
X100817816Y-88545051D01*
X100904478Y-88482088D01*
X100989784Y-88420110D01*
X100989784Y-88420109D01*
X100989792Y-88420104D01*
X101103717Y-88306178D01*
X101165036Y-88272696D01*
X101234728Y-88277680D01*
X101290662Y-88319551D01*
X101307577Y-88350528D01*
X101356646Y-88482088D01*
X101356649Y-88482093D01*
X101442809Y-88597187D01*
X101442812Y-88597190D01*
X101557906Y-88683350D01*
X101557913Y-88683354D01*
X101692620Y-88733596D01*
X101692627Y-88733598D01*
X101752155Y-88739999D01*
X101752172Y-88740000D01*
X102400000Y-88740000D01*
X102400000Y-87823012D01*
X102457007Y-87855925D01*
X102584174Y-87890000D01*
X102715826Y-87890000D01*
X102842993Y-87855925D01*
X102900000Y-87823012D01*
X102900000Y-88740000D01*
X103547828Y-88740000D01*
X103547844Y-88739999D01*
X103607372Y-88733598D01*
X103607379Y-88733596D01*
X103742086Y-88683354D01*
X103742093Y-88683350D01*
X103857187Y-88597190D01*
X103857190Y-88597187D01*
X103943350Y-88482093D01*
X103943354Y-88482086D01*
X103992422Y-88350529D01*
X104034293Y-88294595D01*
X104099757Y-88270178D01*
X104168030Y-88285030D01*
X104196285Y-88306181D01*
X104310213Y-88420109D01*
X104482179Y-88545048D01*
X104482181Y-88545049D01*
X104482184Y-88545051D01*
X104671588Y-88641557D01*
X104873757Y-88707246D01*
X105083713Y-88740500D01*
X105083714Y-88740500D01*
X105296286Y-88740500D01*
X105296287Y-88740500D01*
X105506243Y-88707246D01*
X105708412Y-88641557D01*
X105897816Y-88545051D01*
X105984478Y-88482088D01*
X106069786Y-88420109D01*
X106069788Y-88420106D01*
X106069792Y-88420104D01*
X106220104Y-88269792D01*
X106220106Y-88269788D01*
X106220109Y-88269786D01*
X106345048Y-88097820D01*
X106345047Y-88097820D01*
X106345051Y-88097816D01*
X106349514Y-88089054D01*
X106397488Y-88038259D01*
X106465308Y-88021463D01*
X106531444Y-88043999D01*
X106570486Y-88089056D01*
X106574951Y-88097820D01*
X106699890Y-88269786D01*
X106850213Y-88420109D01*
X107022179Y-88545048D01*
X107022181Y-88545049D01*
X107022184Y-88545051D01*
X107211588Y-88641557D01*
X107413757Y-88707246D01*
X107623713Y-88740500D01*
X107623714Y-88740500D01*
X107836286Y-88740500D01*
X107836287Y-88740500D01*
X108046243Y-88707246D01*
X108248412Y-88641557D01*
X108437816Y-88545051D01*
X108524478Y-88482088D01*
X108609786Y-88420109D01*
X108609788Y-88420106D01*
X108609792Y-88420104D01*
X108760104Y-88269792D01*
X108760106Y-88269788D01*
X108760109Y-88269786D01*
X108885048Y-88097820D01*
X108885047Y-88097820D01*
X108885051Y-88097816D01*
X108889514Y-88089054D01*
X108937488Y-88038259D01*
X109005308Y-88021463D01*
X109071444Y-88043999D01*
X109110486Y-88089056D01*
X109114951Y-88097820D01*
X109239890Y-88269786D01*
X109390213Y-88420109D01*
X109562179Y-88545048D01*
X109562181Y-88545049D01*
X109562184Y-88545051D01*
X109751588Y-88641557D01*
X109953757Y-88707246D01*
X110163713Y-88740500D01*
X110163714Y-88740500D01*
X110376286Y-88740500D01*
X110376287Y-88740500D01*
X110586243Y-88707246D01*
X110788412Y-88641557D01*
X110977816Y-88545051D01*
X111064478Y-88482088D01*
X111149786Y-88420109D01*
X111149788Y-88420106D01*
X111149792Y-88420104D01*
X111300104Y-88269792D01*
X111300106Y-88269788D01*
X111300109Y-88269786D01*
X111425048Y-88097820D01*
X111425047Y-88097820D01*
X111425051Y-88097816D01*
X111429514Y-88089054D01*
X111477488Y-88038259D01*
X111545308Y-88021463D01*
X111611444Y-88043999D01*
X111650486Y-88089056D01*
X111654951Y-88097820D01*
X111779890Y-88269786D01*
X111930213Y-88420109D01*
X112102179Y-88545048D01*
X112102181Y-88545049D01*
X112102184Y-88545051D01*
X112291588Y-88641557D01*
X112493757Y-88707246D01*
X112703713Y-88740500D01*
X112703714Y-88740500D01*
X112916286Y-88740500D01*
X112916287Y-88740500D01*
X113126243Y-88707246D01*
X113328412Y-88641557D01*
X113517816Y-88545051D01*
X113604478Y-88482088D01*
X113689784Y-88420110D01*
X113689784Y-88420109D01*
X113689792Y-88420104D01*
X113803717Y-88306178D01*
X113865036Y-88272696D01*
X113934728Y-88277680D01*
X113990662Y-88319551D01*
X114007577Y-88350528D01*
X114056646Y-88482088D01*
X114056649Y-88482093D01*
X114142809Y-88597187D01*
X114142812Y-88597190D01*
X114257906Y-88683350D01*
X114257913Y-88683354D01*
X114392620Y-88733596D01*
X114392627Y-88733598D01*
X114452155Y-88739999D01*
X114452172Y-88740000D01*
X115100000Y-88740000D01*
X115100000Y-87823012D01*
X115157007Y-87855925D01*
X115284174Y-87890000D01*
X115415826Y-87890000D01*
X115542993Y-87855925D01*
X115600000Y-87823012D01*
X115600000Y-88740000D01*
X116247828Y-88740000D01*
X116247844Y-88739999D01*
X116307372Y-88733598D01*
X116307379Y-88733596D01*
X116442086Y-88683354D01*
X116442093Y-88683350D01*
X116557187Y-88597190D01*
X116557190Y-88597187D01*
X116643350Y-88482093D01*
X116643354Y-88482086D01*
X116692422Y-88350529D01*
X116734293Y-88294595D01*
X116799757Y-88270178D01*
X116868030Y-88285030D01*
X116896285Y-88306181D01*
X117010213Y-88420109D01*
X117182179Y-88545048D01*
X117182181Y-88545049D01*
X117182184Y-88545051D01*
X117371588Y-88641557D01*
X117573757Y-88707246D01*
X117783713Y-88740500D01*
X117783714Y-88740500D01*
X117996286Y-88740500D01*
X117996287Y-88740500D01*
X118206243Y-88707246D01*
X118408412Y-88641557D01*
X118597816Y-88545051D01*
X118684478Y-88482088D01*
X118769786Y-88420109D01*
X118769788Y-88420106D01*
X118769792Y-88420104D01*
X118920104Y-88269792D01*
X118920106Y-88269788D01*
X118920109Y-88269786D01*
X119045048Y-88097820D01*
X119045047Y-88097820D01*
X119045051Y-88097816D01*
X119049514Y-88089054D01*
X119097488Y-88038259D01*
X119165308Y-88021463D01*
X119231444Y-88043999D01*
X119270486Y-88089056D01*
X119274951Y-88097820D01*
X119399890Y-88269786D01*
X119550213Y-88420109D01*
X119722179Y-88545048D01*
X119722181Y-88545049D01*
X119722184Y-88545051D01*
X119911588Y-88641557D01*
X120113757Y-88707246D01*
X120323713Y-88740500D01*
X120323714Y-88740500D01*
X120536286Y-88740500D01*
X120536287Y-88740500D01*
X120746243Y-88707246D01*
X120937185Y-88645204D01*
X121007023Y-88643210D01*
X121066856Y-88679290D01*
X121097684Y-88741991D01*
X121099500Y-88763136D01*
X121099500Y-92443330D01*
X121099499Y-92443348D01*
X121099499Y-92609054D01*
X121099498Y-92609054D01*
X121140423Y-92761785D01*
X121169358Y-92811900D01*
X121169359Y-92811904D01*
X121169360Y-92811904D01*
X121181826Y-92833497D01*
X121219479Y-92898714D01*
X121219481Y-92898717D01*
X121338349Y-93017585D01*
X121338355Y-93017590D01*
X123758583Y-95437819D01*
X123792068Y-95499142D01*
X123787084Y-95568834D01*
X123745212Y-95624767D01*
X123679748Y-95649184D01*
X123670902Y-95649500D01*
X123621155Y-95649500D01*
X123466510Y-95680261D01*
X123466498Y-95680264D01*
X123320827Y-95740602D01*
X123320814Y-95740609D01*
X123189711Y-95828210D01*
X123189707Y-95828213D01*
X123078213Y-95939707D01*
X123078210Y-95939711D01*
X122990609Y-96070814D01*
X122990602Y-96070827D01*
X122930264Y-96216498D01*
X122930261Y-96216510D01*
X122899500Y-96371153D01*
X122899500Y-96528846D01*
X122930261Y-96683489D01*
X122930264Y-96683501D01*
X122990602Y-96829172D01*
X122990609Y-96829185D01*
X123078602Y-96960874D01*
X123099480Y-97027551D01*
X123099500Y-97029765D01*
X123099500Y-102063330D01*
X123099499Y-102063348D01*
X123099499Y-102229054D01*
X123099498Y-102229054D01*
X123140423Y-102381785D01*
X123160783Y-102417049D01*
X123160782Y-102417049D01*
X123160784Y-102417051D01*
X123164797Y-102424002D01*
X123181268Y-102491902D01*
X123158415Y-102557929D01*
X123103493Y-102601118D01*
X123057409Y-102610000D01*
X122863754Y-102610000D01*
X122653872Y-102643242D01*
X122653869Y-102643242D01*
X122451782Y-102708904D01*
X122262439Y-102805380D01*
X122208282Y-102844727D01*
X122208282Y-102844728D01*
X122840591Y-103477037D01*
X122777007Y-103494075D01*
X122662993Y-103559901D01*
X122569901Y-103652993D01*
X122504075Y-103767007D01*
X122487037Y-103830591D01*
X121854728Y-103198282D01*
X121854727Y-103198282D01*
X121815380Y-103252440D01*
X121815376Y-103252446D01*
X121810760Y-103261505D01*
X121762781Y-103312297D01*
X121694959Y-103329087D01*
X121628826Y-103306543D01*
X121589794Y-103261493D01*
X121585051Y-103252184D01*
X121585049Y-103252181D01*
X121585048Y-103252179D01*
X121460109Y-103080213D01*
X121309794Y-102929898D01*
X121309792Y-102929896D01*
X121281613Y-102909422D01*
X121238949Y-102854094D01*
X121230500Y-102809106D01*
X121230500Y-100030893D01*
X121250185Y-99963854D01*
X121281614Y-99930576D01*
X121309792Y-99910104D01*
X121460104Y-99759792D01*
X121460106Y-99759788D01*
X121460109Y-99759786D01*
X121585048Y-99587820D01*
X121585047Y-99587820D01*
X121585051Y-99587816D01*
X121681557Y-99398412D01*
X121747246Y-99196243D01*
X121780500Y-98986287D01*
X121780500Y-98773713D01*
X121747246Y-98563757D01*
X121681557Y-98361588D01*
X121585051Y-98172184D01*
X121585049Y-98172181D01*
X121585048Y-98172179D01*
X121460109Y-98000213D01*
X121309794Y-97849898D01*
X121309792Y-97849896D01*
X121281613Y-97829422D01*
X121278273Y-97825091D01*
X121273297Y-97822819D01*
X121257166Y-97797719D01*
X121238949Y-97774094D01*
X121237696Y-97767422D01*
X121235523Y-97764041D01*
X121230500Y-97729106D01*
X121230500Y-97490893D01*
X121250185Y-97423854D01*
X121281614Y-97390576D01*
X121309792Y-97370104D01*
X121460104Y-97219792D01*
X121460106Y-97219788D01*
X121460109Y-97219786D01*
X121585048Y-97047820D01*
X121585047Y-97047820D01*
X121585051Y-97047816D01*
X121681557Y-96858412D01*
X121747246Y-96656243D01*
X121780500Y-96446287D01*
X121780500Y-96233713D01*
X121747246Y-96023757D01*
X121681557Y-95821588D01*
X121585051Y-95632184D01*
X121585049Y-95632181D01*
X121585048Y-95632179D01*
X121460109Y-95460213D01*
X121309786Y-95309890D01*
X121137820Y-95184951D01*
X120948414Y-95088444D01*
X120948413Y-95088443D01*
X120948412Y-95088443D01*
X120746243Y-95022754D01*
X120746241Y-95022753D01*
X120746240Y-95022753D01*
X120584328Y-94997109D01*
X120536287Y-94989500D01*
X120323713Y-94989500D01*
X120275672Y-94997109D01*
X120113760Y-95022753D01*
X119911585Y-95088444D01*
X119722179Y-95184951D01*
X119550213Y-95309890D01*
X119399890Y-95460213D01*
X119274949Y-95632182D01*
X119270484Y-95640946D01*
X119222509Y-95691742D01*
X119154688Y-95708536D01*
X119088553Y-95685998D01*
X119049516Y-95640946D01*
X119045050Y-95632182D01*
X118920109Y-95460213D01*
X118769786Y-95309890D01*
X118597820Y-95184951D01*
X118408414Y-95088444D01*
X118408413Y-95088443D01*
X118408412Y-95088443D01*
X118206243Y-95022754D01*
X118206241Y-95022753D01*
X118206240Y-95022753D01*
X118044328Y-94997109D01*
X117996287Y-94989500D01*
X117783713Y-94989500D01*
X117735672Y-94997109D01*
X117573760Y-95022753D01*
X117371585Y-95088444D01*
X117182179Y-95184951D01*
X117010213Y-95309890D01*
X116859890Y-95460213D01*
X116734951Y-95632179D01*
X116638444Y-95821585D01*
X116572753Y-96023760D01*
X116539500Y-96233713D01*
X116539500Y-96446286D01*
X116572606Y-96655312D01*
X116572754Y-96656243D01*
X116628942Y-96829172D01*
X116638444Y-96858414D01*
X116734951Y-97047820D01*
X116859890Y-97219786D01*
X116973430Y-97333326D01*
X117006915Y-97394649D01*
X117001931Y-97464341D01*
X116960059Y-97520274D01*
X116929083Y-97537189D01*
X116797669Y-97586203D01*
X116797664Y-97586206D01*
X116682455Y-97672452D01*
X116682452Y-97672455D01*
X116596206Y-97787664D01*
X116596202Y-97787671D01*
X116545908Y-97922517D01*
X116539501Y-97982116D01*
X116539500Y-97982135D01*
X116539500Y-99777870D01*
X116539501Y-99777876D01*
X116545908Y-99837483D01*
X116596202Y-99972328D01*
X116596206Y-99972335D01*
X116682452Y-100087544D01*
X116682455Y-100087547D01*
X116797664Y-100173793D01*
X116797671Y-100173797D01*
X116932516Y-100224091D01*
X116978757Y-100229063D01*
X117043307Y-100255801D01*
X117083155Y-100313194D01*
X117089500Y-100352352D01*
X117089500Y-102487648D01*
X117069815Y-102554687D01*
X117017011Y-102600442D01*
X116978755Y-102610938D01*
X116932516Y-102615909D01*
X116797671Y-102666202D01*
X116797664Y-102666206D01*
X116682455Y-102752452D01*
X116682452Y-102752455D01*
X116596206Y-102867664D01*
X116596202Y-102867671D01*
X116545908Y-103002517D01*
X116539501Y-103062116D01*
X116539500Y-103062135D01*
X116539500Y-104857870D01*
X116539501Y-104857876D01*
X116545908Y-104917483D01*
X116596202Y-105052328D01*
X116596206Y-105052335D01*
X116682452Y-105167544D01*
X116682455Y-105167547D01*
X116797664Y-105253793D01*
X116797671Y-105253797D01*
X116932517Y-105304091D01*
X116932516Y-105304091D01*
X116939444Y-105304835D01*
X116992127Y-105310500D01*
X118787872Y-105310499D01*
X118847483Y-105304091D01*
X118982331Y-105253796D01*
X119097546Y-105167546D01*
X119183796Y-105052331D01*
X119232810Y-104920916D01*
X119274681Y-104864984D01*
X119340145Y-104840566D01*
X119408418Y-104855417D01*
X119436673Y-104876569D01*
X119550213Y-104990109D01*
X119722179Y-105115048D01*
X119722181Y-105115049D01*
X119722184Y-105115051D01*
X119911588Y-105211557D01*
X120113757Y-105277246D01*
X120323713Y-105310500D01*
X120323714Y-105310500D01*
X120536286Y-105310500D01*
X120536287Y-105310500D01*
X120746243Y-105277246D01*
X120948412Y-105211557D01*
X121137816Y-105115051D01*
X121224138Y-105052335D01*
X121309786Y-104990109D01*
X121309788Y-104990106D01*
X121309792Y-104990104D01*
X121460104Y-104839792D01*
X121460106Y-104839788D01*
X121460109Y-104839786D01*
X121545890Y-104721717D01*
X121585051Y-104667816D01*
X121589793Y-104658508D01*
X121637763Y-104607711D01*
X121705583Y-104590911D01*
X121771719Y-104613445D01*
X121810763Y-104658500D01*
X121815373Y-104667547D01*
X121854728Y-104721716D01*
X122487037Y-104089408D01*
X122504075Y-104152993D01*
X122569901Y-104267007D01*
X122662993Y-104360099D01*
X122777007Y-104425925D01*
X122840590Y-104442962D01*
X122208282Y-105075269D01*
X122208282Y-105075270D01*
X122262449Y-105114624D01*
X122451782Y-105211095D01*
X122653870Y-105276757D01*
X122863754Y-105310000D01*
X123076246Y-105310000D01*
X123286127Y-105276757D01*
X123286130Y-105276757D01*
X123488217Y-105211095D01*
X123677554Y-105114622D01*
X123731716Y-105075270D01*
X123731717Y-105075270D01*
X123099408Y-104442962D01*
X123162993Y-104425925D01*
X123277007Y-104360099D01*
X123370099Y-104267007D01*
X123435925Y-104152993D01*
X123452962Y-104089408D01*
X124085270Y-104721717D01*
X124085270Y-104721716D01*
X124124622Y-104667555D01*
X124129232Y-104658507D01*
X124177205Y-104607709D01*
X124245025Y-104590912D01*
X124311161Y-104613447D01*
X124350204Y-104658504D01*
X124354949Y-104667817D01*
X124479890Y-104839786D01*
X124630213Y-104990109D01*
X124802179Y-105115048D01*
X124802181Y-105115049D01*
X124802184Y-105115051D01*
X124991588Y-105211557D01*
X125193757Y-105277246D01*
X125403713Y-105310500D01*
X125403714Y-105310500D01*
X125616286Y-105310500D01*
X125616287Y-105310500D01*
X125826243Y-105277246D01*
X126028412Y-105211557D01*
X126217816Y-105115051D01*
X126304138Y-105052335D01*
X126389786Y-104990109D01*
X126389788Y-104990106D01*
X126389792Y-104990104D01*
X126540104Y-104839792D01*
X126540106Y-104839788D01*
X126540109Y-104839786D01*
X126665048Y-104667820D01*
X126665047Y-104667820D01*
X126665051Y-104667816D01*
X126669514Y-104659054D01*
X126717488Y-104608259D01*
X126785308Y-104591463D01*
X126851444Y-104613999D01*
X126890486Y-104659056D01*
X126894951Y-104667820D01*
X127019890Y-104839786D01*
X127170213Y-104990109D01*
X127342179Y-105115048D01*
X127342181Y-105115049D01*
X127342184Y-105115051D01*
X127531588Y-105211557D01*
X127733757Y-105277246D01*
X127943713Y-105310500D01*
X127943714Y-105310500D01*
X128156286Y-105310500D01*
X128156287Y-105310500D01*
X128366243Y-105277246D01*
X128568412Y-105211557D01*
X128757816Y-105115051D01*
X128844138Y-105052335D01*
X128929786Y-104990109D01*
X128929788Y-104990106D01*
X128929792Y-104990104D01*
X129080104Y-104839792D01*
X129080106Y-104839788D01*
X129080109Y-104839786D01*
X129205048Y-104667820D01*
X129205047Y-104667820D01*
X129205051Y-104667816D01*
X129209514Y-104659054D01*
X129257488Y-104608259D01*
X129325308Y-104591463D01*
X129391444Y-104613999D01*
X129430486Y-104659056D01*
X129434951Y-104667820D01*
X129559890Y-104839786D01*
X129710213Y-104990109D01*
X129882179Y-105115048D01*
X129882181Y-105115049D01*
X129882184Y-105115051D01*
X130071588Y-105211557D01*
X130273757Y-105277246D01*
X130483713Y-105310500D01*
X130483714Y-105310500D01*
X130696286Y-105310500D01*
X130696287Y-105310500D01*
X130906243Y-105277246D01*
X131108412Y-105211557D01*
X131297816Y-105115051D01*
X131384138Y-105052335D01*
X131469786Y-104990109D01*
X131469788Y-104990106D01*
X131469792Y-104990104D01*
X131620104Y-104839792D01*
X131620106Y-104839788D01*
X131620109Y-104839786D01*
X131745048Y-104667820D01*
X131745047Y-104667820D01*
X131745051Y-104667816D01*
X131841557Y-104478412D01*
X131907246Y-104276243D01*
X131940500Y-104066287D01*
X131940500Y-103853713D01*
X131907246Y-103643757D01*
X131841557Y-103441588D01*
X131745051Y-103252184D01*
X131745049Y-103252181D01*
X131745048Y-103252179D01*
X131620109Y-103080213D01*
X131469786Y-102929890D01*
X131297820Y-102804951D01*
X131108414Y-102708444D01*
X131108413Y-102708443D01*
X131108412Y-102708443D01*
X130906243Y-102642754D01*
X130906241Y-102642753D01*
X130906240Y-102642753D01*
X130744957Y-102617208D01*
X130696287Y-102609500D01*
X130483713Y-102609500D01*
X130435042Y-102617208D01*
X130273760Y-102642753D01*
X130071585Y-102708444D01*
X129882179Y-102804951D01*
X129710213Y-102929890D01*
X129559890Y-103080213D01*
X129434949Y-103252182D01*
X129430484Y-103260946D01*
X129382509Y-103311742D01*
X129314688Y-103328536D01*
X129248553Y-103305998D01*
X129209516Y-103260946D01*
X129205050Y-103252182D01*
X129080109Y-103080213D01*
X128929786Y-102929890D01*
X128757820Y-102804951D01*
X128568414Y-102708444D01*
X128568413Y-102708443D01*
X128568412Y-102708443D01*
X128366243Y-102642754D01*
X128366241Y-102642753D01*
X128366240Y-102642753D01*
X128204957Y-102617208D01*
X128156287Y-102609500D01*
X127943713Y-102609500D01*
X127895042Y-102617208D01*
X127733760Y-102642753D01*
X127531585Y-102708444D01*
X127342179Y-102804951D01*
X127170213Y-102929890D01*
X127019890Y-103080213D01*
X126894949Y-103252182D01*
X126890484Y-103260946D01*
X126842509Y-103311742D01*
X126774688Y-103328536D01*
X126708553Y-103305998D01*
X126669516Y-103260946D01*
X126665050Y-103252182D01*
X126540109Y-103080213D01*
X126389786Y-102929890D01*
X126217820Y-102804951D01*
X126028414Y-102708444D01*
X126028413Y-102708443D01*
X126028412Y-102708443D01*
X125826243Y-102642754D01*
X125826241Y-102642753D01*
X125826240Y-102642753D01*
X125664957Y-102617208D01*
X125616287Y-102609500D01*
X125403713Y-102609500D01*
X125375006Y-102614046D01*
X125193757Y-102642753D01*
X125151473Y-102656492D01*
X125081632Y-102658486D01*
X125025476Y-102626241D01*
X124336819Y-101937583D01*
X124303334Y-101876260D01*
X124300500Y-101849902D01*
X124300500Y-97837336D01*
X124320185Y-97770297D01*
X124372989Y-97724542D01*
X124442147Y-97714598D01*
X124467831Y-97721153D01*
X124502517Y-97734091D01*
X124502516Y-97734091D01*
X124509444Y-97734835D01*
X124562127Y-97740500D01*
X126457872Y-97740499D01*
X126517483Y-97734091D01*
X126652331Y-97683796D01*
X126767546Y-97597546D01*
X126783893Y-97575708D01*
X126839823Y-97533838D01*
X126909515Y-97528852D01*
X126939454Y-97539534D01*
X127131589Y-97637432D01*
X127341164Y-97705526D01*
X127558819Y-97740000D01*
X127779181Y-97740000D01*
X127996835Y-97705526D01*
X128206410Y-97637432D01*
X128402760Y-97537386D01*
X128466513Y-97491066D01*
X128466514Y-97491066D01*
X127757585Y-96782137D01*
X127842694Y-96759333D01*
X127945306Y-96700090D01*
X128029090Y-96616306D01*
X128088333Y-96513694D01*
X128111138Y-96428585D01*
X128494588Y-96812035D01*
X128524837Y-96861394D01*
X128530105Y-96877606D01*
X128616834Y-97047820D01*
X128630187Y-97074025D01*
X128759752Y-97252358D01*
X128759756Y-97252363D01*
X128915636Y-97408243D01*
X128915641Y-97408247D01*
X129037524Y-97496799D01*
X129093978Y-97537815D01*
X129222375Y-97603237D01*
X129290393Y-97637895D01*
X129290396Y-97637896D01*
X129345716Y-97655870D01*
X129500049Y-97706015D01*
X129717778Y-97740500D01*
X129717779Y-97740500D01*
X129938221Y-97740500D01*
X129938222Y-97740500D01*
X130155951Y-97706015D01*
X130365606Y-97637895D01*
X130562022Y-97537815D01*
X130740365Y-97408242D01*
X130819819Y-97328788D01*
X130881142Y-97295303D01*
X130950834Y-97300287D01*
X130995181Y-97328788D01*
X131074636Y-97408243D01*
X131074641Y-97408247D01*
X131196524Y-97496799D01*
X131252978Y-97537815D01*
X131381375Y-97603237D01*
X131449393Y-97637895D01*
X131449396Y-97637896D01*
X131504716Y-97655870D01*
X131659049Y-97706015D01*
X131876778Y-97740500D01*
X131876779Y-97740500D01*
X132097221Y-97740500D01*
X132097222Y-97740500D01*
X132314951Y-97706015D01*
X132524606Y-97637895D01*
X132721022Y-97537815D01*
X132899365Y-97408242D01*
X133055242Y-97252365D01*
X133184815Y-97074022D01*
X133284895Y-96877606D01*
X133353015Y-96667951D01*
X133387500Y-96450222D01*
X133387500Y-96229778D01*
X133353015Y-96012049D01*
X133316093Y-95898412D01*
X133284896Y-95802396D01*
X133284895Y-95802393D01*
X133228514Y-95691742D01*
X133184815Y-95605978D01*
X133168260Y-95583192D01*
X133055247Y-95427641D01*
X133055243Y-95427636D01*
X132899363Y-95271756D01*
X132899358Y-95271752D01*
X132721025Y-95142187D01*
X132721024Y-95142186D01*
X132721022Y-95142185D01*
X132646654Y-95104292D01*
X132524606Y-95042104D01*
X132524603Y-95042103D01*
X132314952Y-94973985D01*
X132206086Y-94956742D01*
X132097222Y-94939500D01*
X131876778Y-94939500D01*
X131836320Y-94945908D01*
X131659045Y-94973985D01*
X131588794Y-94996811D01*
X131518953Y-94998806D01*
X131462796Y-94966561D01*
X127411819Y-90915584D01*
X127378334Y-90854261D01*
X127375500Y-90827903D01*
X127375500Y-88864000D01*
X127395185Y-88796961D01*
X127447989Y-88751206D01*
X127499500Y-88740000D01*
X127800000Y-88740000D01*
X127800000Y-87823012D01*
X127857007Y-87855925D01*
X127984174Y-87890000D01*
X128115826Y-87890000D01*
X128242993Y-87855925D01*
X128300000Y-87823012D01*
X128300000Y-88740000D01*
G37*
%TD.AperFunction*%
%TA.AperFunction,Conductor*%
G36*
X90200000Y-88779402D02*
G01*
X90180315Y-88846441D01*
X90163681Y-88867083D01*
X89219481Y-89811282D01*
X89219479Y-89811285D01*
X89169361Y-89898094D01*
X89169359Y-89898096D01*
X89140425Y-89948209D01*
X89140424Y-89948210D01*
X89140423Y-89948215D01*
X89099499Y-90100943D01*
X89099499Y-90100945D01*
X89099499Y-90269046D01*
X89099500Y-90269059D01*
X89099500Y-93773330D01*
X89099499Y-93773348D01*
X89099499Y-93939054D01*
X89099498Y-93939054D01*
X89126084Y-94038274D01*
X89140423Y-94091785D01*
X89161588Y-94128443D01*
X89214566Y-94220204D01*
X89219479Y-94228714D01*
X89219481Y-94228717D01*
X89338349Y-94347585D01*
X89338355Y-94347590D01*
X89886241Y-94895476D01*
X89919726Y-94956799D01*
X89916492Y-95021473D01*
X89902753Y-95063757D01*
X89869500Y-95273713D01*
X89869500Y-95420902D01*
X89849815Y-95487941D01*
X89797011Y-95533696D01*
X89727853Y-95543640D01*
X89664297Y-95514615D01*
X89657819Y-95508583D01*
X88046819Y-93897583D01*
X88013334Y-93836260D01*
X88010500Y-93809902D01*
X88010500Y-88675718D01*
X88030185Y-88608679D01*
X88078207Y-88565233D01*
X88117815Y-88545052D01*
X88117815Y-88545051D01*
X88117816Y-88545051D01*
X88289792Y-88420104D01*
X88403717Y-88306178D01*
X88465036Y-88272696D01*
X88534728Y-88277680D01*
X88590662Y-88319551D01*
X88607577Y-88350528D01*
X88656646Y-88482088D01*
X88656649Y-88482093D01*
X88742809Y-88597187D01*
X88742812Y-88597190D01*
X88857906Y-88683350D01*
X88857913Y-88683354D01*
X88992620Y-88733596D01*
X88992627Y-88733598D01*
X89052155Y-88739999D01*
X89052172Y-88740000D01*
X89700000Y-88740000D01*
X89700000Y-87823012D01*
X89757007Y-87855925D01*
X89884174Y-87890000D01*
X90015826Y-87890000D01*
X90142993Y-87855925D01*
X90200000Y-87823012D01*
X90200000Y-88779402D01*
G37*
%TD.AperFunction*%
%TA.AperFunction,Conductor*%
G36*
X93294075Y-93032993D02*
G01*
X93359901Y-93147007D01*
X93452993Y-93240099D01*
X93567007Y-93305925D01*
X93630589Y-93322962D01*
X92998282Y-93955269D01*
X92998282Y-93955270D01*
X93052452Y-93994626D01*
X93052451Y-93994626D01*
X93061495Y-93999234D01*
X93112292Y-94047208D01*
X93129087Y-94115029D01*
X93106550Y-94181164D01*
X93061499Y-94220202D01*
X93052182Y-94224949D01*
X92880213Y-94349890D01*
X92729890Y-94500213D01*
X92604949Y-94672182D01*
X92600484Y-94680946D01*
X92552509Y-94731742D01*
X92484688Y-94748536D01*
X92418553Y-94725998D01*
X92379516Y-94680946D01*
X92375050Y-94672182D01*
X92250109Y-94500213D01*
X92099786Y-94349890D01*
X91927817Y-94224949D01*
X91918504Y-94220204D01*
X91867707Y-94172230D01*
X91850912Y-94104409D01*
X91873449Y-94038274D01*
X91918507Y-93999232D01*
X91927555Y-93994622D01*
X91981716Y-93955270D01*
X91981717Y-93955270D01*
X91349409Y-93322962D01*
X91412993Y-93305925D01*
X91527007Y-93240099D01*
X91620099Y-93147007D01*
X91685925Y-93032993D01*
X91702962Y-92969408D01*
X92335270Y-93601717D01*
X92335270Y-93601716D01*
X92374622Y-93547554D01*
X92379514Y-93537954D01*
X92427488Y-93487157D01*
X92495308Y-93470361D01*
X92561444Y-93492897D01*
X92600486Y-93537954D01*
X92605375Y-93547550D01*
X92644728Y-93601716D01*
X93277037Y-92969408D01*
X93294075Y-93032993D01*
G37*
%TD.AperFunction*%
%TA.AperFunction,Conductor*%
G36*
X93831444Y-88043999D02*
G01*
X93870486Y-88089056D01*
X93874951Y-88097820D01*
X93999890Y-88269786D01*
X94150213Y-88420109D01*
X94322184Y-88545051D01*
X94322184Y-88545052D01*
X94361793Y-88565233D01*
X94412590Y-88613206D01*
X94429500Y-88675718D01*
X94429500Y-91467387D01*
X94409815Y-91534426D01*
X94357011Y-91580181D01*
X94287853Y-91590125D01*
X94267183Y-91585318D01*
X94076134Y-91523243D01*
X94076127Y-91523242D01*
X93866246Y-91490000D01*
X93653754Y-91490000D01*
X93443872Y-91523242D01*
X93443869Y-91523242D01*
X93241782Y-91588904D01*
X93052439Y-91685380D01*
X92998282Y-91724727D01*
X92998282Y-91724728D01*
X93630591Y-92357037D01*
X93567007Y-92374075D01*
X93452993Y-92439901D01*
X93359901Y-92532993D01*
X93294075Y-92647007D01*
X93277037Y-92710591D01*
X92644728Y-92078282D01*
X92644727Y-92078282D01*
X92605380Y-92132440D01*
X92600483Y-92142051D01*
X92552506Y-92192845D01*
X92484684Y-92209638D01*
X92418550Y-92187098D01*
X92379516Y-92142048D01*
X92374626Y-92132452D01*
X92335270Y-92078282D01*
X92335269Y-92078282D01*
X91702962Y-92710590D01*
X91685925Y-92647007D01*
X91620099Y-92532993D01*
X91527007Y-92439901D01*
X91412993Y-92374075D01*
X91349407Y-92357036D01*
X91981716Y-91724728D01*
X91927550Y-91685375D01*
X91738217Y-91588904D01*
X91536129Y-91523242D01*
X91326246Y-91490000D01*
X91113754Y-91490000D01*
X90903872Y-91523242D01*
X90903869Y-91523242D01*
X90701782Y-91588904D01*
X90512443Y-91685378D01*
X90497383Y-91696320D01*
X90431576Y-91719798D01*
X90363522Y-91703971D01*
X90314829Y-91653864D01*
X90300500Y-91596000D01*
X90300500Y-90480096D01*
X90320185Y-90413057D01*
X90336814Y-90392420D01*
X92005478Y-88723755D01*
X92066799Y-88690272D01*
X92131473Y-88693506D01*
X92173757Y-88707246D01*
X92383713Y-88740500D01*
X92383714Y-88740500D01*
X92596286Y-88740500D01*
X92596287Y-88740500D01*
X92806243Y-88707246D01*
X93008412Y-88641557D01*
X93197816Y-88545051D01*
X93284478Y-88482088D01*
X93369786Y-88420109D01*
X93369788Y-88420106D01*
X93369792Y-88420104D01*
X93520104Y-88269792D01*
X93520106Y-88269788D01*
X93520109Y-88269786D01*
X93645048Y-88097820D01*
X93645047Y-88097820D01*
X93645051Y-88097816D01*
X93649514Y-88089054D01*
X93697488Y-88038259D01*
X93765308Y-88021463D01*
X93831444Y-88043999D01*
G37*
%TD.AperFunction*%
%TA.AperFunction,Conductor*%
G36*
X133628325Y-73405019D02*
G01*
X133668834Y-73407916D01*
X133724767Y-73449788D01*
X133724767Y-73449790D01*
X133724769Y-73449791D01*
X133729509Y-73462501D01*
X133749184Y-73515252D01*
X133749500Y-73524098D01*
X133749500Y-85869902D01*
X133729815Y-85936941D01*
X133713185Y-85957578D01*
X133658775Y-86011989D01*
X133614522Y-86056242D01*
X133553198Y-86089726D01*
X133488523Y-86086491D01*
X133446245Y-86072754D01*
X133306272Y-86050584D01*
X133236287Y-86039500D01*
X133023713Y-86039500D01*
X132975042Y-86047208D01*
X132813760Y-86072753D01*
X132813757Y-86072754D01*
X132616679Y-86136789D01*
X132611585Y-86138444D01*
X132422179Y-86234951D01*
X132250213Y-86359890D01*
X132099890Y-86510213D01*
X131974949Y-86682182D01*
X131970484Y-86690946D01*
X131922509Y-86741742D01*
X131854688Y-86758536D01*
X131788553Y-86735998D01*
X131749516Y-86690946D01*
X131745050Y-86682182D01*
X131620109Y-86510213D01*
X131469786Y-86359890D01*
X131297820Y-86234951D01*
X131108414Y-86138444D01*
X131108413Y-86138443D01*
X131108412Y-86138443D01*
X130906243Y-86072754D01*
X130906241Y-86072753D01*
X130906240Y-86072753D01*
X130744957Y-86047208D01*
X130696287Y-86039500D01*
X130483713Y-86039500D01*
X130435042Y-86047208D01*
X130273760Y-86072753D01*
X130273757Y-86072754D01*
X130076679Y-86136789D01*
X130071585Y-86138444D01*
X129882179Y-86234951D01*
X129710215Y-86359889D01*
X129596285Y-86473819D01*
X129534962Y-86507303D01*
X129465270Y-86502319D01*
X129409337Y-86460447D01*
X129392422Y-86429470D01*
X129343354Y-86297913D01*
X129343350Y-86297906D01*
X129257190Y-86182812D01*
X129257187Y-86182809D01*
X129142093Y-86096649D01*
X129142086Y-86096645D01*
X129007379Y-86046403D01*
X129007372Y-86046401D01*
X128947844Y-86040000D01*
X128300000Y-86040000D01*
X128300000Y-86956988D01*
X128242993Y-86924075D01*
X128115826Y-86890000D01*
X127984174Y-86890000D01*
X127857007Y-86924075D01*
X127800000Y-86956988D01*
X127800000Y-86040000D01*
X127315599Y-86040000D01*
X127286162Y-86031356D01*
X127256173Y-86024833D01*
X127251156Y-86021077D01*
X127248560Y-86020315D01*
X127227919Y-86003682D01*
X127181820Y-85957584D01*
X127143716Y-85919480D01*
X127143713Y-85919478D01*
X125386819Y-84162584D01*
X125353334Y-84101261D01*
X125350500Y-84074903D01*
X125350500Y-81380521D01*
X125370185Y-81313482D01*
X125422989Y-81267727D01*
X125492147Y-81257783D01*
X125530798Y-81270038D01*
X125550774Y-81280217D01*
X125550777Y-81280217D01*
X125550781Y-81280220D01*
X125653151Y-81313482D01*
X125745465Y-81343477D01*
X125846557Y-81359488D01*
X125947648Y-81375500D01*
X125947649Y-81375500D01*
X126152351Y-81375500D01*
X126152352Y-81375500D01*
X126354534Y-81343477D01*
X126549219Y-81280220D01*
X126731610Y-81187287D01*
X126824590Y-81119732D01*
X126897213Y-81066971D01*
X126897215Y-81066968D01*
X126897219Y-81066966D01*
X127041966Y-80922219D01*
X127041968Y-80922215D01*
X127041971Y-80922213D01*
X127094732Y-80849590D01*
X127162287Y-80756610D01*
X127255220Y-80574219D01*
X127318477Y-80379534D01*
X127350500Y-80177352D01*
X127350500Y-79972648D01*
X127318477Y-79770466D01*
X127313825Y-79756151D01*
X127311832Y-79686312D01*
X127344075Y-79630158D01*
X133498713Y-73475521D01*
X133498716Y-73475520D01*
X133537823Y-73436412D01*
X133575660Y-73415753D01*
X133599142Y-73402932D01*
X133599143Y-73402932D01*
X133599146Y-73402931D01*
X133628325Y-73405019D01*
G37*
%TD.AperFunction*%
%TA.AperFunction,Conductor*%
G36*
X88739425Y-65736855D02*
G01*
X88754303Y-65746416D01*
X88839275Y-65810026D01*
X88857668Y-65823795D01*
X88857671Y-65823797D01*
X88902618Y-65840561D01*
X88992517Y-65874091D01*
X89052127Y-65880500D01*
X89225500Y-65880499D01*
X89292539Y-65900183D01*
X89338294Y-65952987D01*
X89349500Y-66004499D01*
X89349500Y-66983330D01*
X89349499Y-66983348D01*
X89349499Y-67149054D01*
X89349498Y-67149054D01*
X89390423Y-67301785D01*
X89419358Y-67351900D01*
X89419359Y-67351904D01*
X89419360Y-67351904D01*
X89454299Y-67412422D01*
X89469479Y-67438714D01*
X89469480Y-67438716D01*
X89588349Y-67557585D01*
X89588355Y-67557590D01*
X90163681Y-68132916D01*
X90197166Y-68194239D01*
X90200000Y-68220597D01*
X90200000Y-69176988D01*
X90142993Y-69144075D01*
X90015826Y-69110000D01*
X89884174Y-69110000D01*
X89757007Y-69144075D01*
X89700000Y-69176988D01*
X89700000Y-68260000D01*
X89052155Y-68260000D01*
X88992627Y-68266401D01*
X88992620Y-68266403D01*
X88857913Y-68316645D01*
X88857906Y-68316649D01*
X88742812Y-68402809D01*
X88742809Y-68402812D01*
X88656649Y-68517906D01*
X88656646Y-68517912D01*
X88607577Y-68649471D01*
X88565705Y-68705404D01*
X88500241Y-68729821D01*
X88431968Y-68714969D01*
X88403714Y-68693818D01*
X88289786Y-68579890D01*
X88117815Y-68454948D01*
X88117814Y-68454947D01*
X88078205Y-68434765D01*
X88027409Y-68386791D01*
X88010500Y-68324281D01*
X88010500Y-66004499D01*
X88030185Y-65937460D01*
X88082989Y-65891705D01*
X88134500Y-65880499D01*
X88307871Y-65880499D01*
X88307872Y-65880499D01*
X88367483Y-65874091D01*
X88502331Y-65823796D01*
X88605690Y-65746421D01*
X88671152Y-65722004D01*
X88739425Y-65736855D01*
G37*
%TD.AperFunction*%
%TA.AperFunction,Conductor*%
G36*
X125044075Y-64722993D02*
G01*
X125109901Y-64837007D01*
X125202993Y-64930099D01*
X125317007Y-64995925D01*
X125380590Y-65012962D01*
X124748282Y-65645269D01*
X124748282Y-65645270D01*
X124802449Y-65684624D01*
X124991782Y-65781095D01*
X125193870Y-65846757D01*
X125403754Y-65880000D01*
X125616246Y-65880000D01*
X125826127Y-65846757D01*
X125826130Y-65846757D01*
X126028217Y-65781095D01*
X126217554Y-65684622D01*
X126271716Y-65645270D01*
X126271717Y-65645270D01*
X125639408Y-65012962D01*
X125702993Y-64995925D01*
X125817007Y-64930099D01*
X125910099Y-64837007D01*
X125975925Y-64722993D01*
X125992962Y-64659409D01*
X126625270Y-65291717D01*
X126625270Y-65291716D01*
X126664622Y-65237555D01*
X126669232Y-65228507D01*
X126717205Y-65177709D01*
X126785025Y-65160912D01*
X126851161Y-65183447D01*
X126890204Y-65228504D01*
X126894949Y-65237817D01*
X127019890Y-65409786D01*
X127170213Y-65560109D01*
X127342179Y-65685048D01*
X127342181Y-65685049D01*
X127342184Y-65685051D01*
X127531588Y-65781557D01*
X127733757Y-65847246D01*
X127943713Y-65880500D01*
X127943714Y-65880500D01*
X128156286Y-65880500D01*
X128156287Y-65880500D01*
X128366243Y-65847246D01*
X128568412Y-65781557D01*
X128757816Y-65685051D01*
X128812572Y-65645269D01*
X128929786Y-65560109D01*
X128929788Y-65560106D01*
X128929792Y-65560104D01*
X129080104Y-65409792D01*
X129080106Y-65409788D01*
X129080109Y-65409786D01*
X129205048Y-65237820D01*
X129205047Y-65237820D01*
X129205051Y-65237816D01*
X129209514Y-65229054D01*
X129257488Y-65178259D01*
X129325308Y-65161463D01*
X129391444Y-65183999D01*
X129430486Y-65229056D01*
X129434951Y-65237820D01*
X129559890Y-65409786D01*
X129710213Y-65560109D01*
X129882179Y-65685048D01*
X129882181Y-65685049D01*
X129882184Y-65685051D01*
X130071588Y-65781557D01*
X130273757Y-65847246D01*
X130483713Y-65880500D01*
X130483714Y-65880500D01*
X130696286Y-65880500D01*
X130696287Y-65880500D01*
X130906243Y-65847246D01*
X131108412Y-65781557D01*
X131297816Y-65685051D01*
X131469792Y-65560104D01*
X131583329Y-65446566D01*
X131644648Y-65413084D01*
X131714340Y-65418068D01*
X131770274Y-65459939D01*
X131787189Y-65490917D01*
X131836202Y-65622328D01*
X131836206Y-65622335D01*
X131922452Y-65737544D01*
X131922455Y-65737547D01*
X132037664Y-65823793D01*
X132037671Y-65823797D01*
X132172517Y-65874091D01*
X132172516Y-65874091D01*
X132179444Y-65874835D01*
X132232127Y-65880500D01*
X133625500Y-65880499D01*
X133692539Y-65900184D01*
X133738294Y-65952987D01*
X133749500Y-66004499D01*
X133749500Y-68185500D01*
X133729815Y-68252539D01*
X133677011Y-68298294D01*
X133625500Y-68309500D01*
X132473384Y-68309500D01*
X132454145Y-68311248D01*
X132402807Y-68315913D01*
X132240393Y-68366522D01*
X132094811Y-68454530D01*
X131974530Y-68574811D01*
X131886521Y-68720396D01*
X131877909Y-68748033D01*
X131839171Y-68806181D01*
X131775146Y-68834154D01*
X131706161Y-68823072D01*
X131659205Y-68784026D01*
X131620107Y-68730211D01*
X131469786Y-68579890D01*
X131297820Y-68454951D01*
X131108414Y-68358444D01*
X131108413Y-68358443D01*
X131108412Y-68358443D01*
X130906243Y-68292754D01*
X130906241Y-68292753D01*
X130906240Y-68292753D01*
X130744957Y-68267208D01*
X130696287Y-68259500D01*
X130483713Y-68259500D01*
X130435042Y-68267208D01*
X130273760Y-68292753D01*
X130071585Y-68358444D01*
X129882179Y-68454951D01*
X129710215Y-68579889D01*
X129596285Y-68693819D01*
X129534962Y-68727303D01*
X129465270Y-68722319D01*
X129409337Y-68680447D01*
X129392422Y-68649470D01*
X129343354Y-68517913D01*
X129343350Y-68517906D01*
X129257190Y-68402812D01*
X129257187Y-68402809D01*
X129142093Y-68316649D01*
X129142086Y-68316645D01*
X129007379Y-68266403D01*
X129007372Y-68266401D01*
X128947844Y-68260000D01*
X128300000Y-68260000D01*
X128300000Y-69176988D01*
X128242993Y-69144075D01*
X128115826Y-69110000D01*
X127984174Y-69110000D01*
X127857007Y-69144075D01*
X127800000Y-69176988D01*
X127800000Y-68260000D01*
X127152155Y-68260000D01*
X127092627Y-68266401D01*
X127092620Y-68266403D01*
X126957913Y-68316645D01*
X126957906Y-68316649D01*
X126842812Y-68402809D01*
X126842809Y-68402812D01*
X126756649Y-68517906D01*
X126756646Y-68517912D01*
X126707577Y-68649471D01*
X126665705Y-68705404D01*
X126600241Y-68729821D01*
X126531968Y-68714969D01*
X126503714Y-68693818D01*
X126389786Y-68579890D01*
X126217820Y-68454951D01*
X126028414Y-68358444D01*
X126028413Y-68358443D01*
X126028412Y-68358443D01*
X125826243Y-68292754D01*
X125826241Y-68292753D01*
X125826240Y-68292753D01*
X125664957Y-68267208D01*
X125616287Y-68259500D01*
X125403713Y-68259500D01*
X125355042Y-68267208D01*
X125193760Y-68292753D01*
X124991585Y-68358444D01*
X124802179Y-68454951D01*
X124630213Y-68579890D01*
X124479890Y-68730213D01*
X124354949Y-68902182D01*
X124350484Y-68910946D01*
X124302509Y-68961742D01*
X124234688Y-68978536D01*
X124168553Y-68955998D01*
X124129516Y-68910946D01*
X124125050Y-68902182D01*
X124000109Y-68730213D01*
X123849786Y-68579890D01*
X123677820Y-68454951D01*
X123488414Y-68358444D01*
X123488413Y-68358443D01*
X123488412Y-68358443D01*
X123286243Y-68292754D01*
X123286241Y-68292753D01*
X123286240Y-68292753D01*
X123124957Y-68267208D01*
X123076287Y-68259500D01*
X122863713Y-68259500D01*
X122815042Y-68267208D01*
X122653760Y-68292753D01*
X122451585Y-68358444D01*
X122262179Y-68454951D01*
X122090213Y-68579890D01*
X121939890Y-68730213D01*
X121814949Y-68902182D01*
X121810484Y-68910946D01*
X121762509Y-68961742D01*
X121694688Y-68978536D01*
X121628553Y-68955998D01*
X121589516Y-68910946D01*
X121585050Y-68902182D01*
X121460109Y-68730213D01*
X121309786Y-68579890D01*
X121137820Y-68454951D01*
X120948414Y-68358444D01*
X120948413Y-68358443D01*
X120948412Y-68358443D01*
X120746243Y-68292754D01*
X120746241Y-68292753D01*
X120746240Y-68292753D01*
X120584957Y-68267208D01*
X120536287Y-68259500D01*
X120323713Y-68259500D01*
X120275042Y-68267208D01*
X120113760Y-68292753D01*
X119911585Y-68358444D01*
X119722179Y-68454951D01*
X119550213Y-68579890D01*
X119399890Y-68730213D01*
X119274949Y-68902182D01*
X119270484Y-68910946D01*
X119222509Y-68961742D01*
X119154688Y-68978536D01*
X119088553Y-68955998D01*
X119049516Y-68910946D01*
X119045050Y-68902182D01*
X118920109Y-68730213D01*
X118769786Y-68579890D01*
X118597820Y-68454951D01*
X118408414Y-68358444D01*
X118408413Y-68358443D01*
X118408412Y-68358443D01*
X118229042Y-68300162D01*
X118171368Y-68260725D01*
X118144170Y-68196367D01*
X118156085Y-68127521D01*
X118179678Y-68094554D01*
X119637415Y-66636819D01*
X119698738Y-66603334D01*
X119725096Y-66600500D01*
X120863331Y-66600500D01*
X120863347Y-66600501D01*
X120870943Y-66600501D01*
X121029054Y-66600501D01*
X121029057Y-66600501D01*
X121181785Y-66559577D01*
X121231904Y-66530639D01*
X121318716Y-66480520D01*
X121430520Y-66368716D01*
X121430520Y-66368714D01*
X121440728Y-66358507D01*
X121440730Y-66358504D01*
X122068713Y-65730521D01*
X122068716Y-65730520D01*
X122101580Y-65697655D01*
X122129499Y-65682411D01*
X122162897Y-65664173D01*
X122162900Y-65664173D01*
X122162903Y-65664172D01*
X122195326Y-65666491D01*
X122232589Y-65669156D01*
X122232592Y-65669157D01*
X122232594Y-65669158D01*
X122232597Y-65669160D01*
X122257892Y-65682739D01*
X122258035Y-65682508D01*
X122262087Y-65684991D01*
X122262143Y-65685021D01*
X122262184Y-65685051D01*
X122451588Y-65781557D01*
X122653757Y-65847246D01*
X122863713Y-65880500D01*
X122863714Y-65880500D01*
X123076286Y-65880500D01*
X123076287Y-65880500D01*
X123286243Y-65847246D01*
X123488412Y-65781557D01*
X123677816Y-65685051D01*
X123732572Y-65645269D01*
X123849786Y-65560109D01*
X123849788Y-65560106D01*
X123849792Y-65560104D01*
X124000104Y-65409792D01*
X124000106Y-65409788D01*
X124000109Y-65409786D01*
X124085890Y-65291717D01*
X124125051Y-65237816D01*
X124129793Y-65228508D01*
X124177763Y-65177711D01*
X124245583Y-65160911D01*
X124311719Y-65183445D01*
X124350763Y-65228500D01*
X124355373Y-65237547D01*
X124394728Y-65291716D01*
X125027037Y-64659408D01*
X125044075Y-64722993D01*
G37*
%TD.AperFunction*%
%TA.AperFunction,Conductor*%
G36*
X117424075Y-64722993D02*
G01*
X117489901Y-64837007D01*
X117582993Y-64930099D01*
X117697007Y-64995925D01*
X117760589Y-65012962D01*
X117128282Y-65645269D01*
X117128282Y-65645270D01*
X117182449Y-65684624D01*
X117371782Y-65781095D01*
X117573870Y-65846757D01*
X117783754Y-65880000D01*
X117932539Y-65880000D01*
X117999578Y-65899685D01*
X118045333Y-65952489D01*
X118055277Y-66021647D01*
X118026252Y-66085203D01*
X118020220Y-66091681D01*
X116776721Y-67335181D01*
X116715398Y-67368666D01*
X116689040Y-67371500D01*
X111994669Y-67371500D01*
X111994653Y-67371499D01*
X111987057Y-67371499D01*
X111828943Y-67371499D01*
X111749010Y-67392917D01*
X111676216Y-67412422D01*
X111630673Y-67438717D01*
X111630672Y-67438716D01*
X111539287Y-67491477D01*
X111539282Y-67491481D01*
X111427478Y-67603286D01*
X110754522Y-68276241D01*
X110693199Y-68309726D01*
X110628523Y-68306491D01*
X110586245Y-68292754D01*
X110426102Y-68267390D01*
X110376287Y-68259500D01*
X110163713Y-68259500D01*
X110115042Y-68267208D01*
X109953760Y-68292753D01*
X109751585Y-68358444D01*
X109562179Y-68454951D01*
X109390213Y-68579890D01*
X109239890Y-68730213D01*
X109114949Y-68902182D01*
X109110484Y-68910946D01*
X109062509Y-68961742D01*
X108994688Y-68978536D01*
X108928553Y-68955998D01*
X108889516Y-68910946D01*
X108885050Y-68902182D01*
X108760109Y-68730213D01*
X108609786Y-68579890D01*
X108437820Y-68454951D01*
X108248414Y-68358444D01*
X108248413Y-68358443D01*
X108248412Y-68358443D01*
X108046243Y-68292754D01*
X108046241Y-68292753D01*
X108046240Y-68292753D01*
X107884957Y-68267208D01*
X107836287Y-68259500D01*
X107689096Y-68259500D01*
X107622057Y-68239815D01*
X107576302Y-68187011D01*
X107566358Y-68117853D01*
X107595383Y-68054297D01*
X107601415Y-68047819D01*
X108665904Y-66983330D01*
X109785478Y-65863755D01*
X109846799Y-65830272D01*
X109911473Y-65833506D01*
X109953757Y-65847246D01*
X110163713Y-65880500D01*
X110163714Y-65880500D01*
X110376286Y-65880500D01*
X110376287Y-65880500D01*
X110586243Y-65847246D01*
X110788412Y-65781557D01*
X110977816Y-65685051D01*
X111032572Y-65645269D01*
X111149786Y-65560109D01*
X111149788Y-65560106D01*
X111149792Y-65560104D01*
X111300104Y-65409792D01*
X111300106Y-65409788D01*
X111300109Y-65409786D01*
X111425048Y-65237820D01*
X111425047Y-65237820D01*
X111425051Y-65237816D01*
X111429514Y-65229054D01*
X111477488Y-65178259D01*
X111545308Y-65161463D01*
X111611444Y-65183999D01*
X111650486Y-65229056D01*
X111654951Y-65237820D01*
X111779890Y-65409786D01*
X111930213Y-65560109D01*
X112102179Y-65685048D01*
X112102181Y-65685049D01*
X112102184Y-65685051D01*
X112291588Y-65781557D01*
X112493757Y-65847246D01*
X112703713Y-65880500D01*
X112703714Y-65880500D01*
X112916286Y-65880500D01*
X112916287Y-65880500D01*
X113126243Y-65847246D01*
X113328412Y-65781557D01*
X113517816Y-65685051D01*
X113572572Y-65645269D01*
X113689786Y-65560109D01*
X113689788Y-65560106D01*
X113689792Y-65560104D01*
X113840104Y-65409792D01*
X113840106Y-65409788D01*
X113840109Y-65409786D01*
X113965048Y-65237820D01*
X113965047Y-65237820D01*
X113965051Y-65237816D01*
X113969514Y-65229054D01*
X114017488Y-65178259D01*
X114085308Y-65161463D01*
X114151444Y-65183999D01*
X114190486Y-65229056D01*
X114194951Y-65237820D01*
X114319890Y-65409786D01*
X114470213Y-65560109D01*
X114642179Y-65685048D01*
X114642181Y-65685049D01*
X114642184Y-65685051D01*
X114831588Y-65781557D01*
X115033757Y-65847246D01*
X115243713Y-65880500D01*
X115243714Y-65880500D01*
X115456286Y-65880500D01*
X115456287Y-65880500D01*
X115666243Y-65847246D01*
X115868412Y-65781557D01*
X116057816Y-65685051D01*
X116112572Y-65645269D01*
X116229786Y-65560109D01*
X116229788Y-65560106D01*
X116229792Y-65560104D01*
X116380104Y-65409792D01*
X116380106Y-65409788D01*
X116380109Y-65409786D01*
X116465890Y-65291717D01*
X116505051Y-65237816D01*
X116509793Y-65228508D01*
X116557763Y-65177711D01*
X116625583Y-65160911D01*
X116691719Y-65183445D01*
X116730763Y-65228500D01*
X116735373Y-65237547D01*
X116774728Y-65291716D01*
X117407037Y-64659408D01*
X117424075Y-64722993D01*
G37*
%TD.AperFunction*%
%TA.AperFunction,Conductor*%
G36*
X132089774Y-53109275D02*
G01*
X132140825Y-53140060D01*
X133713181Y-54712416D01*
X133746666Y-54773739D01*
X133749500Y-54800097D01*
X133749500Y-63055500D01*
X133729815Y-63122539D01*
X133677011Y-63168294D01*
X133625500Y-63179500D01*
X132232129Y-63179500D01*
X132232123Y-63179501D01*
X132172516Y-63185908D01*
X132037671Y-63236202D01*
X132037664Y-63236206D01*
X131922455Y-63322452D01*
X131922452Y-63322455D01*
X131836206Y-63437664D01*
X131836203Y-63437669D01*
X131787189Y-63569083D01*
X131745317Y-63625016D01*
X131679853Y-63649433D01*
X131611580Y-63634581D01*
X131583326Y-63613430D01*
X131469786Y-63499890D01*
X131297820Y-63374951D01*
X131108414Y-63278444D01*
X131108413Y-63278443D01*
X131108412Y-63278443D01*
X130906243Y-63212754D01*
X130906241Y-63212753D01*
X130906240Y-63212753D01*
X130744833Y-63187189D01*
X130696287Y-63179500D01*
X130483713Y-63179500D01*
X130435167Y-63187189D01*
X130273760Y-63212753D01*
X130071585Y-63278444D01*
X129882179Y-63374951D01*
X129710213Y-63499890D01*
X129559890Y-63650213D01*
X129434949Y-63822182D01*
X129430484Y-63830946D01*
X129382509Y-63881742D01*
X129314688Y-63898536D01*
X129248553Y-63875998D01*
X129209516Y-63830946D01*
X129205050Y-63822182D01*
X129080109Y-63650213D01*
X128929786Y-63499890D01*
X128757820Y-63374951D01*
X128568414Y-63278444D01*
X128568413Y-63278443D01*
X128568412Y-63278443D01*
X128366243Y-63212754D01*
X128366241Y-63212753D01*
X128366240Y-63212753D01*
X128204833Y-63187189D01*
X128156287Y-63179500D01*
X127943713Y-63179500D01*
X127895167Y-63187189D01*
X127733760Y-63212753D01*
X127531585Y-63278444D01*
X127342179Y-63374951D01*
X127170213Y-63499890D01*
X127019890Y-63650213D01*
X126894949Y-63822182D01*
X126890202Y-63831499D01*
X126842227Y-63882293D01*
X126774405Y-63899087D01*
X126708271Y-63876548D01*
X126669234Y-63831495D01*
X126664626Y-63822452D01*
X126625270Y-63768282D01*
X126625269Y-63768282D01*
X125992962Y-64400590D01*
X125975925Y-64337007D01*
X125910099Y-64222993D01*
X125817007Y-64129901D01*
X125702993Y-64064075D01*
X125639409Y-64047037D01*
X126271716Y-63414728D01*
X126217550Y-63375375D01*
X126028217Y-63278904D01*
X125826129Y-63213242D01*
X125616246Y-63180000D01*
X125403754Y-63180000D01*
X125193872Y-63213242D01*
X125193869Y-63213242D01*
X124991782Y-63278904D01*
X124802439Y-63375380D01*
X124748282Y-63414727D01*
X124748282Y-63414728D01*
X125380591Y-64047037D01*
X125317007Y-64064075D01*
X125202993Y-64129901D01*
X125109901Y-64222993D01*
X125044075Y-64337007D01*
X125027037Y-64400591D01*
X124394728Y-63768282D01*
X124394727Y-63768282D01*
X124355380Y-63822440D01*
X124355376Y-63822446D01*
X124350760Y-63831505D01*
X124302781Y-63882297D01*
X124234959Y-63899087D01*
X124168826Y-63876543D01*
X124129794Y-63831493D01*
X124125051Y-63822184D01*
X124125049Y-63822181D01*
X124125048Y-63822179D01*
X124000109Y-63650213D01*
X123849786Y-63499890D01*
X123677819Y-63374951D01*
X123677818Y-63374950D01*
X123677816Y-63374949D01*
X123574785Y-63322452D01*
X123546000Y-63307785D01*
X123495204Y-63259810D01*
X123478409Y-63191989D01*
X123500947Y-63125854D01*
X123514608Y-63109625D01*
X131070520Y-55553716D01*
X131149577Y-55416784D01*
X131190501Y-55264057D01*
X131190501Y-55105942D01*
X131190501Y-55098347D01*
X131190500Y-55098329D01*
X131190500Y-54325718D01*
X131210185Y-54258679D01*
X131258207Y-54215233D01*
X131297815Y-54195052D01*
X131297815Y-54195051D01*
X131297816Y-54195051D01*
X131395811Y-54123854D01*
X131469786Y-54070109D01*
X131469788Y-54070106D01*
X131469792Y-54070104D01*
X131620104Y-53919792D01*
X131620106Y-53919788D01*
X131620109Y-53919786D01*
X131745048Y-53747820D01*
X131745047Y-53747820D01*
X131745051Y-53747816D01*
X131841557Y-53558412D01*
X131907246Y-53356243D01*
X131930671Y-53208342D01*
X131960600Y-53145208D01*
X132019912Y-53108277D01*
X132089774Y-53109275D01*
G37*
%TD.AperFunction*%
%TA.AperFunction,Conductor*%
G36*
X124085270Y-53801717D02*
G01*
X124085270Y-53801716D01*
X124124622Y-53747555D01*
X124129232Y-53738507D01*
X124177205Y-53687709D01*
X124245025Y-53670912D01*
X124311161Y-53693447D01*
X124350204Y-53738504D01*
X124354949Y-53747817D01*
X124479890Y-53919786D01*
X124630213Y-54070109D01*
X124802179Y-54195048D01*
X124802181Y-54195049D01*
X124802184Y-54195051D01*
X124991588Y-54291557D01*
X125193757Y-54357246D01*
X125403713Y-54390500D01*
X125403714Y-54390500D01*
X125616286Y-54390500D01*
X125616287Y-54390500D01*
X125826243Y-54357246D01*
X126028412Y-54291557D01*
X126217816Y-54195051D01*
X126282995Y-54147696D01*
X126389786Y-54070109D01*
X126389788Y-54070106D01*
X126389792Y-54070104D01*
X126540104Y-53919792D01*
X126540106Y-53919788D01*
X126540109Y-53919786D01*
X126665048Y-53747820D01*
X126665047Y-53747820D01*
X126665051Y-53747816D01*
X126669514Y-53739054D01*
X126717488Y-53688259D01*
X126785308Y-53671463D01*
X126851444Y-53693999D01*
X126890486Y-53739056D01*
X126894951Y-53747820D01*
X127019890Y-53919786D01*
X127170213Y-54070109D01*
X127342184Y-54195051D01*
X127342184Y-54195052D01*
X127381793Y-54215233D01*
X127432590Y-54263206D01*
X127449500Y-54325718D01*
X127449500Y-56961041D01*
X127429815Y-57028080D01*
X127413181Y-57048722D01*
X122698722Y-61763181D01*
X122637399Y-61796666D01*
X122611041Y-61799500D01*
X121499758Y-61799500D01*
X121432719Y-61779815D01*
X121386964Y-61727011D01*
X121377020Y-61657853D01*
X121406045Y-61594297D01*
X121412077Y-61587819D01*
X121434912Y-61564984D01*
X121460104Y-61539792D01*
X121460106Y-61539788D01*
X121460109Y-61539786D01*
X121585048Y-61367820D01*
X121585047Y-61367820D01*
X121585051Y-61367816D01*
X121681557Y-61178412D01*
X121747246Y-60976243D01*
X121780500Y-60766287D01*
X121780500Y-60553713D01*
X121747246Y-60343757D01*
X121681557Y-60141588D01*
X121585051Y-59952184D01*
X121585049Y-59952181D01*
X121585048Y-59952179D01*
X121460109Y-59780213D01*
X121309794Y-59629898D01*
X121309792Y-59629896D01*
X121281613Y-59609422D01*
X121278273Y-59605091D01*
X121273297Y-59602819D01*
X121257166Y-59577719D01*
X121238949Y-59554094D01*
X121237696Y-59547422D01*
X121235523Y-59544041D01*
X121230500Y-59509106D01*
X121230500Y-59270893D01*
X121250185Y-59203854D01*
X121281614Y-59170576D01*
X121309792Y-59150104D01*
X121460104Y-58999792D01*
X121460106Y-58999788D01*
X121460109Y-58999786D01*
X121585048Y-58827820D01*
X121585047Y-58827820D01*
X121585051Y-58827816D01*
X121681557Y-58638412D01*
X121747246Y-58436243D01*
X121780500Y-58226287D01*
X121780500Y-58013713D01*
X121747246Y-57803757D01*
X121681557Y-57601588D01*
X121585051Y-57412184D01*
X121585049Y-57412181D01*
X121585048Y-57412179D01*
X121460109Y-57240213D01*
X121309794Y-57089898D01*
X121309792Y-57089896D01*
X121281613Y-57069422D01*
X121238949Y-57014094D01*
X121230500Y-56969106D01*
X121230500Y-54190893D01*
X121240078Y-54158271D01*
X121249172Y-54125456D01*
X121249964Y-54124603D01*
X121250185Y-54123854D01*
X121271874Y-54098432D01*
X121276538Y-54094263D01*
X121309792Y-54070104D01*
X121460104Y-53919792D01*
X121460106Y-53919788D01*
X121460109Y-53919786D01*
X121545890Y-53801717D01*
X121585051Y-53747816D01*
X121589793Y-53738508D01*
X121637763Y-53687711D01*
X121705583Y-53670911D01*
X121771719Y-53693445D01*
X121810763Y-53738500D01*
X121815373Y-53747547D01*
X121854728Y-53801716D01*
X122487037Y-53169408D01*
X122504075Y-53232993D01*
X122569901Y-53347007D01*
X122662993Y-53440099D01*
X122777007Y-53505925D01*
X122840590Y-53522962D01*
X122208282Y-54155269D01*
X122208282Y-54155270D01*
X122262449Y-54194624D01*
X122451782Y-54291095D01*
X122653870Y-54356757D01*
X122863754Y-54390000D01*
X123076246Y-54390000D01*
X123286127Y-54356757D01*
X123286130Y-54356757D01*
X123488217Y-54291095D01*
X123677554Y-54194622D01*
X123731716Y-54155270D01*
X123731717Y-54155270D01*
X123099408Y-53522962D01*
X123162993Y-53505925D01*
X123277007Y-53440099D01*
X123370099Y-53347007D01*
X123435925Y-53232993D01*
X123452962Y-53169408D01*
X124085270Y-53801717D01*
G37*
%TD.AperFunction*%
%TA.AperFunction,Conductor*%
G36*
X86944075Y-59642993D02*
G01*
X87009901Y-59757007D01*
X87102993Y-59850099D01*
X87217007Y-59915925D01*
X87280590Y-59932962D01*
X86648282Y-60565269D01*
X86648282Y-60565270D01*
X86702452Y-60604626D01*
X86702451Y-60604626D01*
X86711495Y-60609234D01*
X86762292Y-60657208D01*
X86779087Y-60725029D01*
X86756550Y-60791164D01*
X86711499Y-60830202D01*
X86702182Y-60834949D01*
X86530213Y-60959890D01*
X86379890Y-61110213D01*
X86254949Y-61282182D01*
X86250484Y-61290946D01*
X86202509Y-61341742D01*
X86134688Y-61358536D01*
X86068553Y-61335998D01*
X86029516Y-61290946D01*
X86025050Y-61282182D01*
X85900109Y-61110213D01*
X85749786Y-60959890D01*
X85577817Y-60834949D01*
X85568504Y-60830204D01*
X85517707Y-60782230D01*
X85500912Y-60714409D01*
X85523449Y-60648274D01*
X85568507Y-60609232D01*
X85577555Y-60604622D01*
X85631716Y-60565270D01*
X85631717Y-60565270D01*
X84999408Y-59932962D01*
X85062993Y-59915925D01*
X85177007Y-59850099D01*
X85270099Y-59757007D01*
X85335925Y-59642993D01*
X85352962Y-59579408D01*
X85985270Y-60211717D01*
X85985270Y-60211716D01*
X86024622Y-60157554D01*
X86029514Y-60147954D01*
X86077488Y-60097157D01*
X86145308Y-60080361D01*
X86211444Y-60102897D01*
X86250486Y-60147954D01*
X86255375Y-60157550D01*
X86294728Y-60211716D01*
X86927037Y-59579408D01*
X86944075Y-59642993D01*
G37*
%TD.AperFunction*%
%TA.AperFunction,Conductor*%
G36*
X89484075Y-59642993D02*
G01*
X89549901Y-59757007D01*
X89642993Y-59850099D01*
X89757007Y-59915925D01*
X89820590Y-59932962D01*
X89188282Y-60565269D01*
X89188282Y-60565270D01*
X89242452Y-60604626D01*
X89242451Y-60604626D01*
X89251495Y-60609234D01*
X89302292Y-60657208D01*
X89319087Y-60725029D01*
X89296550Y-60791164D01*
X89251499Y-60830202D01*
X89242182Y-60834949D01*
X89070213Y-60959890D01*
X88919890Y-61110213D01*
X88794949Y-61282182D01*
X88790484Y-61290946D01*
X88742509Y-61341742D01*
X88674688Y-61358536D01*
X88608553Y-61335998D01*
X88569516Y-61290946D01*
X88565050Y-61282182D01*
X88440109Y-61110213D01*
X88289786Y-60959890D01*
X88117817Y-60834949D01*
X88108504Y-60830204D01*
X88057707Y-60782230D01*
X88040912Y-60714409D01*
X88063449Y-60648274D01*
X88108507Y-60609232D01*
X88117555Y-60604622D01*
X88171716Y-60565270D01*
X88171717Y-60565270D01*
X87539408Y-59932962D01*
X87602993Y-59915925D01*
X87717007Y-59850099D01*
X87810099Y-59757007D01*
X87875925Y-59642993D01*
X87892962Y-59579408D01*
X88525270Y-60211717D01*
X88525270Y-60211716D01*
X88564622Y-60157554D01*
X88569514Y-60147954D01*
X88617488Y-60097157D01*
X88685308Y-60080361D01*
X88751444Y-60102897D01*
X88790486Y-60147954D01*
X88795375Y-60157550D01*
X88834728Y-60211716D01*
X89467037Y-59579408D01*
X89484075Y-59642993D01*
G37*
%TD.AperFunction*%
%TA.AperFunction,Conductor*%
G36*
X92024075Y-59642993D02*
G01*
X92089901Y-59757007D01*
X92182993Y-59850099D01*
X92297007Y-59915925D01*
X92360590Y-59932962D01*
X91728282Y-60565269D01*
X91728282Y-60565270D01*
X91782452Y-60604626D01*
X91782451Y-60604626D01*
X91791495Y-60609234D01*
X91842292Y-60657208D01*
X91859087Y-60725029D01*
X91836550Y-60791164D01*
X91791499Y-60830202D01*
X91782182Y-60834949D01*
X91610213Y-60959890D01*
X91459890Y-61110213D01*
X91334949Y-61282182D01*
X91330484Y-61290946D01*
X91282509Y-61341742D01*
X91214688Y-61358536D01*
X91148553Y-61335998D01*
X91109516Y-61290946D01*
X91105050Y-61282182D01*
X90980109Y-61110213D01*
X90829786Y-60959890D01*
X90657817Y-60834949D01*
X90648504Y-60830204D01*
X90597707Y-60782230D01*
X90580912Y-60714409D01*
X90603449Y-60648274D01*
X90648507Y-60609232D01*
X90657555Y-60604622D01*
X90711716Y-60565270D01*
X90711717Y-60565270D01*
X90079408Y-59932962D01*
X90142993Y-59915925D01*
X90257007Y-59850099D01*
X90350099Y-59757007D01*
X90415925Y-59642993D01*
X90432962Y-59579408D01*
X91065270Y-60211717D01*
X91065270Y-60211716D01*
X91104622Y-60157554D01*
X91109514Y-60147954D01*
X91157488Y-60097157D01*
X91225308Y-60080361D01*
X91291444Y-60102897D01*
X91330486Y-60147954D01*
X91335375Y-60157550D01*
X91374728Y-60211716D01*
X92007037Y-59579408D01*
X92024075Y-59642993D01*
G37*
%TD.AperFunction*%
%TA.AperFunction,Conductor*%
G36*
X94564075Y-59642993D02*
G01*
X94629901Y-59757007D01*
X94722993Y-59850099D01*
X94837007Y-59915925D01*
X94900590Y-59932962D01*
X94268282Y-60565269D01*
X94268282Y-60565270D01*
X94322452Y-60604626D01*
X94322451Y-60604626D01*
X94331495Y-60609234D01*
X94382292Y-60657208D01*
X94399087Y-60725029D01*
X94376550Y-60791164D01*
X94331499Y-60830202D01*
X94322182Y-60834949D01*
X94150213Y-60959890D01*
X93999890Y-61110213D01*
X93874949Y-61282182D01*
X93870484Y-61290946D01*
X93822509Y-61341742D01*
X93754688Y-61358536D01*
X93688553Y-61335998D01*
X93649516Y-61290946D01*
X93645050Y-61282182D01*
X93520109Y-61110213D01*
X93369786Y-60959890D01*
X93197817Y-60834949D01*
X93188504Y-60830204D01*
X93137707Y-60782230D01*
X93120912Y-60714409D01*
X93143449Y-60648274D01*
X93188507Y-60609232D01*
X93197555Y-60604622D01*
X93251716Y-60565270D01*
X93251717Y-60565270D01*
X92619408Y-59932962D01*
X92682993Y-59915925D01*
X92797007Y-59850099D01*
X92890099Y-59757007D01*
X92955925Y-59642993D01*
X92972962Y-59579408D01*
X93605270Y-60211717D01*
X93605270Y-60211716D01*
X93644622Y-60157554D01*
X93649514Y-60147954D01*
X93697488Y-60097157D01*
X93765308Y-60080361D01*
X93831444Y-60102897D01*
X93870486Y-60147954D01*
X93875375Y-60157550D01*
X93914728Y-60211716D01*
X94547037Y-59579408D01*
X94564075Y-59642993D01*
G37*
%TD.AperFunction*%
%TA.AperFunction,Conductor*%
G36*
X97104075Y-59642993D02*
G01*
X97169901Y-59757007D01*
X97262993Y-59850099D01*
X97377007Y-59915925D01*
X97440590Y-59932962D01*
X96808282Y-60565269D01*
X96808282Y-60565270D01*
X96862452Y-60604626D01*
X96862451Y-60604626D01*
X96871495Y-60609234D01*
X96922292Y-60657208D01*
X96939087Y-60725029D01*
X96916550Y-60791164D01*
X96871499Y-60830202D01*
X96862182Y-60834949D01*
X96690213Y-60959890D01*
X96539890Y-61110213D01*
X96414949Y-61282182D01*
X96410484Y-61290946D01*
X96362509Y-61341742D01*
X96294688Y-61358536D01*
X96228553Y-61335998D01*
X96189516Y-61290946D01*
X96185050Y-61282182D01*
X96060109Y-61110213D01*
X95909786Y-60959890D01*
X95737817Y-60834949D01*
X95728504Y-60830204D01*
X95677707Y-60782230D01*
X95660912Y-60714409D01*
X95683449Y-60648274D01*
X95728507Y-60609232D01*
X95737555Y-60604622D01*
X95791716Y-60565270D01*
X95791717Y-60565270D01*
X95159408Y-59932962D01*
X95222993Y-59915925D01*
X95337007Y-59850099D01*
X95430099Y-59757007D01*
X95495925Y-59642993D01*
X95512962Y-59579409D01*
X96145270Y-60211717D01*
X96145270Y-60211716D01*
X96184622Y-60157554D01*
X96189514Y-60147954D01*
X96237488Y-60097157D01*
X96305308Y-60080361D01*
X96371444Y-60102897D01*
X96410486Y-60147954D01*
X96415375Y-60157550D01*
X96454728Y-60211716D01*
X97087037Y-59579408D01*
X97104075Y-59642993D01*
G37*
%TD.AperFunction*%
%TD*%
M02*
